<?xml version="1.0" encoding="utf-8"?>
<!-- Uploaded to: SVG Repo, www.svgrepo.com, Generator: SVG Repo Mixer Tools -->
<svg fill="#000000" height="800px" width="800px" version="1.2" baseProfile="tiny" id="_x31_" xmlns="http://www.w3.org/2000/svg" xmlns:xlink="http://www.w3.org/1999/xlink"
	  viewBox="0 0 125.3 256" xml:space="preserve">
<path d="M97,15.7c-4,4-10.6,4-14.6,0c-0.6-0.6-1.2-1.4-1.6-2C77.2,7.4,70.3,3,62.7,3c-11.4,0-20.9,9.2-20.9,20.9s9.2,20.9,20.9,20.9
	C81,44.8,96,31.3,98.6,13.7C98.2,14.5,97.6,15.1,97,15.7z M116.1,138.6l-7.8-66.2C106.4,59.8,95.6,50,82.6,50H42.9
	c-13,0-24.1,9.8-25.7,22.5l-7.8,66.2c-0.6,5,3,9.4,8,10c5,0.6,9.4-3,10-8l7.4-61.6c0.2-1.2,1.2-2.2,2.6-2.2s2.6,1.2,2.6,2.6
	c0,0.2,0,0.4,0,0.4s-5.4,43.5-5.4,44.5c-0.2,1.2-0.2,2.4-0.2,3.4v110.7c0,7.8,5.8,14,13,14s13-6.2,13-14v-89.7
	c0-1.4,1.2-2.6,2.6-2.6s2.6,1.2,2.6,2.6v90.1c0,7.8,5.8,14,13,14c7.2,0,13-6.2,13-14V128c0-1,0-2.4-0.2-3.4
	c-0.2-0.8-5.4-44.5-5.4-44.5s0-0.2,0-0.4c0-1.4,1.2-2.6,2.6-2.6c1.2,0,2.2,1,2.6,2.2l7.4,61.6c0.6,5,5.2,8.6,10,8
	C113.1,148.1,116.7,143.6,116.1,138.6z"/>
</svg>