<?xml version="1.0" encoding="utf-8"?>
<!-- Uploaded to: SVG Repo, www.svgrepo.com, Generator: SVG Repo Mixer Tools -->
<svg fill="#000000" height="800px" width="800px" version="1.2" baseProfile="tiny" xmlns="http://www.w3.org/2000/svg" xmlns:xlink="http://www.w3.org/1999/xlink" x="0px"
	 y="0px" viewBox="-935 937 128 128" xml:space="preserve">
<g id="Layer_1">
	<path d="M-875.5,962.4c2-1.5,4.6-2.3,7.4-2.2c3.6,0.3,6.7,2.5,8.4,5.2l10.7,21.2l14.5,10.1c1.2,1,2,2.5,1.9,4.2
		c-0.1,2.6-2.5,4.6-5.2,4.3c-0.7,0-1.5-0.3-2.2-0.7l-15.6-10.7c-0.4-0.4-0.9-0.9-1.2-1.5l-4.1-7.9l-4.8,21.1l18.9,22.3
		c0.4,0.7,0.7,1.5,0.9,2.2l5.1,26.9c0,0.6,0,1,0,1.5c-0.3,4.1-3.8,6.8-7.7,6.7c-3.2-0.3-5.7-2.6-6.5-5.7l-4.8-25.1l-15.3-17
		l-3.6,16.3c-0.1,0.7-1.2,2.3-1.5,2.9l-14.6,24.9c-1.5,2.2-3.9,3.8-6.7,3.4c-4.1-0.3-7-3.8-6.7-7.7c0.1-1.2,0.6-2.2,1-3.1l13.7-22.8
		l11.4-50.4l-7.4,6l-4.1,18c-0.4,2.2-2.6,4.2-5.1,4.1c-2.6-0.1-4.6-2.5-4.5-5.2c0-0.1,0-0.4,0.1-0.6l4.6-20.9
		c0.3-0.9,0.7-1.6,1.5-2.2L-875.5,962.4z"/>
</g>
<g id="H1_copy">
	<path d="M-884.5,943.5c1.3,8.6,8.7,15.3,17.8,15.3c5.7,0,10.2-4.6,10.2-10.2s-4.6-10.2-10.2-10.2c-3.9,0-7.2,2-8.9,5.2
		c-0.2,0.4-0.5,0.7-0.8,1c-2,2-5.3,2-7.3,0C-884.1,944.2-884.3,943.9-884.5,943.5z"/>
</g>
</svg>