<svg xmlns="http://www.w3.org/2000/svg" xmlns:xlink="http://www.w3.org/1999/xlink" xmlns:lucid="lucid" width="5967.34" height="3345.49"><g transform="translate(67131 48025)" lucid:page-tab-id="0_0"><path d="M-62814.66-46640c0 750.72-600.1 1360-1339.55 1360-739.44 0-1339.56-609.28-1339.56-1360s600.12-1360 1339.55-1360c739.42 0 1339.54 609.28 1339.54 1360z" stroke="#3a414a" stroke-width="10" fill-opacity="0"/><path d="M-64763.03-46840c22.96 0 41.75 18.5 41.75 41.5s-18.8 42-41.75 42c-22.97 0-41.55-19-41.55-42s18.58-41.5 41.55-41.5zm52.4 94h-103.97c-28.8 0-51.98 23-51.98 52v127c0 10 7.93 18.5 18.37 18.5 10.22 0 18.15-8 18.15-18.5v-116.5c0-3 2.5-5.5 5.22-5.5 2.93 0 5.43 2.5 5.43 5.5v315c0 15.5 11.48 28.5 25.9 28.5 14.4 0 26.08-13 26.08-28.5v-179.5c0-3 2.3-5.5 5.22-5.5 2.93 0 5.22 2.5 5.22 5.5v179.5c0 15.5 11.7 28.5 26.1 28.5 14.4 0 25.9-13 25.9-28.5v-315c0-3 2.5-5.5 5.42-5.5 2.7 0 5.22 2.5 5.22 5.5v117c0 10 7.93 18 18.16 18 10.44 0 18.37-8 18.37-18v-127.5c-.84-29-24.64-52-52.83-52zM-64896.45-47460c22.97 0 41.76 18.5 41.76 41.5s-18.78 42-41.75 42c-22.96 0-41.54-19-41.54-42s18.6-41.5 41.55-41.5zm52.4 94H-64948c-28.83 0-52 23-52 52v127c0 10 7.93 18.5 18.37 18.5 10.23 0 18.17-8 18.17-18.5v-116.5c0-3 2.5-5.5 5.2-5.5 2.94 0 5.44 2.5 5.44 5.5v315c0 15.5 11.5 28.5 25.9 28.5 14.4 0 26.1-13 26.1-28.5v-179.5c0-3 2.28-5.5 5.2-5.5 2.93 0 5.23 2.5 5.23 5.5v179.5c0 15.5 11.7 28.5 26.1 28.5 14.4 0 25.9-13 25.9-28.5v-315c0-3 2.5-5.5 5.42-5.5 2.7 0 5.22 2.5 5.22 5.5v117c0 10 7.93 18 18.16 18 10.44 0 18.37-8 18.37-18v-127.5c-.83-29-24.63-52-52.82-52zM-64383.03-46840c22.96 0 41.75 18.5 41.75 41.5s-18.8 42-41.75 42c-22.97 0-41.55-19-41.55-42s18.58-41.5 41.55-41.5zm52.4 94h-103.97c-28.8 0-51.98 23-51.98 52v127c0 10 7.93 18.5 18.37 18.5 10.22 0 18.15-8 18.15-18.5v-116.5c0-3 2.5-5.5 5.22-5.5 2.93 0 5.43 2.5 5.43 5.5v315c0 15.5 11.48 28.5 25.9 28.5 14.4 0 26.08-13 26.08-28.5v-179.5c0-3 2.3-5.5 5.22-5.5 2.93 0 5.22 2.5 5.22 5.5v179.5c0 15.5 11.7 28.5 26.1 28.5 14.4 0 25.9-13 25.9-28.5v-315c0-3 2.5-5.5 5.42-5.5 2.7 0 5.22 2.5 5.22 5.5v117c0 10 7.93 18 18.16 18 10.44 0 18.37-8 18.37-18v-127.5c-.84-29-24.64-52-52.83-52z" stroke="#000" stroke-opacity="0" stroke-width="2.03"/><path d="M-62804.66-46640h1574.56" stroke="#3a414a" stroke-width="10" fill="none"/><path d="M-62804.53-46635h-5.23l.1-4.97-.05-5.03h5.17z" stroke="#3a414a" stroke-width=".05" fill="#3a414a"/><path d="M-61210.84-46640l-14.26 4.64v-9.28z" stroke="#3a414a" stroke-width="10" fill="#3a414a"/><path d="M-65503.75-46640h-1587.16" stroke="#3a414a" stroke-width="10" fill="none"/><path d="M-65498.76-46640.03l.06 5.03h-5.18v-10h5.23z" stroke="#3a414a" stroke-width=".05" fill="#3a414a"/><path d="M-67072.96-46650.18l-17.22 10.18 17.22 10.18" stroke="#3a414a" stroke-width="10" fill="none"/><path d="M-64923.03-46280c22.96 0 41.75 18.5 41.75 41.5s-18.8 42-41.75 42c-22.97 0-41.55-19-41.55-42s18.58-41.5 41.55-41.5zm52.4 94h-103.97c-28.8 0-51.98 23-51.98 52v127c0 10 7.93 18.5 18.37 18.5 10.22 0 18.15-8 18.15-18.5v-116.5c0-3 2.5-5.5 5.22-5.5 2.93 0 5.43 2.5 5.43 5.5v315c0 15.5 11.48 28.5 25.9 28.5 14.4 0 26.08-13 26.08-28.5v-179.5c0-3 2.3-5.5 5.22-5.5 2.93 0 5.22 2.5 5.22 5.5v179.5c0 15.5 11.7 28.5 26.1 28.5 14.4 0 25.9-13 25.9-28.5v-315c0-3 2.5-5.5 5.42-5.5 2.7 0 5.22 2.5 5.22 5.5v117c0 10 7.93 18 18.16 18 10.44 0 18.37-8 18.37-18v-127.5c-.84-29-24.64-52-52.83-52z" stroke="#000" stroke-opacity="0" stroke-width="2.03"/><path d="M-64220-47434a6 6 0 0 1 6-6h1268a6 6 0 0 1 6 6v1608a6 6 0 0 1-6 6h-1268a6 6 0 0 1-6-6z" fill="none"/><path d="M-64220-45820c58.7 0 106.3-47.6 106.3-106.3v-597.4c0-58.7 47.6-106.3 106.3-106.3-58.7 0-106.3-47.6-106.3-106.3v-597.4c0-58.7-47.6-106.3-106.3-106.3" stroke="#3a414a" stroke-width="10" fill="none"/><use xlink:href="#a" transform="matrix(1,0,0,1,-63992.3917241061,-47435) translate(0 844.9999999999999)"/><use xlink:href="#b" transform="matrix(1,0,0,1,-63992.3917241061,-47435) translate(159.44444444444383 844.9999999999999)"/><path d="M-66874.66-46701a6 6 0 0 1 6-6h1168a6 6 0 0 1 6 6v455a6 6 0 0 1-6 6h-1168a6 6 0 0 1-6-6z" stroke="#000" stroke-opacity="0" stroke-width="10" fill="#fff" fill-opacity="0"/><use xlink:href="#c" transform="matrix(1,0,0,1,-66869.65744097176,-46702) translate(87.8888888888888 263.671875)"/><use xlink:href="#d" transform="matrix(1,0,0,1,-66869.65744097176,-46702) translate(212.33333333333326 263.671875)"/><path d="M-62534.66-46634a6 6 0 0 1 6-6h1168a6 6 0 0 1 6 6v455a6 6 0 0 1-6 6h-1168a6 6 0 0 1-6-6z" stroke="#000" stroke-opacity="0" stroke-width="10" fill="#fff" fill-opacity="0"/><use xlink:href="#c" transform="matrix(1,0,0,1,-62529.657440971765,-46635) translate(87.8888888888888 263.671875)"/><use xlink:href="#d" transform="matrix(1,0,0,1,-62529.657440971765,-46635) translate(212.33333333333326 263.671875)"/><path d="M-66258.9-47157c22.37 2 42.68-14.5 44.74-38 1.47-22.5-15-43-38.56-45-22.37-1.5-42.68 15-44.74 38.5-1.18 23 16.2 43 38.56 44.5m-35.32 17c7.95-5.5 17.95-9 29.14-8.5 13.54 1 25.9 10 32.67 20l41.5 82.5 56.2 39.5c4.72 4 7.96 10 7.67 16.5-.3 10-10 17.5-20.3 16.5-2.66 0-5.9-1.5-8.55-3l-60.93-41.5c-1.77-1.5-3.83-3.5-4.72-5.5l-15.9-31-18.54 82 73.6 87c1.46 3 2.64 6 3.52 9l19.72 104.5v6c-1.17 15.5-14.42 26.5-30.02 26-12.66-1-22.08-10.5-25.3-22l-18.56-97.5-59.75-66.5-13.54 63.5c-.58 3-4.7 9-5.88 11.5l-56.8 97c-5.9 8.5-15.02 14.5-26.2 13.5-15.9-1.5-27.38-14.5-26.2-30 .6-5 2.65-9 4.12-12.5l53.28-89 44.44-196.5-28.84 23.5-15.9 70c-1.47 8.5-10.3 16-19.72 15.5-10.3-.5-17.95-10-17.36-20 0-.5 0-2 .3-2.5l17.65-81.5c1.46-3.5 2.93-6.5 5.88-9l83.3-67.5zM-62492.18-47124c22.37 2 42.68-14.5 44.74-38 1.48-22.5-15-43-38.56-45-22.37-1.5-42.68 15-44.74 38.5-1.18 23 16.2 43 38.56 44.5m-35.32 17c7.95-5.5 17.96-9 29.14-8.5 13.54 1 25.9 10 32.67 20l41.52 82.5 56.22 39.5c4.7 4 7.94 10 7.65 16.5-.3 10-10.02 17.5-20.32 16.5-2.65 0-5.9-1.5-8.54-3l-60.93-41.5c-1.75-1.5-3.8-3.5-4.7-5.5l-15.9-31-18.53 82 73.58 87c1.47 3 2.65 6 3.54 9l19.7 104.5v6c-1.17 15.5-14.42 26.5-30.02 26-12.65-1-22.07-10.5-25.3-22l-18.56-97.5-59.75-66.5-13.54 63.5c-.6 3-4.7 9-5.9 11.5l-56.8 97c-5.88 8.5-15 14.5-26.2 13.5-15.9-1.5-27.36-14.5-26.2-30 .6-5 2.66-9 4.13-12.5l53.28-89 44.45-196.5-28.86 23.5-15.9 70c-1.47 8.5-10.3 16-19.72 15.5-10.3-.5-17.95-10-17.36-20 0-.5 0-2 .3-2.5l17.65-81.5c1.5-3.5 2.96-6.5 5.9-9l83.3-67.5zM-61674.72-47137c22.37 2 42.68-14.5 44.74-38 1.47-22.5-15-43-38.56-45-22.37-1.5-42.68 15-44.74 38.5-1.18 23 16.2 43 38.56 44.5m-35.32 17c7.94-5.5 17.95-9 29.14-8.5 13.54 1 25.9 10 32.67 20l41.5 82.5 56.22 39.5c4.7 4 7.94 10 7.64 16.5-.3 10-10 17.5-20.3 16.5-2.65 0-5.9-1.5-8.54-3l-60.93-41.5c-1.77-1.5-3.83-3.5-4.7-5.5l-15.9-31-18.55 82 73.6 87c1.46 3 2.64 6 3.52 9l19.72 104.5v6c-1.18 15.5-14.42 26.5-30.02 26-12.66-1-22.08-10.5-25.32-22l-18.54-97.5-59.75-66.5-13.54 63.5c-.6 3-4.72 9-5.9 11.5l-56.8 97c-5.9 8.5-15.02 14.5-26.2 13.5-15.9-1.5-27.38-14.5-26.2-30 .6-5 2.65-9 4.12-12.5l53.28-89 44.44-196.5-28.85 23.5-15.9 70c-1.47 8.5-10.3 16-19.72 15.5-10.3-.5-17.96-10-17.37-20 0-.5 0-2 .3-2.5l17.67-81.5c1.47-3.5 2.94-6.5 5.9-9l83.3-67.5z" stroke="#000" stroke-opacity="0" stroke-width="2.02"/><path d="M-66725.43-47145.5c7.76-5.5 17.9-9 28.95-8.5 14.33 1 26.57 10 33.43 20.5l42.08 83.5 57.3 40c4.78 4 7.76 10 7.47 16.5-.3 10.5-9.85 18.5-20.6 17-2.68 0-5.97-1-8.65-2.5l-61.48-42.5c-1.8-1.5-3.6-3.5-4.78-6l-16.13-31-19.1 83.5 74.62 88c1.48 2.5 2.67 5.5 3.57 8.5l20 106v6c-1.2 16-14.93 27-30.15 26.5-12.83-1-22.68-10.5-25.67-22.5l-19.1-99-60.3-67-14.3 64c-.3 3-4.8 9.5-5.68 11.5l-57.9 98.5c-5.67 8.5-15.22 15-26.26 13.5-16.1-1.5-27.75-15-26.56-30.5.6-5 2.4-9 4.18-12.5l54.02-90 44.77-198.5-28.94 23.5-16.42 71c-1.5 8.5-10.14 16.5-20 16-10.14 0-18.2-9.5-17.9-20.5 0 0 0-1.5.6-2l18.2-82.5c1.2-3.5 2.7-6.5 5.67-9l85.07-69.5zM-66760.94-47220c5.07 34 34.32 60.5 70.13 60.5 22.38 0 40.3-18 40.3-40 0-22.5-18.22-40.5-40.3-40.5-15.53 0-28.36 8-35.22 20.5-.6 1.5-1.8 3-3 4-8.05 8-20.88 8-28.94 0-1.5-1.5-2.4-3-2.98-4.5zM-62118.75-47112.5c7.76-5.5 17.9-9 28.95-8.5 14.32 1 26.56 10 33.42 20.5l42.1 83.5 57.3 40c4.76 4 7.75 10 7.45 16.5-.3 10.5-9.85 18.5-20.6 17-2.68 0-5.96-1-8.65-2.5l-61.48-42.5c-1.8-1.5-3.58-3.5-4.78-6l-16.1-31-19.1 83.5 74.6 88c1.5 2.5 2.7 5.5 3.58 8.5l20 106v6c-1.2 16-14.92 27-30.15 26.5-12.84-1-22.7-10.5-25.67-22.5l-19.1-99-60.3-67-14.32 64c-.3 3-4.76 9.5-5.66 11.5l-57.9 98.5c-5.67 8.5-15.22 15-26.26 13.5-16.12-1.5-27.76-15-26.56-30.5.6-5 2.38-9 4.18-12.5l54-90 44.78-198.5-28.95 23.5-16.4 71c-1.5 8.5-10.16 16.5-20 16-10.16 0-18.2-9.5-17.92-20.5 0 0 0-1.5.6-2l18.22-82.5c1.2-3.5 2.68-6.5 5.67-9l85.05-69.5zM-62154.27-47187c5.07 34 34.32 60.5 70.14 60.5 22.38 0 40.3-18 40.3-40 0-22.5-18.22-40.5-40.3-40.5-15.52 0-28.36 8-35.22 20.5-.6 1.5-1.8 3-2.98 4-8.06 8-20.9 8-28.95 0-1.5-1.5-2.4-3-3-4.5z" stroke="#000" stroke-opacity="0" stroke-width="3.95"/><path d="M-64471.1-47434.5c-8.12 8-21.37 8-29.28 0-1.28-1.5-2.35-3-3.2-4-7.27-12.5-20.95-21.5-36.13-21.5-22.88 0-41.9 18.5-41.9 42 0 23 18.38 41.5 41.9 41.5 36.54 0 66.47-27 71.8-62-.85 1.5-2.13 2.5-3.2 4zm38.05 246l-15.6-132.5c-3.64-25.5-25.44-45-51.3-45h-79.52c-25.86 0-48.1 19.5-51.3 45l-15.6 132.5c-1.28 10 6 19 15.82 20 10.05 1 18.8-6 20.1-16l14.74-123c.42-2.5 2.55-4.5 5.33-4.5 2.78 0 5.13 2.5 5.13 5v1s-10.9 87-10.9 89c-.2 2.5-.2 4.5-.2 6.5v221.5c0 16 11.53 28 25.85 28 14.55 0 26.1-12 26.1-28v-179.5c0-2.5 2.34-5 5.12-5 2.78 0 5.34 2.5 5.34 5v180.5c0 15.5 11.55 28 25.87 28 14.53 0 26.07-12.5 26.07-28v-222c0-2 0-4.5-.42-6.5-.43-2-10.7-89-10.7-89v-1c0-3 2.36-5 5.14-5 2.35 0 4.5 2 5.13 4l14.96 123.5c1.08 10 10.27 17 19.9 16 8.97-1.5 16.23-10.5 14.95-20.5zM-64471.1-46254.5c-8.12 8-21.37 8-29.28 0-1.28-1.5-2.35-3-3.2-4-7.27-12.5-20.95-21.5-36.13-21.5-22.88 0-41.9 18.5-41.9 42 0 23 18.38 41.5 41.9 41.5 36.54 0 66.47-27 71.8-62-.85 1.5-2.13 2.5-3.2 4zm38.05 246l-15.6-132.5c-3.64-25.5-25.44-45-51.3-45h-79.52c-25.86 0-48.1 19.5-51.3 45l-15.6 132.5c-1.28 10 6 19 15.82 20 10.05 1 18.8-6 20.1-16l14.74-123c.42-2.5 2.55-4.5 5.33-4.5 2.78 0 5.13 2.5 5.13 5v1s-10.9 87-10.9 89c-.2 2.5-.2 4.5-.2 6.5v221.5c0 16 11.53 28 25.85 28 14.55 0 26.1-12 26.1-28v-179.5c0-2.5 2.34-5 5.12-5 2.78 0 5.34 2.5 5.34 5v180.5c0 15.5 11.55 28 25.87 28 14.53 0 26.07-12.5 26.07-28v-222c0-2 0-4.5-.42-6.5-.43-2-10.7-89-10.7-89v-1c0-3 2.36-5 5.14-5 2.35 0 4.5 2 5.13 4l14.96 123.5c1.08 10 10.27 17 19.9 16 8.97-1.5 16.23-10.5 14.95-20.5zM-65076.07-46814.5c-8.12 8-21.37 8-29.28 0-1.3-1.5-2.35-3-3.2-4-7.28-12.5-20.96-21.5-36.13-21.5-22.87 0-41.9 18.5-41.9 42 0 23 18.4 41.5 41.9 41.5 36.55 0 66.47-27 71.82-62-.86 1.5-2.14 2.5-3.2 4zm38.05 246l-15.6-132.5c-3.64-25.5-25.44-45-51.3-45h-79.52c-25.86 0-48.1 19.5-51.3 45l-15.6 132.5c-1.3 10 5.98 19 15.8 20 10.06 1 18.83-6 20.1-16l14.76-123c.42-2.5 2.56-4.5 5.34-4.5s5.13 2.5 5.13 5v1s-10.9 87-10.9 89c-.23 2.5-.23 4.5-.23 6.5v221.5c0 16 11.55 28 25.87 28 14.53 0 26.07-12 26.07-28v-179.5c0-2.5 2.37-5 5.15-5 2.77 0 5.34 2.5 5.34 5v180.5c0 15.5 11.53 28 25.85 28 14.54 0 26.08-12.5 26.08-28v-222c0-2 0-4.5-.43-6.5s-10.7-89-10.7-89v-1c0-3 2.36-5 5.14-5 2.35 0 4.5 2 5.13 4l14.97 123.5c1.07 10 10.26 17 19.88 16 8.97-1.5 16.24-10.5 14.96-20.5z" stroke="#000" stroke-opacity="0" stroke-width="2"/><path d="M-65862.98-47145.5c7.76-5.5 17.9-9 28.95-8.5 14.33 1 26.56 10 33.43 20.5l42.08 83.5 57.3 40c4.78 4 7.76 10 7.46 16.5-.3 10.5-9.84 18.5-20.6 17-2.68 0-5.96-1-8.64-2.5l-61.5-42.5c-1.78-1.5-3.57-3.5-4.76-6l-16.12-31-19.1 83.5 74.62 88c1.5 2.5 2.68 5.5 3.58 8.5l20 106v6c-1.2 16-14.93 27-30.15 26.5-12.83-1-22.68-10.5-25.67-22.5l-19.1-99-60.3-67-14.3 64c-.3 3-4.8 9.5-5.68 11.5l-57.9 98.5c-5.67 8.5-15.22 15-26.27 13.5-16.1-1.5-27.75-15-26.56-30.5.6-5 2.38-9 4.17-12.5l54.02-90 44.76-198.5-28.95 23.5-16.4 71c-1.5 8.5-10.15 16.5-20 16-10.15 0-18.2-9.5-17.9-20.5 0 0 0-1.5.6-2l18.2-82.5c1.2-3.5 2.68-6.5 5.66-9l85.06-69.5zM-65898.5-47220c5.08 34 34.33 60.5 70.14 60.5 22.4 0 40.3-18 40.3-40 0-22.5-18.2-40.5-40.3-40.5-15.52 0-28.35 8-35.2 20.5-.6 1.5-1.8 3-3 4-8.06 8-20.9 8-28.95 0-1.5-1.5-2.4-3-3-4.5z" stroke="#000" stroke-opacity="0" stroke-width="3.95"/><path d="M-64357.5-44964l-65.5.5c-6-13-20.5-20-34.5-16-3.5 1-6.5 3-9.5 5l-103.5-90.5c-2.5-2.5-6-2-8.5.5-2 2.5-2 6 .5 8.5l103.5 90.5c-3.5 6.5-4.5 14.5-2.5 22 1 3 2 5 3.5 7.5l-72 79c-3 3.5-3 8.5.5 11.5 1.5 1.5 3.5 2 5.5 2s4.5-1 6-2.5l72-79.5c6 3.5 13.5 4.5 20.5 2 8.5-2 15-8.5 18.5-16h65.5c7-.5 12.5-5.5 12.5-12.5-.5-6.5-5.5-12-12.5-12z" stroke="#000" stroke-opacity="0" stroke-width=".98"/><path d="M-64450-45200c-138 0-250 112-250 250s112 250 250 250 250-112 250-250-112-250-250-250zm152 335c-1.5 2-2.5 4-4 6.5l26 16c-17 28-41 51.5-69 68l-15.5-26c-2.5 1-4.5 2.5-7 3.5l14.5 27c-28.5 16-62 24.5-97 24.5-36 0-70-9.5-99.5-26l14.5-26.5c-2-1.5-4-2.5-6-4l-16 26.5c-28-17.5-51.5-41-68.5-69.5l26-15.5c-1-2.5-2.5-4.5-3.5-6.5l-27 14.5c-15.5-29-24.5-62.5-24.5-97.5 0-36 9-69.5 25.5-99l8 4 18.5 11 1-1.5c1-2 2-3.5 3-5.5l-26-16c17.5-28 41-51.5 69.5-68.5l15.5 26c2-1 4.5-2.5 6.5-3.5l-14.5-27c29-15.5 62-24.5 97.5-24.5 36 0 70 9 99.5 25.5l-5 8.5-9.5 18.5c2 1 4 2.5 6 3.5l16-26c28 17.5 51.5 41 68.5 69l-26.5 16c1.5 2 3 4.5 4 6.5l27-14.5c15.5 29 24.5 62 24.5 97.5 0 36-9 70-25.5 99l-27-14z" stroke="#000" stroke-opacity="0" stroke-width=".98"/><path d="M-64481-45063h12.5v-69h-12.5l-14 12.5v13.5l14-12v55zM-64405-45074h-26.5l19-22.5c1.5-1.5 2.5-2.5 3.5-4 1-1 1.5-2.5 2-3.5 1-1 1.5-2.5 1.5-4 .5-1 .5-2.5.5-4.5 0-3-.5-5.5-1.5-8s-2.5-5-4.5-6.5c-1.5-1.5-4-3-6.5-4s-5.5-1.5-8.5-1.5-5.5.5-8 1.5-5 2-7 4c-1.5 1.5-3 4-4 6.5-1.5 2.5-2 5-2 8.5h13c0-2 0-3.5.5-4.5s1-2 2-2.5c.5-1 1.5-1.5 2.5-1.5 1-.5 2-.5 3-.5 3 0 5 1 6.5 2.5s2 3.5 2 6c0 1.5-.5 3-1 4.5-.5 1-1.5 2.5-2.5 4l-26 30v11h42v-11zM-64272-44945.5c-2-2.5-4-4.5-6.5-5.5 2.5-1.5 4-3 5.5-5.5 1.5-2 2.5-5 2.5-9 0-2.5-.5-5.5-1.5-8-1-2-2.5-4.5-4.5-6-2-2-4-3-6.5-4s-5.5-1.5-8.5-1.5-5.5.5-8 1.5c-3 .5-5 2-7 3.5-1.5 2-3 4-4.5 6.5-1 2.5-1.5 5-1.5 8h12.5c0-2.5 1-4.5 2.5-6s3.5-2 6-2c2 0 4 .5 6 2 1.5 1.5 2.5 3.5 2.5 6.5 0 2.5-1 4.5-2 6-1.5 2-3.5 2.5-7 2.5h-1.5v11h1.5c3.5 0 5.5 1 7.5 2.5 1.5 2 2.5 4 2.5 7s-1 5.5-3 7c-1.5 2-3.5 2.5-6.5 2.5-1 0-2.5 0-3.5-.5-1 0-2-.5-3-1.5-1-.5-1.5-1.5-2-3-.5-1-1-2-1-4h-12.5c0 4 1 7 2 9.5s3 4.5 5 6c2 2 4 3 7 4 2.5.5 5 1 8 1s6-.5 8.5-1c2.5-1 5-2.5 7-4 2-2 3.5-4 4.5-6.5 1.5-2.5 2-5.5 2-9 0-4-1-7.5-2.5-10zM-64434-44797c-2-2-3.5-3.5-6-4-2-1-4.5-1.5-6.5-1.5h-2.5c-1 0-2 .5-2.5.5l14-28h-13.5l-14.5 29.5c-1.5 3-3 6.5-4 9.5-1.5 2.5-2 6-2 9 0 3.5.5 6.5 1.5 9 1.5 2.5 3 5 4.5 6.5 2 2 4.5 3.5 7 4.5s5.5 1.5 8.5 1.5 6-.5 8.5-1.5 5-2.5 7-4.5c1.5-1.5 3-4 4.5-6.5 1-3 1.5-6 1.5-9 0-3.5-.5-6-1.5-9-1-2.5-2.5-4.5-4-6zm-9.5 22.5c-2 1.5-4 2.5-6.5 2.5s-4.5-1-6.5-2.5c-1.5-2-2.5-4.5-2.5-7.5 0-3.5 1-6 2.5-7.5 2-2 4-2.5 6.5-2.5s5 .5 6.5 2.5 2.5 4.5 2.5 7.5-1 5.5-2.5 7.5zM-64592-44979c-2-2-4-3.5-7-4.5-2.5-1-5-1-8-1-3.5 0-6 0-8.5 1-3 1-5 2.5-7 4.5s-3.5 4-4.5 6.5c-1 3-1.5 6-1.5 9 0 3.5.5 6.5 1.5 9s2 4.5 4 6c1.5 2 3.5 3.5 5.5 4.5 2.5.5 4.5 1 7 1h2.5c1 0 2-.5 2.5-.5l-14 28h13.5l14.5-29.5c1.5-3 3-6.5 4-9.5 1-2.5 1.5-6 1.5-9 0-3.5-.5-6.5-1.5-9s-2.5-5-4.5-6.5zm-9 23c-1.5 2-3.5 2.5-6 2.5-3 0-5-.5-6.5-2.5-2-2-2.5-4.5-2.5-7.5s.5-5.5 2.5-7.5c1.5-1.5 3.5-2.5 6.5-2.5 2.5 0 4.5 1 6 2.5 2 2 2.5 4.5 2.5 7.5 0 3.5-.5 6-2.5 7.5z" stroke="#000" stroke-opacity="0" stroke-width=".98"/><path d="M-64220-45114a6 6 0 0 1 6-6h1028a6 6 0 0 1 6 6v348a6 6 0 0 1-6 6h-1028a6 6 0 0 1-6-6z" stroke="#000" stroke-opacity="0" stroke-width="10" fill="#fff" fill-opacity="0"/><g><use xlink:href="#e" transform="matrix(1,0,0,1,-64215,-45115) translate(111.44444444444446 204.5625)"/><use xlink:href="#f" transform="matrix(1,0,0,1,-64215,-45115) translate(306.55555555555554 204.5625)"/></g><defs><path fill="#3a414a" d="M30 0v-248h33v221h125V0H30" id="g"/><use transform="matrix(0.5555555555555535,0,0,0.5555555555555535,0,0)" xlink:href="#g" id="a"/><path fill="#3a414a" d="M87 75C49 33 22-17 22-94c0-76 28-126 65-167h31c-38 41-64 92-64 168S80 34 118 75H87" id="h"/><path fill="#3a414a" d="M96-169c-40 0-48 33-48 73s9 75 48 75c24 0 41-14 43-38l32 2c-6 37-31 61-74 61-59 0-76-41-82-99-10-93 101-131 147-64 4 7 5 14 7 22l-32 3c-4-21-16-35-41-35" id="i"/><path fill="#3a414a" d="M141-36C126-15 110 5 73 4 37 3 15-17 15-53c-1-64 63-63 125-63 3-35-9-54-41-54-24 1-41 7-42 31l-33-3c5-37 33-52 76-52 45 0 72 20 72 64v82c-1 20 7 32 28 27v20c-31 9-61-2-59-35zM48-53c0 20 12 33 32 33 41-3 63-29 60-74-43 2-92-5-92 41" id="j"/><path fill="#3a414a" d="M115-194c55 1 70 41 70 98S169 2 115 4C84 4 66-9 55-30l1 105H24l-1-265h31l2 30c10-21 28-34 59-34zm-8 174c40 0 45-34 45-75s-6-73-45-74c-42 0-51 32-51 76 0 43 10 73 51 73" id="k"/><path fill="#3a414a" d="M24-231v-30h32v30H24zM24 0v-190h32V0H24" id="l"/><path fill="#3a414a" d="M59-47c-2 24 18 29 38 22v24C64 9 27 4 27-40v-127H5v-23h24l9-43h21v43h35v23H59v120" id="m"/><path fill="#3a414a" d="M179-190L93 31C79 59 56 82 12 73V49c39 6 53-20 64-50L1-190h34L92-34l54-156h33" id="n"/><path fill="#3a414a" d="M33-261c38 41 65 92 65 168S71 34 33 75H2C39 34 66-17 66-93S39-220 2-261h31" id="o"/><g id="b"><use transform="matrix(0.5555555555555535,0,0,0.5555555555555535,0,0)" xlink:href="#h"/><use transform="matrix(0.5555555555555535,0,0,0.5555555555555535,66.11111111111086,0)" xlink:href="#i"/><use transform="matrix(0.5555555555555535,0,0,0.5555555555555535,166.1111111111105,0)" xlink:href="#j"/><use transform="matrix(0.5555555555555535,0,0,0.5555555555555535,277.22222222222115,0)" xlink:href="#k"/><use transform="matrix(0.5555555555555535,0,0,0.5555555555555535,388.33333333333184,0)" xlink:href="#j"/><use transform="matrix(0.5555555555555535,0,0,0.5555555555555535,499.4444444444425,0)" xlink:href="#i"/><use transform="matrix(0.5555555555555535,0,0,0.5555555555555535,599.4444444444422,0)" xlink:href="#l"/><use transform="matrix(0.5555555555555535,0,0,0.5555555555555535,643.3333333333309,0)" xlink:href="#m"/><use transform="matrix(0.5555555555555535,0,0,0.5555555555555535,698.8888888888862,0)" xlink:href="#n"/><use transform="matrix(0.5555555555555535,0,0,0.5555555555555535,798.8888888888858,0)" xlink:href="#o"/></g><path fill="#20124d" d="M23-257c46-16 66 21 79 56L177 0h-34L96-139C78-91 56-46 35 0H2l79-170c-12-25-14-73-52-64" id="p"/><use transform="matrix(0.4444444444444444,0,0,0.4444444444444444,0,0)" xlink:href="#p" id="c"/><path fill="#20124d" d="M87 75C49 33 22-17 22-94c0-76 28-126 65-167h31c-38 41-64 92-64 168S80 34 118 75H87" id="q"/><path fill="#20124d" d="M59-47c-2 24 18 29 38 22v24C64 9 27 4 27-40v-127H5v-23h24l9-43h21v43h35v23H59v120" id="r"/><path fill="#20124d" d="M106-169C34-169 62-67 57 0H25v-261h32l-1 103c12-21 28-36 61-36 89 0 53 116 60 194h-32v-121c2-32-8-49-39-48" id="s"/><path fill="#20124d" d="M114-163C36-179 61-72 57 0H25l-1-190h30c1 12-1 29 2 39 6-27 23-49 58-41v29" id="t"/><path fill="#20124d" d="M100-194c62-1 85 37 85 99 1 63-27 99-86 99S16-35 15-95c0-66 28-99 85-99zM99-20c44 1 53-31 53-75 0-43-8-75-51-75s-53 32-53 75 10 74 51 75" id="u"/><path fill="#20124d" d="M84 4C-5 8 30-112 23-190h32v120c0 31 7 50 39 49 72-2 45-101 50-169h31l1 190h-30c-1-10 1-25-2-33-11 22-28 36-60 37" id="v"/><path fill="#20124d" d="M177-190C167-65 218 103 67 71c-23-6-38-20-44-43l32-5c15 47 100 32 89-28v-30C133-14 115 1 83 1 29 1 15-40 15-95c0-56 16-97 71-98 29-1 48 16 59 35 1-10 0-23 2-32h30zM94-22c36 0 50-32 50-73 0-42-14-75-50-75-39 0-46 34-46 75s6 73 46 73" id="w"/><path fill="#20124d" d="M115-194c55 1 70 41 70 98S169 2 115 4C84 4 66-9 55-30l1 105H24l-1-265h31l2 30c10-21 28-34 59-34zm-8 174c40 0 45-34 45-75s-6-73-45-74c-42 0-51 32-51 76 0 43 10 73 51 73" id="x"/><path fill="#20124d" d="M33-261c38 41 65 92 65 168S71 34 33 75H2C39 34 66-17 66-93S39-220 2-261h31" id="y"/><g id="d"><use transform="matrix(0.4444444444444444,0,0,0.4444444444444444,0,0)" xlink:href="#q"/><use transform="matrix(0.4444444444444444,0,0,0.4444444444444444,52.888888888888886,0)" xlink:href="#r"/><use transform="matrix(0.4444444444444444,0,0,0.4444444444444444,97.33333333333333,0)" xlink:href="#s"/><use transform="matrix(0.4444444444444444,0,0,0.4444444444444444,186.22222222222223,0)" xlink:href="#t"/><use transform="matrix(0.4444444444444444,0,0,0.4444444444444444,239.1111111111111,0)" xlink:href="#u"/><use transform="matrix(0.4444444444444444,0,0,0.4444444444444444,328,0)" xlink:href="#v"/><use transform="matrix(0.4444444444444444,0,0,0.4444444444444444,416.8888888888889,0)" xlink:href="#w"/><use transform="matrix(0.4444444444444444,0,0,0.4444444444444444,505.7777777777778,0)" xlink:href="#s"/><use transform="matrix(0.4444444444444444,0,0,0.4444444444444444,594.6666666666667,0)" xlink:href="#x"/><use transform="matrix(0.4444444444444444,0,0,0.4444444444444444,683.5555555555557,0)" xlink:href="#v"/><use transform="matrix(0.4444444444444444,0,0,0.4444444444444444,772.4444444444446,0)" xlink:href="#r"/><use transform="matrix(0.4444444444444444,0,0,0.4444444444444444,816.888888888889,0)" xlink:href="#y"/></g><path fill="#20124d" d="M266 0h-40l-56-210L115 0H75L2-248h35L96-30l15-64 43-154h32l59 218 59-218h35" id="z"/><use transform="matrix(0.4444444444444444,0,0,0.4444444444444444,0,0)" xlink:href="#z" id="e"/><path fill="#20124d" d="M24 0v-261h32V0H24" id="A"/><path fill="#20124d" d="M141-36C126-15 110 5 73 4 37 3 15-17 15-53c-1-64 63-63 125-63 3-35-9-54-41-54-24 1-41 7-42 31l-33-3c5-37 33-52 76-52 45 0 72 20 72 64v82c-1 20 7 32 28 27v20c-31 9-61-2-59-35zM48-53c0 20 12 33 32 33 41-3 63-29 60-74-43 2-92-5-92 41" id="B"/><path fill="#20124d" d="M100-194c63 0 86 42 84 106H49c0 40 14 67 53 68 26 1 43-12 49-29l28 8c-11 28-37 45-77 45C44 4 14-33 15-96c1-61 26-98 85-98zm52 81c6-60-76-77-97-28-3 7-6 17-6 28h103" id="C"/><path fill="#20124d" d="M117-194c89-4 53 116 60 194h-32v-121c0-31-8-49-39-48C34-167 62-67 57 0H25l-1-190h30c1 10-1 24 2 32 11-22 29-35 61-36" id="D"/><path fill="#20124d" d="M96-169c-40 0-48 33-48 73s9 75 48 75c24 0 41-14 43-38l32 2c-6 37-31 61-74 61-59 0-76-41-82-99-10-93 101-131 147-64 4 7 5 14 7 22l-32 3c-4-21-16-35-41-35" id="E"/><path fill="#20124d" d="M179-190L93 31C79 59 56 82 12 73V49c39 6 53-20 64-50L1-190h34L92-34l54-156h33" id="F"/><g id="f"><use transform="matrix(0.4444444444444444,0,0,0.4444444444444444,0,0)" xlink:href="#q"/><use transform="matrix(0.4444444444444444,0,0,0.4444444444444444,52.888888888888886,0)" xlink:href="#A"/><use transform="matrix(0.4444444444444444,0,0,0.4444444444444444,88,0)" xlink:href="#B"/><use transform="matrix(0.4444444444444444,0,0,0.4444444444444444,176.88888888888889,0)" xlink:href="#r"/><use transform="matrix(0.4444444444444444,0,0,0.4444444444444444,221.33333333333331,0)" xlink:href="#C"/><use transform="matrix(0.4444444444444444,0,0,0.4444444444444444,310.2222222222222,0)" xlink:href="#D"/><use transform="matrix(0.4444444444444444,0,0,0.4444444444444444,399.1111111111111,0)" xlink:href="#E"/><use transform="matrix(0.4444444444444444,0,0,0.4444444444444444,479.1111111111111,0)" xlink:href="#F"/><use transform="matrix(0.4444444444444444,0,0,0.4444444444444444,559.1111111111111,0)" xlink:href="#y"/></g></defs></g></svg>