<svg xmlns="http://www.w3.org/2000/svg" xmlns:xlink="http://www.w3.org/1999/xlink" xmlns:lucid="lucid" width="11685.25" height="2770"><g transform="translate(13172.627464669502 3005)" lucid:page-tab-id="0_0"><path d="M-2207.63-1580h681.87M-2207.6-1580h-.53" stroke="#3a414a" fill="none"/><path d="M-1511-1580l-14.26 4.63v-9.27z" stroke="#3a414a" fill="#3a414a"/><path d="M-3052.64-1406.93a6 6 0 0 1 6-6h112a6 6 0 0 0 6-6v-8a2.3 2.3 0 0 1 4.02-1.54l27.97 31.08a6.67 6.67 0 0 1 0 8.93l-27.97 31.08a2.3 2.3 0 0 1-4.02-1.53v-8a6 6 0 0 0-6-6h-112a6 6 0 0 1-6-6z" stroke="#3a414a" fill="#fff"/><path d="M-7220-1620c0 750.72-600.12 1360-1339.55 1360S-9899.1-869.28-9899.1-1620s600.12-1360 1339.55-1360S-7220-2370.72-7220-1620z" stroke="#3a414a" stroke-width="10" fill-opacity="0"/><path d="M-9076.45-1840c22.97 0 41.76 18.5 41.76 41.5s-18.78 42-41.75 42c-22.96 0-41.54-19-41.54-42s18.6-41.5 41.55-41.5zm52.4 94h-103.97c-28.8 0-51.98 23-51.98 52v127c0 10 7.93 18.5 18.37 18.5 10.23 0 18.16-8 18.16-18.5v-116.5c0-3 2.5-5.5 5.22-5.5 2.93 0 5.43 2.5 5.43 5.5v315c0 15.5 11.5 28.5 25.9 28.5 14.4 0 26.1-13 26.1-28.5V-1548c0-3 2.28-5.5 5.2-5.5 2.93 0 5.23 2.5 5.23 5.5v179.5c0 15.5 11.7 28.5 26.1 28.5 14.4 0 25.9-13 25.9-28.5v-315c0-3 2.5-5.5 5.42-5.5 2.7 0 5.22 2.5 5.22 5.5v117c0 10 7.93 18 18.16 18 10.44 0 18.37-8 18.37-18V-1694c-.83-29-24.63-52-52.82-52zM-9236.45-2460c22.97 0 41.76 18.5 41.76 41.5s-18.78 42-41.75 42c-22.96 0-41.54-19-41.54-42s18.6-41.5 41.55-41.5zm52.4 94h-103.97c-28.8 0-51.98 23-51.98 52v127c0 10 7.93 18.5 18.37 18.5 10.23 0 18.16-8 18.16-18.5v-116.5c0-3 2.5-5.5 5.22-5.5 2.93 0 5.43 2.5 5.43 5.5v315c0 15.5 11.5 28.5 25.9 28.5 14.4 0 26.1-13 26.1-28.5V-2168c0-3 2.28-5.5 5.2-5.5 2.93 0 5.23 2.5 5.23 5.5v179.5c0 15.5 11.7 28.5 26.1 28.5 14.4 0 25.9-13 25.9-28.5v-315c0-3 2.5-5.5 5.42-5.5 2.7 0 5.22 2.5 5.22 5.5v117c0 10 7.93 18 18.16 18 10.44 0 18.37-8 18.37-18V-2314c-.83-29-24.63-52-52.82-52zM-8696.45-1840c22.97 0 41.76 18.5 41.76 41.5s-18.78 42-41.75 42c-22.96 0-41.54-19-41.54-42s18.6-41.5 41.55-41.5zm52.4 94h-103.97c-28.8 0-51.98 23-51.98 52v127c0 10 7.93 18.5 18.37 18.5 10.23 0 18.16-8 18.16-18.5v-116.5c0-3 2.5-5.5 5.22-5.5 2.93 0 5.43 2.5 5.43 5.5v315c0 15.5 11.5 28.5 25.9 28.5 14.4 0 26.1-13 26.1-28.5V-1548c0-3 2.28-5.5 5.2-5.5 2.93 0 5.23 2.5 5.23 5.5v179.5c0 15.5 11.7 28.5 26.1 28.5 14.4 0 25.9-13 25.9-28.5v-315c0-3 2.5-5.5 5.42-5.5 2.7 0 5.22 2.5 5.22 5.5v117c0 10 7.93 18 18.16 18 10.44 0 18.37-8 18.37-18V-1694c-.83-29-24.63-52-52.82-52z" stroke="#000" stroke-opacity="0" stroke-width="2.03"/><path d="M-7210-1620h1968.3" stroke="#3a414a" stroke-width="10" fill="none"/><path d="M-7209.87-1615h-5.23l.1-4.97-.05-5.03h5.18z" stroke="#3a414a" stroke-width=".05" fill="#3a414a"/><path d="M-5222.43-1620l-14.27 4.63v-9.27z" stroke="#3a414a" stroke-width="10" fill="#3a414a"/><path d="M-9909.1-1620h-3223.44" stroke="#3a414a" stroke-width="10" fill="none"/><path d="M-9904.1-1620.03l.05 5.03h-5.18v-10h5.24z" stroke="#3a414a" stroke-width=".05" fill="#3a414a"/><path d="M-13114.6-1630.18l-17.2 10.18 17.2 10.18" stroke="#3a414a" stroke-width="10" fill="none"/><path d="M-9236.45-1280c22.97 0 41.76 18.5 41.76 41.5s-18.78 42-41.75 42c-22.96 0-41.54-19-41.54-42s18.6-41.5 41.55-41.5zm52.4 94h-103.97c-28.8 0-51.98 23-51.98 52v127c0 10 7.93 18.5 18.37 18.5 10.23 0 18.16-8 18.16-18.5v-116.5c0-3 2.5-5.5 5.22-5.5 2.93 0 5.43 2.5 5.43 5.5v315c0 15.5 11.5 28.5 25.9 28.5 14.4 0 26.1-13 26.1-28.5V-988c0-3 2.28-5.5 5.2-5.5 2.93 0 5.23 2.5 5.23 5.5v179.5c0 15.5 11.7 28.5 26.1 28.5 14.4 0 25.9-13 25.9-28.5v-315c0-3 2.5-5.5 5.42-5.5 2.7 0 5.22 2.5 5.22 5.5v117c0 10 7.93 18 18.16 18 10.44 0 18.37-8 18.37-18V-1134c-.83-29-24.63-52-52.82-52z" stroke="#000" stroke-opacity="0" stroke-width="2.03"/><path d="M-8540-2414a6 6 0 0 1 6-6h1188a6 6 0 0 1 6 6v1608a6 6 0 0 1-6 6h-1188a6 6 0 0 1-6-6z" fill="none"/><path d="M-8540-800c58.7 0 106.3-47.6 106.3-106.3v-597.4c0-58.7 47.6-106.3 106.3-106.3-58.7 0-106.3-47.6-106.3-106.3v-597.4c0-58.7-47.6-106.3-106.3-106.3" stroke="#3a414a" stroke-width="10" fill="none"/><use xlink:href="#a" transform="matrix(1,0,0,1,-8312.391724106095,-2415) translate(0 844.9999999999999)"/><path d="M-11280-1681a6 6 0 0 1 6-6h1168a6 6 0 0 1 6 6v455a6 6 0 0 1-6 6h-1168a6 6 0 0 1-6-6z" stroke="#000" stroke-opacity="0" stroke-width="10" fill="#fff" fill-opacity="0"/><use xlink:href="#b" transform="matrix(1,0,0,1,-11275,-1682) translate(87.8888888888888 263.671875)"/><use xlink:href="#c" transform="matrix(1,0,0,1,-11275,-1682) translate(212.33333333333326 263.671875)"/><path d="M-6940-1614a6 6 0 0 1 6-6h1168a6 6 0 0 1 6 6v455a6 6 0 0 1-6 6h-1168a6 6 0 0 1-6-6z" stroke="#000" stroke-opacity="0" stroke-width="10" fill="#fff" fill-opacity="0"/><use xlink:href="#b" transform="matrix(1,0,0,1,-6935,-1615) translate(87.8888888888888 263.671875)"/><use xlink:href="#c" transform="matrix(1,0,0,1,-6935,-1615) translate(212.33333333333326 263.671875)"/><path d="M-10664.24-2137c22.37 2 42.68-14.5 44.74-38 1.47-22.5-15-43-38.56-45-22.37-1.5-42.68 15-44.74 38.5-1.18 23 16.2 43 38.56 44.5m-35.32 17c7.94-5.5 17.95-9 29.14-8.5 13.54 1 25.9 10 32.67 20l41.5 82.5 56.22 39.5c4.7 4 7.95 10 7.66 16.5-.3 10-10 17.5-20.3 16.5-2.66 0-5.9-1.5-8.55-3l-60.93-41.5c-1.77-1.5-3.83-3.5-4.7-5.5l-15.9-31-18.55 82 73.6 87c1.46 3 2.64 6 3.52 9l19.72 104.5v6c-1.18 15.5-14.42 26.5-30.02 26-12.66-1-22.08-10.5-25.32-22l-18.54-97.5-59.75-66.5-13.53 63.5c-.6 3-4.7 9-5.9 11.5l-56.8 97c-5.9 8.5-15 14.5-26.2 13.5-15.9-1.5-27.37-14.5-26.2-30 .6-5 2.66-9 4.13-12.5l53.27-89 44.45-196.5-28.84 23.5-15.9 70c-1.47 8.5-10.3 16-19.72 15.5-10.3-.5-17.96-10-17.37-20 0-.5 0-2 .3-2.5l17.65-81.5c1.47-3.5 2.94-6.5 5.9-9l83.3-67.5zM-6897.52-2104c22.37 2 42.68-14.5 44.74-38 1.47-22.5-15-43-38.56-45-22.37-1.5-42.68 15-44.74 38.5-1.18 23 16.2 43 38.56 44.5m-35.32 17c7.94-5.5 17.95-9 29.14-8.5 13.54 1 25.9 10 32.67 20l41.5 82.5 56.22 39.5c4.7 4 7.94 10 7.65 16.5-.3 10-10 17.5-20.3 16.5-2.66 0-5.9-1.5-8.55-3l-60.93-41.5c-1.76-1.5-3.82-3.5-4.7-5.5l-15.9-31-18.55 82 73.6 87c1.46 3 2.64 6 3.52 9l19.72 104.5v6c-1.17 15.5-14.42 26.5-30.02 26-12.66-1-22.08-10.5-25.3-22l-18.56-97.5-59.75-66.5-13.54 63.5c-.6 3-4.72 9-5.9 11.5l-56.8 97c-5.9 8.5-15.02 14.5-26.2 13.5-15.9-1.5-27.38-14.5-26.2-30 .6-5 2.65-9 4.12-12.5l53.28-89 44.44-196.5-28.84 23.5-15.9 70c-1.47 8.5-10.3 16-19.72 15.5-10.3-.5-17.95-10-17.36-20 0-.5 0-2 .3-2.5l17.65-81.5c1.47-3.5 2.94-6.5 5.9-9l83.3-67.5zM-6080.07-2117c22.38 2 42.68-14.5 44.74-38 1.48-22.5-15-43-38.56-45-22.36-1.5-42.66 15-44.73 38.5-1.17 23 16.2 43 38.56 44.5m-35.32 17c7.96-5.5 17.97-9 29.15-8.5 13.54 1 25.9 10 32.68 20l41.5 82.5 56.22 39.5c4.7 4 7.95 10 7.65 16.5-.3 10-10 17.5-20.3 16.5-2.66 0-5.9-1.5-8.54-3l-60.93-41.5c-1.77-1.5-3.83-3.5-4.7-5.5l-15.9-31-18.55 82 73.58 87c1.48 3 2.65 6 3.54 9l19.72 104.5v6c-1.18 15.5-14.43 26.5-30.03 26-12.66-1-22.08-10.5-25.32-22l-18.54-97.5-59.76-66.5-13.54 63.5c-.58 3-4.7 9-5.88 11.5l-56.8 97c-5.9 8.5-15.02 14.5-26.2 13.5-15.9-1.5-27.38-14.5-26.2-30 .58-5 2.64-9 4.1-12.5l53.3-89 44.44-196.5-28.85 23.5-15.9 70c-1.46 8.5-10.3 16-19.7 15.5-10.32-.5-17.97-10-17.38-20 0-.5 0-2 .3-2.5l17.65-81.5c1.48-3.5 2.95-6.5 5.9-9l83.3-67.5z" stroke="#000" stroke-opacity="0" stroke-width="2.02"/><path d="M-11130.77-2125.5c7.76-5.5 17.9-9 28.95-8.5 14.33 1 26.56 10 33.43 20.5l42.1 83.5 57.3 40c4.77 4 7.75 10 7.45 16.5-.3 10.5-9.85 18.5-20.6 17-2.68 0-5.96-1-8.65-2.5l-61.48-42.5c-1.8-1.5-3.58-3.5-4.77-6l-16.12-31-19.1 83.5 74.6 88c1.5 2.5 2.7 5.5 3.6 8.5l20 106v6c-1.2 16-14.93 27-30.15 26.5-12.84-1-22.68-10.5-25.67-22.5l-19.1-99-60.28-67-14.32 64c-.3 3-4.78 9.5-5.67 11.5l-57.9 98.5c-5.67 8.5-15.23 15-26.27 13.5-16.1-1.5-27.75-15-26.56-30.5.6-5 2.4-9 4.18-12.5l54.02-90 44.77-198.5-28.95 23.5-16.42 71c-1.5 8.5-10.15 16.5-20 16-10.14 0-18.2-9.5-17.9-20.5 0 0 0-1.5.6-2l18.2-82.5c1.2-3.5 2.7-6.5 5.67-9l85.06-69.5zM-11166.3-2200c5.1 34 34.34 60.5 70.15 60.5 22.4 0 40.3-18 40.3-40 0-22.5-18.2-40.5-40.3-40.5-15.52 0-28.35 8-35.22 20.5-.6 1.5-1.8 3-2.98 4-8.06 8-20.9 8-28.95 0-1.5-1.5-2.4-3-3-4.5zM-6550.77-2092.5c7.76-5.5 17.9-9 28.95-8.5 14.33 1 26.56 10 33.43 20.5l42.1 83.5 57.3 40c4.77 4 7.75 10 7.45 16.5-.3 10.5-9.85 18.5-20.6 17-2.68 0-5.96-1-8.65-2.5l-61.48-42.5c-1.8-1.5-3.58-3.5-4.77-6l-16.12-31-19.1 83.5 74.6 88c1.5 2.5 2.7 5.5 3.6 8.5l20 106v6c-1.2 16-14.93 27-30.15 26.5-12.84-1-22.68-10.5-25.67-22.5l-19.1-99-60.28-67-14.32 64c-.3 3-4.78 9.5-5.67 11.5l-57.9 98.5c-5.67 8.5-15.23 15-26.27 13.5-16.1-1.5-27.75-15-26.56-30.5.6-5 2.4-9 4.18-12.5l54.02-90 44.77-198.5-28.95 23.5-16.42 71c-1.5 8.5-10.15 16.5-20 16-10.14 0-18.2-9.5-17.9-20.5 0 0 0-1.5.6-2l18.2-82.5c1.2-3.5 2.7-6.5 5.67-9l85.06-69.5zM-6586.3-2167c5.1 34 34.34 60.5 70.15 60.5 22.38 0 40.3-18 40.3-40 0-22.5-18.2-40.5-40.3-40.5-15.52 0-28.35 8-35.22 20.5-.6 1.5-1.8 3-2.98 4-8.06 8-20.9 8-28.95 0-1.5-1.5-2.4-3-3-4.5z" stroke="#000" stroke-opacity="0" stroke-width="3.95"/><path d="M-8784.5-2434.5c-8.14 8-21.4 8-29.3 0-1.28-1.5-2.35-3-3.2-4-7.27-12.5-20.95-21.5-36.13-21.5-22.87 0-41.9 18.5-41.9 42 0 23 18.4 41.5 41.9 41.5 36.55 0 66.48-27 71.82-62-.86 1.5-2.15 2.5-3.2 4zm38.03 246l-15.6-132.5c-3.63-25.5-25.44-45-51.3-45h-79.5c-25.88 0-48.1 19.5-51.3 45l-15.62 132.5c-1.27 10 6 19 15.83 20 10.05 1 18.8-6 20.1-16l14.74-123c.43-2.5 2.57-4.5 5.35-4.5 2.77 0 5.13 2.5 5.13 5v1s-10.9 87-10.9 89c-.22 2.5-.22 4.5-.22 6.5v221.5c0 16 11.54 28 25.86 28 14.53 0 26.07-12 26.07-28v-179.5c0-2.5 2.35-5 5.13-5s5.35 2.5 5.35 5v180.5c0 15.5 11.54 28 25.86 28 14.54 0 26.08-12.5 26.08-28v-222c0-2 0-4.5-.42-6.5-.43-2-10.7-89-10.7-89v-1c0-3 2.36-5 5.14-5 2.35 0 4.5 2 5.13 4l14.96 123.5c1.06 10 10.25 17 19.87 16 8.98-1.5 16.25-10.5 14.96-20.5zM-8784.5-1254.5c-8.14 8-21.4 8-29.3 0-1.28-1.5-2.35-3-3.2-4-7.27-12.5-20.95-21.5-36.13-21.5-22.87 0-41.9 18.5-41.9 42 0 23 18.4 41.5 41.9 41.5 36.55 0 66.48-27 71.82-62-.86 1.5-2.15 2.5-3.2 4zm38.03 246l-15.6-132.5c-3.63-25.5-25.44-45-51.3-45h-79.5c-25.88 0-48.1 19.5-51.3 45l-15.62 132.5c-1.27 10 6 19 15.83 20 10.05 1 18.8-6 20.1-16l14.74-123c.43-2.5 2.57-4.5 5.35-4.5 2.77 0 5.13 2.5 5.13 5v1s-10.9 87-10.9 89c-.22 2.5-.22 4.5-.22 6.5V-809c0 16 11.54 28 25.86 28 14.53 0 26.07-12 26.07-28v-179.5c0-2.5 2.35-5 5.13-5s5.35 2.5 5.35 5V-808c0 15.5 11.54 28 25.86 28 14.54 0 26.08-12.5 26.08-28v-222c0-2 0-4.5-.42-6.5-.43-2-10.7-89-10.7-89v-1c0-3 2.36-5 5.14-5 2.35 0 4.5 2 5.13 4l14.96 123.5c1.06 10 10.25 17 19.87 16 8.98-1.5 16.25-10.5 14.96-20.5zM-9397.93-1857.23c-8.12 8-21.38 8-29.28 0-1.3-1.5-2.37-3-3.22-4-7.27-12.5-20.95-21.5-36.12-21.5-22.88 0-41.9 18.5-41.9 42 0 23 18.38 41.5 41.9 41.5 36.55 0 66.47-27 71.82-62-.86 1.5-2.14 2.5-3.2 4zm38.05 246l-15.6-132.5c-3.64-25.5-25.44-45-51.3-45h-79.52c-25.86 0-48.1 19.5-51.3 45l-15.6 132.5c-1.3 10 5.98 19 15.8 20 10.06 1 18.82-6 20.1-16l14.75-123c.43-2.5 2.57-4.5 5.35-4.5s5.13 2.5 5.13 5v1s-10.9 87-10.9 89c-.22 2.5-.22 4.5-.22 6.5v221.5c0 16 11.56 28 25.88 28 14.53 0 26.07-12 26.07-28v-179.5c0-2.5 2.35-5 5.13-5s5.35 2.5 5.35 5v180.5c0 15.5 11.54 28 25.86 28 14.52 0 26.07-12.5 26.07-28v-222c0-2 0-4.5-.43-6.5s-10.7-89-10.7-89v-1c0-3 2.36-5 5.14-5 2.35 0 4.5 2 5.13 4l14.98 123.5c1.06 10 10.25 17 19.87 16 8.98-1.5 16.25-10.5 14.97-20.5z" stroke="#000" stroke-opacity="0" stroke-width="2"/><path d="M-10268.32-2125.5c7.76-5.5 17.9-9 28.95-8.5 14.33 1 26.56 10 33.43 20.5l42.08 83.5 57.3 40c4.78 4 7.76 10 7.46 16.5-.3 10.5-9.85 18.5-20.6 17-2.68 0-5.96-1-8.65-2.5l-61.48-42.5c-1.8-1.5-3.58-3.5-4.77-6l-16.12-31-19.1 83.5 74.6 88c1.5 2.5 2.7 5.5 3.6 8.5l20 106v6c-1.2 16-14.93 27-30.15 26.5-12.84-1-22.68-10.5-25.67-22.5l-19.1-99-60.3-67-14.3 64c-.3 3-4.8 9.5-5.7 11.5l-57.9 98.5c-5.66 8.5-15.2 15-26.25 13.5-16.1-1.5-27.75-15-26.55-30.5.6-5 2.4-9 4.18-12.5l54.02-90 44.77-198.5-28.95 23.5-16.42 71c-1.5 8.5-10.15 16.5-20 16-10.14 0-18.2-9.5-17.9-20.5 0 0 0-1.5.6-2l18.2-82.5c1.2-3.5 2.68-6.5 5.67-9l85.06-69.5zM-10303.84-2200c5.08 34 34.33 60.5 70.14 60.5 22.38 0 40.3-18 40.3-40 0-22.5-18.22-40.5-40.3-40.5-15.52 0-28.35 8-35.22 20.5-.6 1.5-1.8 3-2.98 4-8.06 8-20.9 8-28.95 0-1.5-1.5-2.4-3-3-4.5z" stroke="#000" stroke-opacity="0" stroke-width="3.95"/><defs><path fill="#3a414a" d="M30 0v-248h33v221h125V0H30" id="d"/><path fill="#3a414a" d="M87 75C49 33 22-17 22-94c0-76 28-126 65-167h31c-38 41-64 92-64 168S80 34 118 75H87" id="e"/><path fill="#3a414a" d="M96-169c-40 0-48 33-48 73s9 75 48 75c24 0 41-14 43-38l32 2c-6 37-31 61-74 61-59 0-76-41-82-99-10-93 101-131 147-64 4 7 5 14 7 22l-32 3c-4-21-16-35-41-35" id="f"/><path fill="#3a414a" d="M141-36C126-15 110 5 73 4 37 3 15-17 15-53c-1-64 63-63 125-63 3-35-9-54-41-54-24 1-41 7-42 31l-33-3c5-37 33-52 76-52 45 0 72 20 72 64v82c-1 20 7 32 28 27v20c-31 9-61-2-59-35zM48-53c0 20 12 33 32 33 41-3 63-29 60-74-43 2-92-5-92 41" id="g"/><path fill="#3a414a" d="M115-194c55 1 70 41 70 98S169 2 115 4C84 4 66-9 55-30l1 105H24l-1-265h31l2 30c10-21 28-34 59-34zm-8 174c40 0 45-34 45-75s-6-73-45-74c-42 0-51 32-51 76 0 43 10 73 51 73" id="h"/><path fill="#3a414a" d="M24-231v-30h32v30H24zM24 0v-190h32V0H24" id="i"/><path fill="#3a414a" d="M59-47c-2 24 18 29 38 22v24C64 9 27 4 27-40v-127H5v-23h24l9-43h21v43h35v23H59v120" id="j"/><path fill="#3a414a" d="M179-190L93 31C79 59 56 82 12 73V49c39 6 53-20 64-50L1-190h34L92-34l54-156h33" id="k"/><path fill="#3a414a" d="M33-261c38 41 65 92 65 168S71 34 33 75H2C39 34 66-17 66-93S39-220 2-261h31" id="l"/><g id="a"><use transform="matrix(0.5555555555555535,0,0,0.5555555555555535,0,0)" xlink:href="#d"/><use transform="matrix(0.5555555555555535,0,0,0.5555555555555535,111.11111111111069,0)" xlink:href="#e"/><use transform="matrix(0.5555555555555535,0,0,0.5555555555555535,177.22222222222155,0)" xlink:href="#f"/><use transform="matrix(0.5555555555555535,0,0,0.5555555555555535,277.22222222222115,0)" xlink:href="#g"/><use transform="matrix(0.5555555555555535,0,0,0.5555555555555535,388.33333333333184,0)" xlink:href="#h"/><use transform="matrix(0.5555555555555535,0,0,0.5555555555555535,499.4444444444425,0)" xlink:href="#g"/><use transform="matrix(0.5555555555555535,0,0,0.5555555555555535,610.5555555555532,0)" xlink:href="#f"/><use transform="matrix(0.5555555555555535,0,0,0.5555555555555535,710.5555555555528,0)" xlink:href="#i"/><use transform="matrix(0.5555555555555535,0,0,0.5555555555555535,754.4444444444415,0)" xlink:href="#j"/><use transform="matrix(0.5555555555555535,0,0,0.5555555555555535,809.9999999999968,0)" xlink:href="#k"/><use transform="matrix(0.5555555555555535,0,0,0.5555555555555535,909.9999999999965,0)" xlink:href="#l"/></g><path fill="#20124d" d="M23-257c46-16 66 21 79 56L177 0h-34L96-139C78-91 56-46 35 0H2l79-170c-12-25-14-73-52-64" id="m"/><use transform="matrix(0.4444444444444444,0,0,0.4444444444444444,0,0)" xlink:href="#m" id="b"/><path fill="#20124d" d="M87 75C49 33 22-17 22-94c0-76 28-126 65-167h31c-38 41-64 92-64 168S80 34 118 75H87" id="n"/><path fill="#20124d" d="M59-47c-2 24 18 29 38 22v24C64 9 27 4 27-40v-127H5v-23h24l9-43h21v43h35v23H59v120" id="o"/><path fill="#20124d" d="M106-169C34-169 62-67 57 0H25v-261h32l-1 103c12-21 28-36 61-36 89 0 53 116 60 194h-32v-121c2-32-8-49-39-48" id="p"/><path fill="#20124d" d="M114-163C36-179 61-72 57 0H25l-1-190h30c1 12-1 29 2 39 6-27 23-49 58-41v29" id="q"/><path fill="#20124d" d="M100-194c62-1 85 37 85 99 1 63-27 99-86 99S16-35 15-95c0-66 28-99 85-99zM99-20c44 1 53-31 53-75 0-43-8-75-51-75s-53 32-53 75 10 74 51 75" id="r"/><path fill="#20124d" d="M84 4C-5 8 30-112 23-190h32v120c0 31 7 50 39 49 72-2 45-101 50-169h31l1 190h-30c-1-10 1-25-2-33-11 22-28 36-60 37" id="s"/><path fill="#20124d" d="M177-190C167-65 218 103 67 71c-23-6-38-20-44-43l32-5c15 47 100 32 89-28v-30C133-14 115 1 83 1 29 1 15-40 15-95c0-56 16-97 71-98 29-1 48 16 59 35 1-10 0-23 2-32h30zM94-22c36 0 50-32 50-73 0-42-14-75-50-75-39 0-46 34-46 75s6 73 46 73" id="t"/><path fill="#20124d" d="M115-194c55 1 70 41 70 98S169 2 115 4C84 4 66-9 55-30l1 105H24l-1-265h31l2 30c10-21 28-34 59-34zm-8 174c40 0 45-34 45-75s-6-73-45-74c-42 0-51 32-51 76 0 43 10 73 51 73" id="u"/><path fill="#20124d" d="M33-261c38 41 65 92 65 168S71 34 33 75H2C39 34 66-17 66-93S39-220 2-261h31" id="v"/><g id="c"><use transform="matrix(0.4444444444444444,0,0,0.4444444444444444,0,0)" xlink:href="#n"/><use transform="matrix(0.4444444444444444,0,0,0.4444444444444444,52.888888888888886,0)" xlink:href="#o"/><use transform="matrix(0.4444444444444444,0,0,0.4444444444444444,97.33333333333333,0)" xlink:href="#p"/><use transform="matrix(0.4444444444444444,0,0,0.4444444444444444,186.22222222222223,0)" xlink:href="#q"/><use transform="matrix(0.4444444444444444,0,0,0.4444444444444444,239.1111111111111,0)" xlink:href="#r"/><use transform="matrix(0.4444444444444444,0,0,0.4444444444444444,328,0)" xlink:href="#s"/><use transform="matrix(0.4444444444444444,0,0,0.4444444444444444,416.8888888888889,0)" xlink:href="#t"/><use transform="matrix(0.4444444444444444,0,0,0.4444444444444444,505.7777777777778,0)" xlink:href="#p"/><use transform="matrix(0.4444444444444444,0,0,0.4444444444444444,594.6666666666667,0)" xlink:href="#u"/><use transform="matrix(0.4444444444444444,0,0,0.4444444444444444,683.5555555555557,0)" xlink:href="#s"/><use transform="matrix(0.4444444444444444,0,0,0.4444444444444444,772.4444444444446,0)" xlink:href="#o"/><use transform="matrix(0.4444444444444444,0,0,0.4444444444444444,816.888888888889,0)" xlink:href="#v"/></g></defs></g></svg>