<?xml version="1.0" standalone="no"?>
<!DOCTYPE svg PUBLIC "-//W3C//DTD SVG 20010904//EN"
 "http://www.w3.org/TR/2001/REC-SVG-20010904/DTD/svg10.dtd">
<svg version="1.0" xmlns="http://www.w3.org/2000/svg"
 width="2048.000000pt" height="1152.000000pt" viewBox="0 0 2048.000000 1152.000000"
 preserveAspectRatio="xMidYMid meet">
<metadata>
Created by potrace 1.16, written by Peter Selinger 2001-2019
</metadata>
<g transform="translate(0.000000,1152.000000) scale(0.100000,-0.100000)"
fill="#000000" stroke="none">
<path d="M15010 10633 c-21 -8 -30 -24 -30 -55 0 -16 -4 -28 -8 -28 -12 0 -37
30 -46 53 -5 16 -13 18 -47 13 -23 -3 -48 -11 -55 -17 -7 -6 -21 -8 -31 -5
-13 4 -31 -5 -56 -29 -20 -19 -44 -35 -52 -35 -16 0 -31 -43 -20 -59 3 -6 -2
-11 -12 -11 -24 0 -65 -29 -43 -30 11 0 9 -5 -7 -19 -30 -25 -63 -86 -63 -116
0 -13 8 -28 17 -34 28 -15 10 -22 -26 -8 -20 7 -34 8 -39 2 -4 -6 -14 -10 -22
-10 -8 0 -14 -8 -13 -18 0 -10 -2 -16 -5 -13 -6 7 -62 -43 -62 -54 0 -4 14
-22 32 -40 31 -33 31 -34 10 -43 -27 -12 -52 6 -52 39 0 22 -4 24 -55 24 -43
0 -58 -4 -75 -22 -12 -13 -19 -31 -16 -40 3 -14 -2 -18 -19 -18 -13 0 -27 5
-30 10 -12 20 -45 10 -51 -15 -7 -28 -13 -30 -48 -14 -20 9 -29 9 -42 -2 -9
-7 -22 -14 -28 -15 -6 0 -16 -2 -22 -2 -7 -1 -14 -11 -17 -23 -7 -26 -31 -20
-35 9 -3 17 -10 22 -32 22 -16 0 -41 5 -55 10 -23 9 -26 8 -22 -4 10 -25 -13
-30 -34 -7 -12 12 -32 21 -49 21 -27 0 -30 -3 -30 -34 0 -37 -17 -57 -30 -35
-5 7 -6 17 -4 21 3 5 2 17 -1 28 -6 19 -14 20 -153 18 -106 -2 -147 -6 -147
-15 0 -23 -20 -31 -65 -23 l-45 7 39 2 c32 1 36 3 27 15 -9 11 -18 12 -44 2
-18 -6 -34 -13 -37 -16 -5 -5 -17 -7 -72 -12 -16 -1 -28 -6 -28 -10 0 -4 -7
-8 -15 -8 -8 0 -15 4 -15 10 0 5 -21 9 -47 9 -68 -1 -104 -9 -97 -21 4 -6 -17
-8 -57 -6 -55 3 -64 1 -61 -13 1 -9 -5 -22 -13 -29 -13 -11 -15 -9 -15 14 0
25 -2 26 -59 26 -33 0 -63 -5 -67 -11 -4 -7 -21 -9 -42 -5 -26 4 -41 1 -55
-11 -14 -14 -20 -15 -26 -4 -15 23 -121 -12 -121 -40 0 -14 -20 -11 -36 6 -15
14 -77 14 -174 -2 -29 -4 -32 -7 -15 -13 19 -7 19 -7 -2 -14 -13 -4 -23 -14
-23 -23 0 -11 -5 -13 -17 -7 -26 12 -188 5 -211 -10 -6 -4 -16 -5 -21 -2 -5 4
-21 2 -36 -4 -18 -7 -33 -7 -47 1 -18 10 -20 9 -15 -5 5 -11 1 -16 -13 -16
-10 0 -22 -5 -26 -11 -3 -6 -17 -8 -30 -5 -17 5 -24 2 -24 -9 0 -8 -4 -15 -9
-15 -5 0 -17 -7 -25 -16 -15 -14 -17 -14 -32 0 -17 18 -54 22 -54 6 0 -21 -2
-25 -17 -42 -9 -10 -12 -25 -8 -36 8 -27 -3 -32 -76 -33 -42 -1 -64 3 -70 12
-8 13 -10 12 -13 -10 0 -5 -4 -13 -8 -17 -5 -4 -8 -19 -8 -33 0 -15 -8 -31
-20 -39 -11 -7 -20 -21 -20 -32 0 -21 -27 -40 -47 -33 -20 7 -23 -13 -8 -63 7
-27 15 -62 17 -79 2 -24 9 -31 33 -36 28 -5 29 -6 8 -13 -28 -9 -30 -32 -3
-41 11 -3 20 -12 20 -19 0 -13 42 -26 83 -26 26 0 64 -42 72 -81 4 -16 12 -30
18 -31 58 -7 81 -9 145 -12 40 -2 75 -6 79 -10 3 -3 19 -6 34 -6 15 0 31 -5
34 -10 5 -8 11 -8 20 0 9 8 15 8 20 0 11 -18 32 -11 39 13 l7 22 9 -23 c8 -20
15 -23 39 -17 16 3 32 2 35 -3 8 -14 83 -14 140 1 39 9 50 9 54 -1 8 -26 34
-42 67 -42 42 0 65 9 65 25 0 7 7 16 15 19 20 7 137 -4 151 -15 6 -5 61 -6
122 -4 67 3 112 1 112 -4 0 -14 37 -23 60 -16 15 5 20 15 20 40 0 43 14 52 28
20 9 -19 19 -25 44 -25 18 0 39 -4 47 -9 7 -5 27 -5 42 -1 21 6 33 4 43 -6 23
-23 36 -16 36 19 0 32 1 33 35 29 23 -3 36 -10 41 -24 5 -18 12 -19 77 -14 40
3 113 7 162 10 81 4 177 16 260 32 27 5 31 2 42 -25 15 -40 38 -48 75 -27 37
22 54 16 61 -23 5 -22 12 -31 26 -31 15 0 21 9 26 40 7 43 29 54 40 21 13 -42
81 -37 71 5 -3 12 -2 26 4 29 5 3 10 14 10 24 0 10 7 24 15 31 18 15 107 19
101 5 -2 -5 -16 -9 -31 -8 -37 3 -55 -13 -55 -47 0 -32 21 -41 78 -34 29 3 32
2 12 -4 l-25 -8 25 -9 c13 -4 66 -8 118 -9 77 -1 96 -4 106 -18 17 -23 46 -23
46 -2 0 15 11 16 103 9 107 -7 120 -11 98 -25 -20 -12 -6 -40 20 -40 19 0 21
4 16 30 -6 27 -4 30 18 30 14 0 25 -5 25 -11 0 -5 5 -7 11 -4 15 10 69 -15 69
-31 0 -8 5 -14 10 -14 6 0 10 7 10 16 0 14 8 16 44 12 25 -3 49 -1 54 4 7 7
18 5 33 -6 13 -9 34 -16 46 -16 13 0 23 -4 23 -10 0 -5 19 -7 42 -5 31 3 45 0
55 -13 11 -15 14 -15 23 -2 5 8 10 28 10 44 0 23 3 27 18 21 9 -4 33 -9 53
-12 30 -4 40 -1 61 22 29 31 56 27 36 -5 -16 -25 4 -70 31 -70 14 0 19 -5 15
-15 -4 -8 1 -17 9 -21 8 -3 17 -18 21 -35 7 -34 41 -41 51 -9 9 30 33 24 55
-12 34 -58 33 -58 159 -58 143 0 277 -10 261 -20 -13 -8 -5 -50 9 -50 4 0 13
11 19 25 11 24 45 34 56 16 3 -5 18 -12 32 -15 20 -5 33 -1 49 14 l23 22 12
-22 c7 -13 17 -19 27 -16 8 3 24 -1 36 -9 12 -8 16 -15 9 -15 -17 0 -15 -37 3
-44 22 -8 38 1 58 32 16 25 16 26 17 5 0 -24 26 -43 60 -43 11 0 23 -7 26 -15
8 -20 21 -19 28 3 8 25 43 43 71 36 13 -3 24 -9 23 -13 -6 -45 22 -59 68 -32
33 20 64 19 64 -1 0 -7 20 -8 58 -3 59 8 93 12 137 14 18 1 29 9 35 27 12 31
34 21 27 -13 -3 -15 1 -27 12 -33 29 -15 156 -23 179 -11 14 7 23 8 27 1 8
-12 55 -13 74 -1 9 6 22 6 34 -1 16 -8 22 -7 30 7 8 14 11 15 18 4 11 -19 68
-25 186 -21 58 2 62 3 72 32 12 37 20 39 18 4 -2 -24 1 -26 48 -29 29 -2 53 1
57 8 4 6 27 10 52 8 39 -2 46 0 46 16 0 10 -13 27 -30 36 -16 10 -30 22 -30
27 0 12 30 2 52 -18 10 -8 33 -15 50 -14 25 1 39 -6 58 -28 24 -29 28 -30 120
-32 108 -2 136 4 143 32 4 15 14 20 36 20 19 0 34 6 37 15 7 17 35 20 50 5 21
-21 44 0 44 41 0 44 7 47 43 19 14 -11 35 -20 46 -20 12 0 21 -4 21 -9 0 -14
37 -23 59 -16 11 3 23 15 26 26 8 25 25 25 32 -1 12 -45 71 -36 95 14 20 41
70 57 134 43 58 -13 87 -4 105 34 22 50 43 58 74 29 22 -21 28 -22 35 -10 5 8
10 20 10 27 0 21 19 25 42 9 12 -9 28 -16 35 -16 20 0 43 30 43 56 0 22 4 24
44 24 46 0 76 18 76 46 0 8 12 19 27 25 22 8 30 7 39 -5 17 -24 39 -19 52 9
16 35 15 43 -8 50 -11 3 -20 15 -20 26 0 23 4 24 36 3 23 -16 26 -16 48 5 14
13 22 30 19 40 -4 15 0 18 21 14 14 -3 34 1 43 8 13 11 17 11 20 2 3 -7 11
-13 19 -13 11 0 13 9 8 40 -6 37 -5 40 18 40 13 0 28 -4 33 -9 15 -14 145 2
156 20 15 24 11 126 -7 143 -14 15 -13 19 15 53 31 38 39 62 21 64 -5 1 -14 2
-19 3 -20 2 -22 16 -7 38 9 12 16 36 16 53 0 35 15 55 42 55 20 0 33 38 24 74
-6 24 -25 34 -108 57 -53 15 -58 27 -28 67 12 16 18 35 15 45 -9 21 -45 33
-55 17 -6 -9 -9 -9 -15 0 -4 7 -18 9 -36 5 -17 -4 -29 -2 -29 3 0 11 -53 78
-102 130 -20 21 -38 32 -49 29 -10 -3 -30 5 -46 18 -14 13 -31 21 -36 18 -5
-3 -3 -9 4 -14 11 -7 10 -9 -3 -9 -9 0 -21 -8 -27 -17 -9 -17 -10 -17 -17 2
-11 29 -35 45 -64 44 -40 -2 -50 0 -50 11 0 18 -63 70 -85 70 -13 0 -28 -7
-36 -16 -7 -9 -21 -13 -35 -10 -12 3 -43 2 -70 -3 -44 -8 -49 -7 -67 15 -23
29 -59 31 -97 4 -24 -17 -29 -18 -34 -5 -7 18 -46 20 -70 2 -10 -7 -19 -25
-19 -40 -1 -15 -6 -27 -12 -28 -5 -1 -17 -2 -25 -3 -8 -2 -24 -3 -34 -4 -11
-1 -17 -5 -13 -8 5 -5 -55 -64 -66 -64 -2 0 -7 11 -9 25 -5 22 -2 25 22 25 36
0 57 26 62 75 3 37 0 41 -33 59 -40 22 -68 16 -76 -15 -5 -18 -11 -20 -42 -14
-39 7 -44 7 -81 1 -14 -2 -33 -5 -43 -5 -17 -1 -18 -7 -12 -52 5 -37 4 -50 -4
-45 -6 4 -11 13 -11 21 0 20 -40 45 -72 45 -22 0 -27 5 -30 28 -3 24 -7 27
-35 24 -24 -1 -33 2 -33 13 0 24 -28 17 -32 -7 -2 -14 -9 -22 -18 -20 -38 9
-78 10 -110 3 -28 -6 -35 -12 -33 -29 2 -16 -4 -25 -21 -32 -13 -5 -26 -15
-28 -22 -4 -11 -8 -10 -21 1 -10 7 -17 19 -17 26 0 8 -15 22 -32 33 -30 18
-40 19 -108 10 -41 -5 -102 -13 -136 -16 -34 -4 -69 -14 -79 -22 -22 -18 -18
-18 -38 -1 -23 19 -65 6 -79 -24 -8 -19 -15 -22 -28 -15 -13 7 -24 4 -39 -9
-17 -15 -29 -17 -57 -11 -27 6 -37 5 -41 -6 -9 -24 -25 -15 -23 14 4 49 1 53
-32 51 -18 -1 -48 1 -65 5 -20 5 -46 3 -66 -5 -29 -10 -38 -10 -58 4 -13 10
-39 17 -57 17 -18 0 -40 7 -48 15 -9 8 -25 15 -37 15 -13 0 -30 9 -40 20 -18
22 -47 27 -47 9 0 -8 -4 -8 -14 1 -8 6 -23 10 -34 8 -10 -2 -25 2 -33 9 -8 6
-36 18 -64 26 -47 13 -50 16 -47 45 4 35 -13 44 -88 47 -25 2 -55 6 -66 10
-15 4 -26 1 -35 -10 -33 -40 -63 -65 -78 -65 -13 1 -12 4 5 18 27 23 39 74 24
101 -13 25 -55 28 -64 5 -9 -24 -24 -8 -19 20 4 21 0 26 -21 32 -15 3 -47 1
-72 -5 -50 -13 -64 -9 -64 18 0 15 -8 18 -54 17 -29 0 -60 5 -67 11 -8 6 -35
14 -61 18 -43 6 -48 5 -48 -11 -1 -16 -5 -14 -24 10 -20 24 -29 28 -56 23 -34
-7 -74 8 -65 24 4 5 -1 9 -9 9 -24 0 -39 -35 -21 -50 12 -10 12 -16 4 -26 -9
-11 -17 -9 -43 11 -18 14 -43 25 -55 25 -18 0 -20 3 -12 18 16 30 -1 43 -55
41 -27 -1 -65 3 -84 9 -36 12 -141 12 -134 1 2 -4 -3 -12 -10 -18 -11 -9 -30
-9 -83 2 -37 8 -75 17 -83 20 -8 3 -22 3 -30 0z"/>
<path d="M2863 10200 c4 -17 0 -20 -31 -19 -28 0 -32 2 -18 8 12 5 15 10 9 14
-6 4 -16 0 -23 -8 -7 -8 -20 -15 -29 -15 -13 0 -17 -9 -18 -35 -1 -26 2 -33
10 -27 11 8 24 8 68 4 14 -2 16 -25 18 -168 1 -91 6 -177 12 -191 5 -13 9 -66
9 -118 0 -88 -1 -93 -20 -88 -18 5 -20 14 -20 94 0 69 -3 89 -14 89 -21 0 -26
-23 -26 -111 0 -64 4 -83 19 -98 18 -18 18 -18 -1 -30 -15 -9 -20 -8 -24 4 -5
11 -21 15 -60 15 -31 0 -54 4 -54 11 0 5 -6 7 -12 4 -7 -4 -5 0 4 8 11 9 14
17 8 23 -6 6 -11 70 -13 143 -3 149 -2 152 64 134 31 -8 41 -7 51 4 8 10 8 17
0 25 -7 7 -12 20 -12 30 0 15 -9 18 -61 18 l-62 0 5 68 c6 75 0 86 -52 97 -42
9 -50 -3 -50 -80 0 -39 -3 -55 -9 -46 -12 18 -41 7 -48 -18 -8 -31 -63 -36
-63 -6 0 14 -22 25 -51 25 -12 0 -19 -7 -19 -20 0 -13 -7 -20 -20 -20 -18 0
-20 7 -20 85 0 79 -1 85 -20 85 -12 0 -34 -7 -50 -15 -27 -14 -29 -14 -23 2 4
11 2 15 -3 10 -5 -5 -9 -19 -10 -30 0 -12 -1 -48 -2 -79 l-2 -58 -34 0 c-27 0
-35 -4 -38 -23 -6 -33 1 -47 23 -47 11 0 17 5 14 10 -3 6 5 10 19 10 l25 0 3
-174 c2 -112 -1 -174 -7 -173 -5 1 -11 -10 -13 -25 -3 -27 11 -38 23 -18 3 5
12 7 20 4 12 -5 12 -8 -1 -21 -12 -12 -12 -18 -2 -30 9 -12 24 -13 67 -7 31 4
75 8 98 8 24 1 43 5 42 9 0 4 10 16 22 26 20 16 20 18 4 34 -10 11 -32 17 -61
17 l-44 0 0 40 c0 36 -2 40 -25 40 l-25 0 1 138 c0 96 3 130 10 113 6 -15 14
-21 25 -17 9 3 27 6 41 6 23 0 24 2 12 17 -13 15 -11 16 19 10 18 -4 31 -3 28
1 -2 4 18 5 45 4 l49 -4 -2 -61 -1 -62 -7 55 c-5 44 -8 51 -15 35 -10 -22 -12
-244 -3 -287 8 -37 19 -53 27 -40 3 6 11 0 18 -14 8 -18 8 -22 0 -17 -18 11
-37 12 -37 2 0 -5 7 -9 15 -9 8 0 23 -9 33 -20 16 -18 23 -19 44 -9 21 9 30 8
51 -6 24 -16 46 -7 33 14 -3 5 3 11 14 14 11 3 18 1 14 -4 -3 -5 4 -9 15 -9
12 0 21 -7 21 -15 0 -8 9 -15 20 -15 11 0 20 5 20 11 0 6 6 9 14 6 8 -3 20 1
26 8 7 8 17 12 24 8 6 -4 34 -6 62 -5 36 3 54 -1 63 -12 27 -32 46 -19 41 28
-2 24 16 36 55 36 17 0 36 5 42 11 8 8 13 8 17 0 4 -6 2 -11 -3 -11 -6 0 -11
-13 -11 -30 0 -26 5 -30 41 -40 35 -10 47 -9 74 6 19 10 44 15 63 12 17 -2 29
-1 26 3 -2 4 5 7 16 6 11 -1 20 -4 20 -8 0 -3 17 -14 38 -23 36 -17 40 -16 75
0 59 28 63 89 6 101 -21 4 -27 9 -20 16 15 15 14 38 -3 51 -7 6 -16 30 -20 54
-5 33 -3 42 9 42 13 0 17 10 30 72 2 10 -1 21 -6 24 -17 10 -9 34 21 66 35 36
36 41 14 62 -29 29 -65 31 -85 5 l-17 -23 -40 43 -40 43 -71 -7 c-51 -5 -71
-11 -71 -21 0 -9 11 -14 28 -14 27 0 27 0 -8 -18 -19 -9 -36 -14 -38 -10 -2 5
-12 8 -23 8 -24 0 -37 -29 -18 -40 10 -7 7 -11 -12 -18 -26 -10 -58 -42 -42
-42 5 0 14 5 21 12 17 17 15 -4 -4 -30 -11 -16 -16 -48 -17 -115 0 -51 -6
-105 -11 -122 -14 -39 -47 -43 -81 -9 l-25 25 0 308 c0 235 -3 311 -12 318 -7
6 -30 11 -52 11 -33 1 -38 -1 -33 -18z m433 -335 c15 -24 47 -34 57 -17 2 4 3
2 1 -4 -1 -6 1 -15 5 -20 5 -5 11 -22 14 -39 l6 -30 -99 0 -98 0 2 25 c1 14
14 38 29 54 15 16 24 32 22 37 -5 6 10 14 37 18 4 0 15 -10 24 -24z"/>
<path d="M3568 10199 c-15 -16 -16 -19 -3 -19 14 0 13 -3 -2 -25 -10 -13 -26
-27 -35 -30 -37 -13 -35 -91 2 -123 23 -19 26 -38 8 -45 -10 -3 -9 -9 4 -22
24 -25 73 -23 96 3 12 13 22 18 28 12 5 -5 15 -6 22 -1 10 6 10 19 1 61 -6 29
-8 74 -5 100 5 38 3 52 -14 73 -12 14 -27 24 -34 21 -8 -3 -17 -1 -21 5 -9 16
-28 12 -47 -10z"/>
<path d="M2013 10190 c-5 -20 -11 -22 -54 -17 -52 6 -71 -10 -44 -37 8 -8 15
-25 15 -38 0 -37 14 -50 66 -59 42 -8 51 -7 68 11 12 11 15 20 8 20 -6 0 -12
5 -12 11 0 5 5 7 12 3 7 -4 8 -3 4 5 -4 6 -2 18 4 26 6 8 8 20 4 27 -4 7 -8
24 -8 38 -1 20 -7 26 -29 28 -22 3 -30 -1 -34 -18z"/>
<path d="M1575 10160 c-3 -5 -57 -11 -118 -12 l-112 -2 120 -6 120 -6 -106 -2
c-118 -2 -177 -16 -156 -36 6 -7 20 -15 30 -19 19 -7 22 -22 7 -32 -16 -10
-12 -24 15 -47 l25 -22 0 -207 c0 -144 3 -210 11 -215 8 -4 4 -13 -12 -25 -26
-20 -59 -25 -59 -9 0 6 -7 10 -15 10 -8 0 -15 -7 -15 -15 0 -8 5 -15 10 -15
15 0 12 -40 -2 -40 -7 0 -4 -6 6 -12 11 -6 34 -11 52 -10 18 1 36 -3 39 -8 8
-14 98 -13 112 1 8 8 13 8 17 0 10 -15 69 -14 84 1 9 9 15 9 24 0 17 -17 142
-15 176 2 35 17 134 32 112 16 -11 -8 -6 -9 23 -4 21 3 57 1 82 -6 43 -12 45
-11 69 16 15 17 23 35 19 44 -3 8 -5 65 -4 127 l3 111 -31 27 c-25 23 -31 37
-34 79 -2 38 -4 28 -7 -39 l-4 -90 -5 105 -6 105 -49 3 c-26 2 -68 -1 -92 -6
-32 -7 -44 -6 -44 2 0 6 -5 3 -11 -7 -11 -19 -3 -41 12 -32 5 4 9 1 9 -4 0 -6
7 -11 15 -11 18 0 35 -31 35 -64 0 -35 18 -42 23 -9 2 16 5 -40 6 -124 0 -83
-3 -154 -8 -157 -5 -4 -7 4 -4 16 l5 23 -21 -24 c-12 -13 -21 -20 -21 -16 0 4
-7 2 -15 -5 -8 -7 -16 -9 -16 -4 -1 5 -5 -4 -9 -21 -7 -29 -8 -28 -9 11 0 22
2 44 6 48 4 4 7 24 6 44 -2 32 -1 34 7 12 8 -25 8 -25 11 -2 6 53 5 82 -2 82
-5 0 -9 -4 -9 -9 0 -6 -12 -6 -30 -1 -30 9 -60 -7 -60 -31 0 -5 -6 -8 -12 -7
-17 4 -23 -43 -7 -53 21 -12 3 -22 -19 -10 -11 6 -22 7 -26 4 -11 -11 -7 -41
7 -47 6 -3 2 -3 -10 0 -14 3 -23 1 -23 -6 0 -7 -23 -10 -67 -8 -61 3 -68 5
-66 23 1 11 0 27 -4 35 -4 11 -8 8 -13 -10 -5 -14 -7 76 -7 200 l1 225 6 -190
6 -190 2 185 c1 108 -3 201 -9 224 -6 23 -7 42 -1 48 5 5 38 11 73 14 35 2 67
10 71 17 12 19 9 44 -8 61 -17 18 -89 22 -99 6z"/>
<path d="M4670 10160 c-8 -5 -76 -11 -150 -12 l-135 -2 125 -6 125 -6 -120 -3
c-66 -2 -128 -4 -137 -4 -10 0 -18 -2 -18 -4 0 -11 36 -39 64 -50 19 -7 24
-12 13 -12 -13 -1 -17 -7 -13 -18 2 -10 10 -44 16 -75 6 -32 16 -58 21 -58 5
0 9 -80 9 -191 0 -125 -3 -188 -10 -184 -6 3 -13 -1 -16 -9 -6 -17 -64 -23
-64 -7 0 5 -6 11 -14 14 -10 4 -14 -3 -14 -29 0 -19 4 -34 10 -34 5 0 18 -10
27 -21 14 -18 30 -23 82 -25 35 -2 78 2 96 8 25 9 35 9 48 -2 10 -8 19 -10 25
-4 6 6 38 6 85 0 57 -7 85 -6 117 4 l43 14 -40 7 -40 6 37 2 c21 0 43 -5 52
-14 25 -25 106 -17 106 10 0 8 8 11 20 8 11 -3 20 -9 20 -14 0 -5 10 -7 23 -4
12 3 35 -1 51 -9 29 -14 56 -12 56 5 0 5 -7 12 -16 16 -12 4 -13 8 -3 13 7 5
20 3 31 -3 14 -9 23 -9 38 0 12 8 21 9 25 3 3 -6 1 -10 -5 -10 -7 0 -10 -6 -7
-12 4 -14 30 -13 62 2 11 5 40 13 65 17 35 7 45 13 45 28 0 17 -7 20 -44 21
-50 2 -61 14 -61 67 0 35 1 37 16 23 8 -9 17 -16 19 -16 2 0 11 7 19 16 21 21
20 49 -2 71 -23 22 -39 65 -45 119 -5 43 -7 41 53 47 14 1 35 8 47 15 19 11
24 10 32 -7 22 -40 44 -118 46 -164 2 -33 8 -52 20 -61 11 -8 18 -26 18 -44 0
-17 4 -29 9 -26 4 3 8 -9 8 -25 0 -17 4 -31 8 -31 5 0 14 -11 20 -24 9 -20 8
-25 -6 -31 -16 -6 -16 -7 1 -17 24 -13 67 -2 67 18 0 8 -5 12 -10 9 -6 -4 -5
4 1 19 7 14 15 24 18 22 14 -9 43 24 38 44 -4 16 0 20 20 20 22 0 24 3 18 30
-6 27 -4 30 19 30 16 0 26 6 26 14 0 8 4 18 10 21 12 7 42 -64 35 -83 -3 -8 0
-21 6 -28 9 -11 8 -14 -1 -14 -7 0 -2 -10 12 -23 14 -13 27 -29 29 -36 3 -7
19 -13 37 -13 20 -1 32 -6 32 -15 0 -9 15 -13 49 -13 75 0 81 11 81 138 0 119
-6 152 -26 152 -17 0 -17 0 2 38 8 17 16 47 17 66 3 43 10 51 27 31 18 -22 50
-19 50 4 0 11 -4 23 -10 26 -17 10 -11 25 7 18 13 -5 15 -3 9 13 -5 10 -10 26
-13 35 -6 22 -119 25 -183 4 l-45 -14 110 -2 110 -3 -92 -3 c-91 -4 -93 -4
-93 -28 0 -14 6 -25 13 -25 6 0 19 -6 28 -13 15 -11 15 -17 -1 -67 -11 -32
-18 -46 -19 -32 -1 25 -13 29 -30 8 -14 -17 -51 -9 -51 11 0 7 -8 25 -17 40
-26 39 -24 50 8 63 16 7 29 16 29 20 0 17 -59 31 -104 25 -37 -6 -47 -12 -52
-31 -3 -13 -11 -22 -16 -21 -12 2 -15 -11 -27 -114 -1 -10 -54 -4 -76 8 -17
10 -18 15 -7 38 8 18 9 32 2 45 -5 10 -10 34 -10 52 0 56 -7 59 -110 56 -56
-2 -95 -7 -97 -14 -2 -7 21 -9 74 -6 43 2 89 -1 103 -6 20 -8 3 -11 -77 -11
-60 -1 -103 -5 -103 -11 0 -5 -6 -7 -13 -4 -8 3 -19 -5 -25 -18 l-11 -23 -7
23 c-7 24 -39 30 -47 10 -3 -10 -9 -8 -24 5 -11 9 -26 17 -34 17 -9 0 -5 7 10
19 22 17 22 18 5 25 -29 11 -145 -4 -191 -24 -43 -20 -64 -40 -41 -40 9 0 9
-3 -2 -10 -8 -5 -11 -10 -6 -10 5 0 2 -8 -7 -17 -46 -52 2 -126 62 -94 11 6
33 8 47 5 23 -6 26 -4 21 10 -4 10 -2 26 4 37 8 16 13 18 25 8 8 -6 14 -17 14
-25 0 -7 9 -16 20 -19 11 -3 20 -12 20 -19 0 -22 -13 -26 -31 -10 -10 9 -25
14 -34 11 -18 -7 -21 -37 -3 -37 21 0 0 -12 -35 -20 -19 -4 -41 -4 -48 1 -15
9 -52 -18 -43 -32 2 -5 -6 -11 -20 -15 -19 -4 -26 -14 -31 -45 -4 -23 -12 -39
-20 -39 -11 0 -13 12 -8 50 l6 50 -32 0 c-22 0 -31 -4 -28 -12 2 -7 -7 -35
-21 -63 -22 -43 -26 -47 -33 -30 -6 17 -8 17 -8 3 -1 -11 -9 -18 -21 -18 -11
0 -20 -7 -20 -15 0 -8 -7 -15 -15 -15 -8 0 -15 -7 -15 -15 0 -12 -13 -15 -59
-15 -52 0 -59 2 -65 23 -4 12 -10 98 -13 190 l-6 169 27 24 c30 28 33 55 10
79 -10 10 -14 24 -10 40 4 15 2 25 -4 25 -6 0 -8 5 -4 11 4 7 9 8 13 1 7 -12
61 -4 61 9 0 5 -4 9 -10 9 -5 0 -10 4 -10 10 0 5 7 7 15 4 23 -9 75 16 75 36
0 28 -58 41 -90 20z"/>
<path d="M3894 9969 c-3 -5 -3 -13 0 -17 2 -4 -15 -15 -40 -24 -24 -8 -44 -12
-44 -7 0 5 -7 9 -17 9 -9 0 -14 -3 -10 -6 3 -3 -1 -24 -9 -46 -8 -22 -14 -58
-14 -79 0 -21 -4 -41 -10 -44 -17 -11 -11 -41 13 -62 38 -34 112 -72 125 -64
7 4 31 5 54 2 33 -5 46 -12 58 -34 11 -21 12 -29 3 -35 -6 -4 -16 -20 -22 -35
-12 -30 -40 -37 -37 -9 1 13 -7 17 -39 17 -30 0 -39 -4 -37 -15 2 -10 -6 -6
-22 9 -14 14 -23 27 -20 30 4 3 9 0 11 -7 5 -13 23 -7 23 9 0 14 -61 69 -76
69 -7 0 -15 6 -17 13 -4 10 -6 10 -6 0 -1 -15 -31 -18 -31 -3 0 6 -7 10 -15
10 -9 0 -15 -9 -15 -25 0 -16 6 -25 15 -25 20 0 20 -66 0 -87 -21 -20 -13 -39
14 -36 16 2 21 -3 21 -22 0 -33 28 -45 47 -19 11 15 17 16 33 7 14 -10 19 -10
23 0 2 7 19 10 45 8 23 -1 58 3 78 9 28 10 38 9 47 0 7 -7 7 -10 2 -7 -6 3
-17 2 -25 -4 -8 -5 -10 -9 -5 -10 6 0 18 -2 28 -4 15 -3 17 1 12 26 -5 23 -3
29 10 29 9 0 13 4 10 10 -3 6 1 7 9 4 12 -5 16 1 16 22 0 29 12 56 24 55 21
-3 26 1 26 20 0 16 -5 20 -20 16 -24 -6 -28 24 -5 43 22 18 19 31 -16 73 -36
44 -46 46 -55 12 -3 -14 -9 -25 -12 -25 -3 0 -32 10 -65 22 -37 13 -62 29 -65
40 -5 19 -22 25 -22 7 0 -5 -4 -8 -9 -4 -6 3 -4 17 5 33 7 15 14 37 14 50 0
19 5 22 38 22 42 0 82 -33 101 -82 12 -31 38 -37 48 -10 4 9 13 22 21 28 19
14 6 38 -15 29 -24 -8 -11 82 13 100 11 8 17 15 14 16 -24 6 -201 5 -206 -2z"/>
<path d="M9970 9034 c-22 -13 -4 -14 168 -13 106 1 195 -1 199 -4 6 -6 -200
-11 -472 -12 -49 0 -98 -4 -108 -9 -11 -5 -23 -3 -33 5 -14 11 -18 11 -29 -4
-7 -9 -18 -17 -26 -17 -11 0 -11 2 -1 9 10 6 10 10 -3 21 -13 11 -22 10 -53
-5 -36 -18 -36 -18 -12 -24 17 -5 -4 -12 -74 -24 -53 -10 -102 -14 -108 -11
-6 4 -14 1 -18 -7 -5 -7 -25 -13 -44 -13 -20 0 -36 -4 -36 -8 0 -14 -32 -8
-44 8 -11 15 -15 14 -42 -2 -18 -11 -29 -25 -26 -33 3 -10 0 -12 -12 -8 -9 4
-27 0 -39 -7 -12 -8 -33 -16 -47 -18 -14 -2 -28 -7 -31 -11 -8 -10 -39 -12
-61 -2 -14 5 -18 2 -18 -11 0 -15 -2 -16 -9 -5 -11 17 -41 7 -41 -14 0 -11 -5
-13 -17 -7 -27 12 -96 9 -101 -6 -2 -7 5 -12 17 -12 12 0 21 -4 21 -9 0 -12
-27 -22 -44 -15 -7 3 -16 -2 -19 -10 -4 -9 -11 -16 -17 -16 -6 0 -8 5 -5 10 3
6 -1 10 -9 10 -20 0 -30 -17 -14 -23 8 -3 3 -9 -12 -15 -16 -6 -32 -6 -47 1
-16 7 -27 5 -47 -9 -14 -11 -26 -24 -26 -31 0 -17 -21 -28 -29 -15 -11 19 -52
2 -46 -18 6 -18 -17 -35 -30 -22 -9 9 -55 10 -50 1 3 -3 -6 -11 -19 -17 -13
-6 -32 -25 -42 -41 -19 -32 -46 -47 -78 -42 -14 2 -17 -2 -13 -13 4 -10 1 -16
-8 -16 -8 0 -15 -4 -15 -10 0 -5 -5 -10 -11 -10 -5 0 -7 5 -3 11 4 7 2 9 -7 5
-8 -3 -22 -9 -32 -12 -12 -4 -17 -13 -14 -25 3 -11 1 -17 -3 -14 -20 12 -58
-7 -65 -32 -3 -14 -8 -23 -11 -20 -3 2 -19 -9 -37 -26 -26 -24 -33 -27 -35
-13 -4 19 -32 22 -32 3 0 -16 -55 -65 -78 -69 -10 -2 -18 -14 -20 -31 -2 -16
-11 -31 -20 -35 -9 -3 -27 -18 -40 -33 -22 -27 -29 -28 -79 -13 -19 5 -23 2
-23 -16 0 -13 -8 -24 -20 -27 -18 -5 -24 -14 -22 -34 1 -3 -17 -23 -39 -44
-21 -22 -39 -45 -39 -52 0 -7 -9 -13 -19 -13 -12 0 -21 -9 -25 -25 -4 -14 -12
-25 -20 -25 -19 0 -49 -37 -41 -50 11 -18 -15 -40 -40 -34 -18 4 -24 0 -29
-20 -3 -14 -11 -26 -16 -26 -6 0 -10 -11 -10 -25 0 -14 -3 -24 -7 -24 -21 3
-33 -2 -33 -16 0 -9 -9 -15 -21 -15 -19 0 -21 -4 -15 -32 5 -26 2 -36 -16 -51
-13 -10 -17 -16 -10 -12 11 6 11 3 0 -14 -8 -13 -19 -19 -29 -16 -26 8 -69
-37 -69 -71 0 -19 -8 -34 -21 -42 -16 -10 -18 -16 -9 -27 8 -10 4 -24 -18 -59
-15 -26 -31 -43 -35 -40 -4 4 -19 -3 -33 -17 -21 -20 -25 -30 -20 -60 5 -34 5
-35 -27 -35 -22 1 -32 -4 -32 -14 0 -9 9 -15 22 -14 12 0 20 -3 17 -8 -3 -4
-11 -8 -19 -8 -20 0 -29 -19 -16 -34 8 -9 7 -18 -4 -32 -14 -18 -14 -18 -15 4
0 13 -6 22 -15 22 -8 0 -15 -7 -15 -15 0 -8 5 -15 10 -15 16 0 12 -40 -5 -46
-8 -4 -15 -15 -15 -26 0 -10 -4 -16 -10 -13 -5 3 -10 1 -10 -4 0 -6 5 -11 10
-11 15 0 12 -27 -6 -44 -8 -9 -12 -22 -8 -28 6 -10 4 -11 -7 0 -7 6 -18 12
-25 12 -16 0 -26 -41 -13 -57 8 -9 3 -21 -20 -45 -30 -32 -39 -62 -22 -72 16
-10 0 -56 -20 -56 -11 0 -19 -7 -19 -15 0 -8 7 -15 15 -15 8 0 15 -7 15 -15 0
-8 -6 -15 -14 -15 -16 0 -27 -45 -14 -58 14 -14 -5 -47 -27 -47 -25 0 -31 -28
-11 -47 15 -16 11 -58 -5 -58 -5 0 -6 -14 -2 -32 3 -18 2 -29 -3 -26 -5 4 -9
-13 -10 -37 0 -23 -5 -51 -9 -61 -5 -11 -9 -35 -10 -54 -4 -80 -19 -156 -34
-167 -13 -10 -14 -15 -3 -32 17 -29 15 -62 -5 -77 -15 -10 -16 -15 -5 -25 17
-18 17 -400 0 -418 -11 -10 -10 -15 5 -25 20 -15 22 -47 5 -64 -9 -9 -9 -18 0
-37 9 -20 9 -25 -2 -25 -7 0 -19 6 -26 14 -6 8 -19 12 -27 9 -11 -4 -14 -2 -9
5 5 8 2 10 -8 6 -12 -4 -16 0 -16 15 0 24 -28 40 -39 22 -11 -18 -40 -3 -34
18 3 12 -4 25 -18 35 -30 20 -49 20 -49 0 0 -9 -6 -14 -12 -11 -7 2 -12 9 -11
15 1 5 -7 8 -17 5 -16 -4 -20 -14 -20 -54 l0 -48 -32 11 c-22 8 -136 9 -384 5
-306 -6 -355 -5 -368 8 -18 18 -33 19 -38 3 -6 -17 -2026 -18 -2044 0 -16 15
-31 16 -36 1 -3 -8 -189 -11 -652 -10 l-649 2 7 -23 c3 -13 6 -35 6 -50 l0
-28 2095 0 2095 0 -2 -52 c-1 -39 -2 -44 -5 -18 -6 58 -15 69 -24 30 -5 -23
-3 -40 4 -49 9 -11 9 -15 0 -18 -14 -5 -17 -41 -7 -67 9 -24 39 -19 52 9 9 20
16 24 40 19 28 -6 30 -4 34 30 4 40 5 40 -24 25 -11 -6 -22 -8 -25 -5 -3 2 17
16 45 30 47 24 50 24 45 6 -4 -13 0 -20 10 -20 17 0 31 40 14 40 -15 1 74 49
91 50 7 0 21 -13 30 -30 9 -16 22 -30 28 -30 6 0 17 -33 24 -72 7 -40 20 -105
30 -143 9 -39 15 -83 13 -99 -3 -20 1 -33 11 -38 9 -5 16 -14 16 -19 0 -6 -4
-7 -10 -4 -6 4 -10 -5 -10 -20 0 -18 6 -29 19 -32 25 -6 34 -40 13 -48 -13 -5
-11 -10 11 -28 16 -13 28 -33 29 -49 1 -16 6 -28 9 -28 7 0 23 -52 24 -77 0
-6 3 -15 7 -18 4 -4 4 -14 1 -23 -4 -10 -2 -13 5 -8 17 10 15 -9 -3 -24 -19
-16 -8 -33 17 -27 12 4 21 -1 25 -11 3 -9 16 -39 29 -67 13 -27 19 -51 14 -53
-17 -6 -11 -19 9 -25 15 -4 20 -15 23 -48 2 -24 8 -44 13 -44 20 0 34 -16 28
-31 -4 -10 7 -27 28 -46 21 -20 29 -33 21 -36 -20 -6 -14 -20 16 -34 23 -11
26 -19 24 -47 -3 -28 -1 -32 15 -27 12 4 23 -1 31 -15 12 -19 11 -20 -7 -14
-27 8 -26 -1 4 -37 14 -16 23 -34 19 -39 -16 -27 45 -79 92 -79 12 0 10 -5 -6
-22 -23 -25 -25 -46 -8 -83 12 -26 46 -34 52 -12 15 48 16 50 31 37 9 -8 13
-21 10 -31 -4 -11 -2 -19 5 -19 6 0 8 5 4 12 -4 7 -3 8 4 4 7 -4 12 -23 12
-42 0 -24 5 -34 15 -34 8 0 15 -9 15 -19 0 -11 5 -23 10 -26 6 -3 10 -14 10
-25 0 -10 14 -33 31 -51 25 -27 34 -31 47 -22 9 6 16 18 16 27 -2 13 1 14 12
5 8 -6 14 -23 14 -36 0 -29 47 -83 73 -83 16 0 16 -2 4 -22 -11 -17 -12 -32
-6 -55 10 -36 35 -48 71 -34 19 7 27 5 36 -10 7 -10 12 -25 12 -33 0 -20 28
-46 50 -46 10 0 26 7 35 16 12 13 19 14 30 4 8 -7 15 -19 15 -26 0 -8 11 -16
24 -20 15 -3 29 -17 35 -35 5 -16 17 -29 25 -29 9 0 16 -4 16 -10 0 -5 -7 -7
-15 -4 -10 4 -15 0 -15 -15 0 -23 34 -46 56 -37 7 3 20 -4 28 -16 12 -16 21
-19 46 -15 40 9 77 -15 85 -54 5 -24 12 -29 35 -29 16 0 31 6 34 13 5 10 7 10
12 0 3 -7 12 -13 19 -13 7 0 15 -7 19 -15 3 -8 14 -15 24 -15 11 0 31 -12 46
-26 14 -15 26 -21 26 -14 0 10 5 9 18 -3 9 -8 36 -23 60 -32 45 -18 51 -29 27
-43 -13 -7 -13 -14 -4 -41 10 -29 14 -31 40 -26 21 5 31 2 35 -9 10 -26 41
-19 55 12 12 29 13 29 50 14 35 -13 36 -15 25 -43 -9 -24 -8 -32 4 -39 20 -13
77 -12 85 0 5 8 11 7 21 -1 10 -9 17 -9 28 0 9 8 21 8 39 2 20 -8 24 -15 20
-32 -6 -20 -4 -21 23 -14 61 17 101 4 117 -37 7 -20 24 -22 63 -8 30 12 68 4
58 -12 -4 -6 1 -17 11 -24 15 -11 23 -11 47 4 24 14 30 14 37 3 5 -7 13 -11
18 -8 5 3 24 2 43 -3 l35 -8 -32 -1 c-22 -1 -33 -6 -33 -16 0 -8 7 -15 15 -15
8 0 15 5 15 11 0 6 7 8 17 5 9 -4 20 -1 24 5 4 7 14 9 25 4 11 -4 27 -7 37 -6
9 1 17 -3 17 -9 0 -8 9 -10 25 -6 14 4 25 2 25 -4 0 -5 6 -10 14 -10 8 0 16
-5 18 -12 3 -7 12 -9 23 -4 17 6 17 9 5 17 -12 9 -11 10 4 5 11 -4 56 -9 100
-12 77 -4 105 -12 79 -21 -22 -8 -14 -32 13 -39 26 -7 175 3 201 13 12 5 12 7
1 14 -7 5 67 10 172 11 226 2 300 5 320 11 8 3 40 8 70 11 54 5 56 5 68 -24
18 -39 35 -38 52 5 16 40 33 49 61 32 17 -10 22 -9 33 5 12 17 160 50 183 41
7 -3 13 0 13 6 0 6 5 11 10 11 7 0 7 -7 0 -21 -7 -13 -17 -18 -27 -15 -9 4
-21 2 -27 -2 -6 -5 -22 -12 -36 -15 l-25 -6 3 -291 3 -290 -98 -2 c-54 -1
-110 -2 -125 -1 -21 1 -28 -4 -28 -18 0 -10 7 -19 15 -19 23 0 19 -53 -5 -68
-15 -9 -18 -17 -11 -29 6 -11 5 -23 -2 -35 -9 -14 -8 -20 5 -30 14 -11 15 -16
5 -30 -7 -9 -21 -16 -31 -15 -25 3 -31 -17 -12 -36 12 -12 13 -20 4 -44 -16
-42 -3 -83 25 -83 13 0 28 -5 34 -11 16 -16 33 -2 33 28 0 22 2 24 15 13 23
-19 15 -54 -13 -58 -19 -3 -23 -9 -20 -30 2 -17 -2 -26 -9 -25 -6 1 -17 -11
-24 -27 -7 -15 -16 -27 -19 -25 -3 2 -12 0 -20 -6 -12 -7 -12 -9 3 -9 17 0 17
-1 0 -24 -10 -13 -21 -22 -25 -20 -11 7 -71 -54 -63 -65 3 -6 11 -8 17 -5 7 4
8 2 4 -4 -4 -6 -14 -8 -23 -5 -13 5 -15 2 -10 -12 9 -23 -12 -52 -24 -33 -7
10 -9 9 -9 -4 0 -10 -9 -18 -22 -20 -15 -2 -23 -10 -23 -23 0 -11 5 -19 11
-18 7 1 10 -6 6 -19 -5 -20 -2 -20 51 -16 41 3 58 1 61 -9 3 -7 15 -13 26 -13
20 0 22 6 24 78 1 13 8 29 18 36 12 9 14 16 6 30 -7 13 -6 21 2 29 10 9 11 9
6 0 -4 -7 2 -20 14 -30 11 -10 20 -30 20 -45 0 -17 7 -31 20 -38 15 -8 19 -17
15 -31 -11 -33 10 -47 67 -43 54 3 88 25 88 56 0 11 5 16 10 13 6 -4 10 -212
10 -591 l0 -584 4391 0 4390 0 -3 410 c-3 359 -1 410 12 410 13 0 15 -51 12
-410 l-3 -410 400 0 401 0 0 2720 0 2720 -1318 0 -1319 0 -21 23 c-12 13 -22
29 -22 35 0 15 -13 15 -27 1 -6 -6 -16 -10 -23 -7 -6 2 20 18 57 37 54 26 64
29 50 13 -22 -25 -14 -65 11 -60 11 2 20 19 25 50 7 38 14 48 38 59 18 7 28
17 25 25 -3 7 0 15 7 17 21 8 -2 20 -35 19 -34 -1 -68 25 -68 52 0 17 -43 32
-60 21 -9 -6 -9 -10 1 -16 9 -6 10 -9 2 -9 -6 0 -18 7 -27 15 -8 9 -18 16 -21
15 -17 -1 -18 2 -3 8 15 6 13 9 -8 19 -23 11 -24 10 -18 -10 6 -19 5 -20 -10
-8 -9 7 -16 19 -16 26 0 7 -6 18 -14 24 -18 15 -31 -2 -40 -51 -5 -29 -12 -38
-26 -38 -16 0 -20 7 -20 30 l0 30 -237 0 c-157 0 -248 -4 -269 -12 -26 -9 -42
-9 -76 2 -58 19 -71 32 -45 45 28 14 62 76 47 85 -6 4 -10 11 -9 16 1 5 -1 17
-6 27 -4 11 -3 23 4 30 6 6 11 39 11 74 0 49 -3 63 -15 63 -8 0 -15 -4 -15
-10 0 -27 -17 -5 -28 35 -7 25 -16 45 -22 45 -5 0 -10 11 -10 25 0 16 -6 25
-15 25 -8 0 -15 -5 -15 -11 0 -8 -5 -8 -15 1 -8 7 -15 20 -15 30 0 9 -10 25
-22 36 -14 12 -19 14 -13 4 4 -8 -4 -3 -19 12 -14 15 -24 33 -22 40 3 7 7 26
11 42 5 23 8 27 16 15 8 -12 10 -12 19 1 8 12 12 11 30 -8 16 -17 19 -26 11
-36 -8 -9 -8 -22 0 -45 9 -25 16 -31 30 -27 11 3 28 9 38 12 12 4 27 -2 40
-15 13 -13 34 -21 55 -21 l35 0 -2 80 c-2 75 -3 79 -27 85 -34 9 -50 24 -50
46 0 25 -48 45 -71 30 -15 -9 -16 0 -11 95 4 90 2 104 -11 104 -41 0 -30 38
18 64 48 26 45 50 -6 65 -51 15 -111 51 -86 51 9 0 17 7 17 15 0 23 -53 19
-68 -5 -7 -11 -18 -20 -25 -19 -9 0 -9 2 1 6 17 7 15 33 -3 33 -8 0 -15 -9
-15 -20 0 -11 -4 -20 -9 -20 -9 0 -11 -11 -14 -99 -2 -45 -6 -56 -24 -64 -12
-5 -29 -24 -37 -41 -9 -17 -16 -26 -16 -21 0 12 -50 17 -50 5 0 -4 7 -11 16
-14 21 -8 12 -18 -19 -21 -28 -3 -113 -59 -121 -80 -3 -8 -8 -37 -12 -65 -4
-27 -10 -50 -14 -50 -4 0 -7 -20 -5 -44 4 -62 36 -116 69 -116 19 0 31 37 17
54 -12 15 1 31 29 38 8 2 19 8 23 13 5 6 6 -6 2 -25 -3 -19 -6 -45 -5 -57 0
-13 -5 -23 -11 -23 -7 0 -8 -14 -4 -39 4 -23 2 -48 -4 -58 -6 -10 -11 -13 -11
-6 0 20 -30 3 -30 -17 0 -10 -6 -20 -14 -23 -15 -6 -11 -47 5 -47 5 0 6 -7 3
-15 -4 -9 -19 -15 -40 -15 -23 0 -34 -5 -34 -14 0 -8 -10 -33 -22 -56 -14 -25
-19 -44 -13 -48 6 -4 10 -27 10 -52 l0 -45 45 -11 45 -12 -28 -11 c-18 -7
-104 -11 -228 -11 l-199 0 -19 30 c-10 16 -21 27 -25 22 -11 -11 5 51 18 67 8
10 5 17 -9 27 -16 12 -18 18 -7 34 15 25 15 30 -2 30 -7 0 -16 14 -20 31 -10
49 -7 69 8 69 33 0 25 72 -11 91 -20 11 -26 11 -33 -1 -6 -9 -4 -20 6 -31 7
-8 14 -19 14 -24 0 -11 -36 36 -42 55 -2 8 2 21 9 29 23 23 11 53 -32 77 -30
16 -45 20 -59 12 -23 -12 -39 2 -30 26 5 13 14 17 35 12 19 -3 29 -1 33 10 8
20 55 13 72 -10 8 -11 19 -16 29 -12 12 4 19 0 22 -14 5 -21 53 -30 53 -10 0
6 10 10 21 10 30 0 48 28 49 73 0 31 -3 38 -17 35 -10 -1 -24 1 -30 5 -22 14
-36 -4 -16 -19 10 -7 14 -13 8 -13 -20 0 -49 30 -50 52 0 14 -7 23 -20 25 -11
2 -24 9 -30 16 -5 7 -18 15 -27 19 -10 3 -18 16 -18 27 0 12 -9 30 -20 42 -15
17 -22 19 -34 9 -12 -10 -19 -2 -45 44 -23 44 -26 55 -13 50 9 -4 38 -10 65
-12 46 -5 47 -5 47 24 0 17 -9 36 -21 46 -15 14 -20 28 -18 57 2 29 -2 43 -15
53 -17 12 -17 14 -2 20 22 9 20 34 -3 46 -14 8 -22 7 -31 -4 -9 -11 -16 -12
-25 -5 -6 5 -15 7 -19 3 -12 -13 -35 -11 -47 3 -6 8 -15 14 -20 14 -17 0 -9
-29 14 -46 l22 -16 -22 5 c-22 5 -28 -3 -23 -28 1 -5 -2 -7 -5 -3 -4 4 -16 3
-26 -3 -24 -12 -25 -65 -3 -97 8 -12 11 -22 5 -22 -5 0 -13 -9 -16 -20 -4 -13
-15 -20 -30 -20 -16 0 -30 -10 -41 -29 -12 -20 -38 -39 -75 -55 -48 -20 -60
-31 -66 -56 -9 -35 -26 -41 -31 -10 -2 13 2 20 12 20 19 0 22 26 4 33 -20 7
20 45 51 49 24 3 26 7 29 61 l3 57 -308 0 c-254 1 -311 3 -327 15 -11 8 -17
18 -13 21 3 4 2 15 -4 25 -8 15 -6 19 8 19 13 0 15 2 5 8 -7 5 -10 16 -6 25 4
11 1 17 -7 17 -7 0 -20 6 -28 13 -25 21 -87 36 -102 25 -11 -7 -11 -11 -1 -15
23 -9 12 -23 -13 -17 -17 4 -25 2 -27 -7 0 -8 -2 -18 -3 -24 -2 -5 -3 -20 -4
-32 0 -13 -7 -22 -13 -20 -7 1 -13 -5 -13 -13 0 -8 6 -14 13 -13 6 2 12 -1 12
-7 0 -19 -75 -21 -664 -18 l-598 3 -12 34 c-12 37 -36 54 -36 25 0 -40 -15 2
-16 44 -4 168 -4 173 -19 179 -9 3 -24 -2 -35 -12 -17 -16 -19 -16 -29 4 -14
26 -14 54 1 69 6 6 8 15 4 19 -4 4 -12 -1 -18 -11 -10 -18 -12 -17 -29 15 -21
39 -24 53 -9 44 14 -9 13 18 -2 33 -6 6 -12 33 -13 59 -1 26 -5 58 -9 70 -9
29 -37 38 -53 17 -19 -26 -28 -9 -28 54 l0 57 -37 9 c-23 6 -38 16 -39 25 -1
9 -2 25 -3 36 -1 14 -8 20 -24 20 -13 0 -28 9 -34 19 -8 15 -8 17 3 11 8 -5
-6 11 -29 34 -24 23 -41 45 -38 49 4 3 12 -2 19 -12 11 -14 15 -15 31 -3 26
19 14 47 -19 47 -15 0 -25 6 -25 14 0 8 -9 18 -20 21 -11 3 -20 11 -20 17 0 6
-12 26 -26 45 -26 34 -26 34 -5 40 12 3 21 13 21 23 0 20 -47 44 -64 32 -29
-22 -47 -21 -75 7 -25 25 -29 35 -24 63 5 32 3 35 -28 44 -19 5 -34 14 -34 19
-3 46 -48 83 -66 54 -6 -10 -11 -11 -19 -3 -7 7 -5 16 10 29 24 22 26 51 4 59
-30 11 -72 6 -78 -10 -8 -22 -29 -6 -23 18 5 16 2 19 -14 15 -12 -3 -24 2 -32
14 -8 10 -17 16 -20 13 -7 -7 -11 3 -21 49 -4 15 -13 27 -22 27 -8 0 -25 11
-37 23 -28 31 -63 49 -85 45 -9 -2 -16 3 -14 10 1 6 -5 12 -13 12 -8 0 -15 8
-15 18 0 25 -33 54 -56 50 -10 -2 -19 3 -20 10 -1 6 -2 16 -3 21 0 5 -11 11
-23 14 -13 2 -32 8 -42 12 -14 6 -17 5 -12 -3 11 -19 -8 -14 -31 8 -14 12 -19
27 -16 40 5 21 -3 25 -31 14 -9 -3 -13 -11 -9 -18 3 -6 -7 1 -24 17 -16 15
-32 24 -36 20 -4 -3 -7 -1 -7 5 0 7 -6 12 -13 12 -7 0 -17 10 -22 22 -6 12
-21 25 -35 29 -14 3 -24 11 -22 17 3 16 -25 15 -31 0 -3 -10 -13 -9 -41 5 -23
10 -34 22 -30 29 5 7 0 9 -14 6 -12 -4 -25 -2 -28 3 -3 5 0 9 5 9 20 0 11 27
-11 37 -15 7 -30 7 -45 0 -35 -15 -73 -1 -73 28 0 32 -17 41 -39 21 -24 -22
-30 -20 -24 5 4 12 0 25 -8 30 -21 13 -39 11 -39 -6 0 -8 -9 -15 -21 -15 -11
0 -18 4 -15 9 4 5 -2 7 -13 4 -12 -3 -20 2 -23 14 -3 10 -19 26 -36 36 -27 15
-32 16 -46 2 -13 -14 -17 -13 -40 10 -19 19 -32 24 -58 20 -45 -6 -98 5 -98
19 0 8 -11 11 -30 8 -25 -3 -29 -1 -24 12 7 18 -7 21 -23 5 -8 -8 -17 -7 -34
5 -12 8 -32 13 -43 11 -12 -3 -34 -1 -51 4 l-30 9 30 1 30 1 -29 15 c-36 19
-41 19 -62 -2 -15 -16 -17 -16 -29 0 -14 19 -32 22 -37 7 -2 -6 -19 -7 -48 -1
l-45 9 40 1 40 2 -49 21 c-42 19 -50 20 -60 7 -16 -21 -122 -25 -129 -5 -7 18
-37 22 -37 6 0 -5 -13 -10 -30 -10 -23 0 -30 5 -30 19 0 15 -10 19 -67 24 -46
3 -70 1 -75 -6 -6 -9 -12 -9 -28 1 -28 17 -227 15 -260 -4z m195 -131 c-112
-3 -118 -5 -91 -18 16 -9 56 -15 92 -15 48 0 66 -4 70 -15 9 -21 37 -19 52 5
7 11 21 20 32 20 22 0 27 15 8 23 -7 3 1 6 18 6 16 1 39 -6 50 -14 10 -8 24
-14 29 -15 6 0 3 5 -5 10 -11 7 -2 10 33 10 35 0 47 -4 47 -15 0 -17 35 -21
45 -5 12 19 22 10 18 -15 -6 -29 20 -39 85 -32 45 4 70 17 33 17 -12 0 -20 4
-17 8 7 11 64 14 71 3 3 -6 12 -8 20 -4 8 3 15 0 15 -7 0 -8 -9 -10 -24 -6
-30 7 -42 -17 -20 -39 28 -28 74 -15 74 21 0 24 14 32 25 14 3 -5 26 -10 49
-10 35 0 44 -3 42 -17 0 -10 7 -19 18 -21 14 -3 17 0 13 12 -8 21 3 20 19 -1
9 -13 16 -15 24 -7 13 13 90 -2 90 -17 0 -5 15 -9 33 -10 17 0 48 -7 67 -14
32 -12 32 -15 0 -19 -5 0 -10 -4 -10 -8 0 -5 0 -12 0 -18 0 -13 47 -13 55 0 3
6 21 0 43 -14 20 -14 64 -30 97 -36 32 -7 70 -20 84 -29 37 -24 94 -41 106
-32 14 12 58 -6 49 -20 -4 -7 0 -9 12 -5 14 4 24 -3 37 -25 14 -25 22 -30 42
-25 28 7 77 -12 68 -27 -3 -5 0 -7 8 -5 8 3 30 -5 49 -17 19 -12 43 -24 53
-28 9 -4 16 -12 15 -19 -2 -8 6 -12 22 -10 18 1 21 -1 11 -7 -18 -11 -5 -31
20 -31 10 0 19 -6 19 -12 0 -9 3 -9 9 1 8 12 12 12 25 2 9 -8 16 -22 16 -33 0
-14 6 -19 23 -18 37 3 48 1 46 -12 -4 -37 3 -67 18 -72 9 -4 20 -1 24 5 4 8
16 4 38 -12 17 -12 31 -26 31 -31 0 -11 62 -43 85 -43 11 0 19 -6 17 -12 -1
-7 3 -13 9 -13 18 0 38 -32 39 -61 0 -14 11 -42 23 -61 13 -19 27 -46 31 -61
4 -17 13 -27 25 -27 26 0 37 78 13 96 -9 7 -15 14 -12 17 3 2 47 -37 99 -88
53 -52 89 -95 83 -99 -6 -3 -26 14 -45 38 l-34 45 -13 -24 c-11 -20 -11 -33
-1 -65 13 -44 39 -57 92 -46 25 5 30 3 25 -9 -6 -18 35 -38 58 -29 8 3 17 1
20 -5 4 -5 -3 -12 -14 -16 -11 -3 -20 -10 -20 -15 0 -5 7 -7 15 -4 9 4 18 -1
21 -10 4 -9 14 -16 24 -14 27 4 81 -68 74 -98 -5 -18 -2 -24 10 -24 10 0 13 6
9 18 -7 18 -5 17 17 -12 11 -15 12 -18 2 -12 -10 6 -13 3 -10 -10 2 -11 12
-19 22 -19 11 0 26 -14 37 -35 10 -19 23 -41 29 -48 6 -7 9 -16 7 -20 -3 -4 1
-13 9 -20 8 -7 14 -9 14 -5 0 4 7 -2 15 -14 11 -16 13 -28 5 -47 -5 -14 -14
-26 -20 -26 -13 0 -13 -23 2 -55 12 -28 43 -34 52 -10 6 17 32 20 41 5 4 -6 1
-17 -5 -25 -12 -14 -5 -19 21 -17 3 0 6 -16 7 -36 3 -35 18 -56 34 -46 12 8
27 -41 21 -67 -5 -18 -3 -21 11 -16 9 4 15 3 12 -2 -3 -4 6 -23 20 -42 24 -33
25 -34 5 -37 -32 -5 -25 -32 9 -38 37 -8 39 -26 4 -44 -42 -23 -58 -4 -64 76
l-5 69 -539 3 c-385 1 -543 5 -553 14 -8 6 -13 26 -11 47 2 43 -7 61 -31 61
-18 0 -41 18 -41 32 0 4 6 7 13 6 6 -2 12 3 11 10 -1 6 -2 26 -2 43 -2 28 -5
31 -28 26 -20 -3 -27 1 -35 20 -5 13 -17 27 -26 30 -10 4 -24 13 -31 20 -16
15 -32 17 -32 3 0 -18 -19 -11 -55 21 -32 29 -38 31 -60 19 -19 -10 -46 -10
-130 -1 -59 6 -111 8 -116 5 -26 -16 8 -66 40 -57 10 3 22 0 25 -6 4 -6 19
-11 33 -11 18 0 24 -4 20 -14 -7 -17 18 -29 44 -21 19 6 40 -20 32 -41 -2 -6
5 -30 16 -54 l19 -43 15 28 14 28 10 -29 c6 -17 9 -54 7 -84 -3 -41 -1 -48 5
-30 7 20 9 21 10 6 1 -11 -6 -27 -15 -37 -12 -14 -13 -22 -4 -38 7 -15 11
-119 10 -334 -1 -171 -1 -325 -1 -340 1 -24 4 -27 22 -22 20 7 21 4 16 -23 -5
-22 -1 -34 13 -47 12 -11 20 -31 20 -50 0 -32 25 -73 65 -107 13 -12 16 -20 9
-25 -34 -24 -71 -61 -77 -76 -4 -10 -11 -16 -16 -12 -15 9 -26 -17 -27 -65 -1
-121 -2 -125 -29 -126 -58 -4 -55 17 -55 -374 0 -336 1 -360 18 -361 16 -1 16
-2 0 -6 -10 -2 -18 -13 -18 -23 0 -10 -5 -22 -10 -25 -6 -4 -10 -16 -8 -28 3
-20 -1 -22 -34 -19 -30 2 -38 -1 -38 -14 0 -11 5 -14 18 -9 13 5 14 4 5 -6 -7
-7 -32 -12 -57 -10 -48 2 -66 -14 -66 -58 0 -19 6 -21 79 -21 61 0 80 -3 85
-15 8 -23 36 -18 36 6 0 16 4 19 20 14 11 -3 20 -2 20 3 0 6 14 15 31 21 35
12 62 2 79 -29 15 -29 14 -942 -2 -958 -15 -15 -276 -17 -298 -2 -9 6 -10 10
-3 10 7 0 17 10 24 22 10 18 9 20 -6 15 -11 -5 -15 -3 -12 5 2 7 11 12 21 10
15 -3 21 9 17 32 -1 5 5 6 13 3 8 -3 16 -1 18 4 3 9 21 15 51 18 4 1 7 10 7
20 0 21 -26 36 -35 21 -4 -6 -66 -10 -141 -10 -140 0 -164 -6 -164 -44 0 -19
32 -21 60 -4 16 10 22 10 32 -1 8 -9 9 -12 1 -7 -13 7 -20 -12 -22 -57 0 -16
-3 -33 -7 -38 -8 -13 -118 -11 -132 3 -7 7 -12 40 -12 79 0 66 0 67 -31 78
-21 7 -37 7 -49 1 -10 -6 -91 -10 -179 -10 -118 0 -160 -3 -164 -12 -3 -10 -9
-9 -23 4 -11 9 -25 14 -31 10 -6 -4 -51 -6 -100 -4 -80 3 -90 5 -98 25 -14 32
-76 31 -90 -1 -8 -17 -18 -22 -46 -22 -21 0 -42 7 -50 16 -12 14 -14 14 -26
-2 -17 -24 -16 -49 2 -64 13 -11 20 -11 40 0 31 17 70 2 78 -30 4 -17 3 -19
-9 -9 -12 9 -14 5 -14 -25 0 -28 -4 -36 -18 -36 -10 0 -23 -5 -30 -12 -16 -16
-16 -140 0 -156 15 -15 82 -16 73 -2 -3 6 -1 10 4 10 6 0 12 17 12 38 1 32 2
30 10 -18 5 -30 8 -62 5 -70 -2 -8 -4 1 -5 20 l-1 35 -20 -30 c-26 -39 -25
-76 3 -103 12 -11 28 -27 35 -36 14 -17 16 -66 3 -66 -13 0 -23 -62 -11 -74 8
-8 13 -7 20 3 11 18 24 -59 24 -146 1 -35 4 -63 9 -63 4 0 7 -9 7 -20 0 -11
-4 -20 -10 -20 -16 0 -12 -30 5 -36 8 -4 15 -14 15 -24 0 -13 -5 -17 -20 -13
-17 4 -20 0 -20 -24 0 -16 3 -33 7 -37 8 -7 8 -17 11 -173 l2 -113 160 0 c112
0 160 -3 160 -11 0 -8 14 -9 42 -5 70 11 38 -2 -47 -19 -55 -12 -81 -13 -83
-6 -4 13 -32 15 -32 2 0 -5 6 -12 13 -14 7 -4 6 -6 -5 -6 -9 -1 -19 5 -22 12
-3 9 -9 7 -19 -5 -19 -24 -52 -22 -69 4 -8 12 -19 18 -26 14 -19 -11 -14 -26
11 -35 17 -7 7 -10 -48 -17 -38 -4 -103 -8 -142 -8 -40 -1 -73 -4 -73 -8 0 -5
-28 -7 -62 -6 -50 1 -54 2 -20 5 28 3 42 9 42 19 0 17 -27 19 -33 2 -4 -10 -7
-10 -18 0 -18 17 -300 17 -317 0 -9 -9 -12 -9 -12 0 0 7 -4 12 -10 12 -19 0
-10 -21 13 -30 19 -8 17 -9 -15 -9 -27 -1 -38 3 -38 13 0 23 -17 28 -33 11
-18 -17 -58 -20 -54 -4 1 6 -4 14 -10 16 -7 3 -13 -2 -13 -9 0 -10 -10 -13
-35 -10 -19 2 -35 8 -35 12 0 5 -10 12 -22 16 -13 4 -27 13 -33 20 -13 17 -32
19 -78 10 -25 -6 -42 -4 -52 4 -13 10 -19 10 -34 -4 -27 -24 -82 -12 -115 25
-30 33 -38 35 -56 14 -20 -24 -59 -19 -70 10 -11 29 -25 32 -39 8 -10 -16 -11
-16 -17 5 -6 22 -34 32 -34 12 0 -5 -6 -10 -14 -10 -9 0 -12 7 -9 21 7 26 -14
41 -39 28 -12 -6 -25 -5 -39 3 -17 10 -23 10 -26 1 -3 -7 -12 -13 -21 -12 -11
0 -12 2 -4 6 19 8 14 41 -9 54 -27 14 -50 -4 -31 -23 20 -20 13 -27 -17 -17
-16 6 -32 17 -35 25 -3 8 -12 14 -21 14 -8 0 -15 6 -15 14 0 21 -20 30 -33 17
-8 -8 -6 -15 9 -27 18 -15 18 -15 -3 -4 -13 6 -23 18 -23 27 0 11 -7 14 -27
10 -32 -6 -105 21 -100 37 5 15 -20 39 -34 31 -6 -5 -4 -12 8 -21 16 -13 15
-13 -9 -3 -15 7 -25 16 -22 21 3 5 0 8 -7 7 -8 -2 -24 1 -37 5 -22 7 -23 8 -5
23 16 13 15 14 -18 10 -44 -6 -57 1 -55 33 1 20 -4 26 -26 28 -17 2 -28 9 -28
18 0 9 -7 14 -17 12 -10 -2 -17 -11 -17 -21 2 -16 0 -16 -27 0 -16 10 -27 23
-25 30 3 7 1 13 -3 13 -5 0 -11 -5 -13 -12 -2 -6 -12 5 -21 24 -18 38 -37 51
-63 41 -9 -3 -20 0 -25 8 -4 8 -16 14 -26 14 -11 0 -17 6 -15 17 2 12 -7 19
-33 24 -24 4 -39 14 -47 32 -7 14 -20 28 -28 30 -13 5 -13 3 -1 -14 14 -18 14
-18 -3 -3 -9 9 -19 25 -20 35 -2 10 -9 19 -17 20 -44 1 -92 44 -88 77 3 25 -2
34 -26 45 -20 9 -27 8 -41 -6 -17 -16 -17 -16 -12 6 4 14 2 22 -7 22 -14 0
-29 28 -26 48 1 8 -7 16 -18 19 -17 4 -21 13 -21 43 0 30 -7 45 -36 74 -43 43
-80 55 -97 33 -15 -20 -34 -7 -62 40 -14 25 -24 31 -38 27 -17 -5 -18 -2 -12
25 5 24 3 31 -8 31 -17 0 -27 21 -27 55 0 38 -11 55 -34 55 -12 0 -26 4 -32
10 -5 5 -21 11 -34 13 -19 3 -24 10 -23 26 2 13 -4 24 -15 28 -37 13 -42 23
-26 54 8 16 19 29 24 29 18 0 10 29 -15 55 -26 26 -69 33 -80 15 -11 -18 -37
11 -31 33 5 21 -21 70 -34 62 -4 -2 -5 7 -2 21 4 23 2 25 -17 19 -29 -9 -27 9
4 25 28 15 33 47 10 56 -8 4 -15 17 -15 29 0 26 -24 55 -46 55 -8 0 -14 -9
-14 -20 0 -11 -5 -20 -10 -20 -17 0 -23 29 -10 45 15 18 3 38 -20 32 -24 -6
-44 36 -30 63 6 11 18 23 27 28 20 12 9 32 -18 32 -12 0 -19 -7 -19 -20 0 -34
-17 -22 -33 23 -8 23 -18 51 -22 62 -7 16 -6 18 6 8 18 -17 34 -16 53 3 24 23
19 47 -14 83 -34 36 -47 38 -67 14 -8 -10 -12 -12 -8 -5 3 6 2 12 -3 12 -13 0
-20 68 -9 79 10 10 1 31 -14 31 -5 0 -9 -8 -10 -17 0 -15 -2 -15 -9 2 -15 35
-11 55 10 55 14 0 20 7 20 23 0 12 3 32 6 43 4 17 -3 26 -33 45 -21 13 -41 23
-44 22 -11 -4 -39 152 -34 192 4 28 3 34 -3 20 -12 -28 -22 38 -37 250 -3 39
-2 42 3 15 13 -66 19 -15 18 145 -1 123 -4 165 -16 182 -14 21 -13 24 8 38 28
21 30 49 2 42 -16 -4 -20 0 -19 21 0 15 3 22 5 15 8 -20 34 -3 34 22 0 13 -7
30 -15 39 -13 13 -14 27 -5 98 5 45 10 86 10 90 0 5 3 7 8 6 4 -1 18 2 31 6
15 5 39 3 63 -5 53 -17 58 -8 58 113 0 92 -1 98 -26 122 -40 36 -41 97 -3 131
30 26 36 53 19 86 -9 16 -7 19 15 19 18 0 25 5 25 20 0 19 -10 24 -37 21 -7
-1 -13 3 -13 10 0 21 44 133 48 121 2 -8 10 -8 28 0 28 13 30 25 9 48 -12 13
-13 23 -4 48 6 18 16 29 22 25 5 -3 7 -1 3 5 -7 12 13 62 26 62 5 0 7 4 3 9
-3 5 -1 12 4 15 5 3 11 -4 14 -15 3 -12 10 -18 17 -14 8 5 8 10 0 20 -7 8 -9
19 -5 25 3 5 1 10 -5 10 -8 0 -8 6 0 20 6 11 15 18 21 15 5 -4 9 2 9 12 1 17
1 17 11 1 13 -23 49 -24 49 -2 0 9 -11 25 -25 36 -33 26 -24 37 24 31 34 -5
40 -2 46 16 4 14 1 31 -9 46 -19 29 -21 49 -4 39 8 -5 9 -2 5 10 -4 9 -3 15 2
12 5 -3 19 3 31 14 13 11 38 20 56 20 27 0 35 5 40 24 6 26 -10 66 -28 66 -6
0 -19 -10 -29 -22 -33 -37 -21 -8 22 52 29 41 46 57 57 53 12 -5 14 -1 10 15
-8 28 4 35 28 17 43 -32 112 -5 100 39 -16 63 -18 78 -12 101 4 17 12 25 24
23 11 -2 16 3 14 14 -1 9 3 20 9 24 9 5 10 2 6 -9 -5 -13 -1 -17 18 -17 22 0
25 4 25 38 0 20 4 32 8 26 12 -19 48 -25 76 -13 34 16 35 49 2 49 -33 0 -57
10 -50 21 3 5 16 9 28 9 25 0 106 79 106 104 0 10 13 14 48 13 26 0 57 3 69 7
28 9 40 50 25 88 -8 22 -7 28 4 28 8 0 14 5 14 10 0 14 27 12 34 -2 3 -7 3 -2
0 12 -6 24 -6 24 13 8 31 -28 51 -23 55 15 2 24 8 33 26 35 28 4 29 22 0 22
-25 0 -14 14 19 24 16 5 23 2 28 -14 10 -32 49 -23 53 12 3 26 2 27 -30 21
-30 -6 -32 -5 -19 11 8 9 20 15 28 12 7 -3 13 1 13 9 0 18 21 20 38 3 9 -9 15
-10 20 -2 4 6 17 14 29 18 11 4 40 31 63 61 23 30 48 55 54 55 6 0 4 -5 -4
-10 -12 -8 -12 -10 5 -10 11 0 27 5 35 10 13 9 13 11 0 20 -11 7 -12 10 -2 10
7 0 20 7 29 16 20 19 70 10 93 -19 16 -19 20 -19 49 -7 30 12 32 16 26 47 -6
32 -5 33 29 33 32 0 66 20 66 40 0 4 9 6 19 3 14 -4 23 4 36 30 18 38 80 72
111 60 12 -4 15 -3 10 5 -6 9 -1 9 18 1 20 -10 29 -8 50 9 19 14 23 22 14 26
-7 3 -1 4 14 1 16 -3 32 1 42 10 18 19 26 19 26 1 0 -22 73 -66 111 -66 42 0
52 7 73 48 16 32 16 33 -9 56 -21 20 -23 25 -9 30 27 10 46 7 60 -11 10 -14
15 -15 25 -6 7 7 24 9 40 6 16 -3 40 -2 55 1 21 6 25 11 21 31 -6 33 20 33 35
0 13 -29 23 -32 32 -9 10 25 7 32 -11 37 -10 2 -3 2 15 0 17 -2 32 1 32 6 0
16 88 25 105 11 12 -10 16 -9 21 4 4 9 18 16 34 16 24 0 27 -3 22 -25 -2 -15
0 -25 7 -25 6 0 11 3 11 8 0 4 10 12 23 17 12 6 21 17 19 24 -2 11 7 12 38 8
22 -3 40 -1 40 4 0 5 83 8 193 7 141 -2 160 -3 72 -5z m2660 -2303 c-11 -5
-102 -9 -202 -9 -156 -1 -183 -3 -183 -16 0 -13 34 -15 248 -15 180 0 251 -3
260 -12 7 -7 12 -38 12 -69 0 -69 -15 -86 -63 -72 l-32 10 28 13 c44 21 31 60
-20 60 -9 0 -22 -8 -29 -17 -8 -11 -13 -13 -14 -5 0 6 -9 12 -20 12 -16 0 -20
7 -20 35 l0 35 -69 0 c-68 0 -70 0 -73 -27 -3 -24 -9 -29 -43 -35 -22 -4 -69
-7 -104 -7 -83 -1 -101 13 -101 81 l0 48 223 -1 c133 0 214 -4 202 -9z m690
-40 c34 0 66 -5 73 -12 9 -9 12 -81 12 -261 l0 -249 -26 6 c-15 4 -32 2 -40
-5 -11 -9 -14 -7 -14 9 0 11 4 32 9 45 7 18 6 30 -4 43 -20 27 -19 35 11 68
22 23 24 30 13 37 -8 5 -22 7 -31 5 -20 -5 -28 14 -33 83 -1 27 -5 53 -8 58
-5 8 -47 179 -47 191 0 3 5 1 12 -6 7 -7 39 -12 73 -12z m-145 -162 c0 -7 3
-23 6 -36 5 -18 3 -21 -10 -16 -22 8 -20 -12 3 -28 10 -7 21 -27 25 -44 l7
-31 -48 0 c-26 0 -54 4 -60 10 -8 5 -13 33 -13 67 0 59 8 74 45 83 35 8 45 7
45 -5z m1597 -170 c6 -5 24 -8 40 -6 l28 3 5 -130 c3 -71 9 -137 13 -146 5
-10 4 -20 -2 -24 -6 -3 -11 -40 -11 -86 l0 -79 -45 0 -44 0 20 47 c11 26 25
51 31 54 6 4 8 18 4 35 -6 22 -9 25 -17 13 -7 -11 -9 -9 -9 8 0 12 -3 29 -7
39 -5 12 -3 15 6 9 10 -6 11 -2 6 16 -4 13 -11 26 -16 29 -4 3 -13 28 -19 55
-6 27 -16 55 -22 63 -9 10 -9 15 1 21 9 6 5 13 -13 24 -14 10 -30 17 -37 17
-6 0 -9 7 -6 15 4 8 2 17 -3 20 -6 4 -10 11 -10 16 0 12 89 1 107 -13z m-288
-93 c1 14 9 21 26 23 27 2 33 -16 14 -35 -18 -18 15 -63 46 -63 14 0 25 5 25
12 0 6 3 9 6 6 3 -3 0 -15 -7 -26 -11 -18 -10 -24 5 -41 13 -14 16 -25 9 -33
-5 -7 -8 -32 -5 -56 4 -40 6 -43 28 -38 19 5 24 2 24 -13 0 -11 -5 -23 -11
-27 -6 -3 -8 -17 -4 -31 3 -14 1 -31 -6 -39 -14 -18 -83 -18 -97 -1 -6 7 -12
42 -14 77 l-3 65 -67 3 c-38 2 -68 5 -68 8 0 9 37 50 71 78 15 12 19 21 11 24
-6 2 -19 -4 -28 -12 -25 -25 -27 -19 -5 13 12 16 21 34 21 41 0 6 4 8 10 5 6
-4 8 12 5 42 -4 36 -2 42 4 23 8 -22 9 -22 10 -5z m2040 14 c9 6 23 -2 43 -25
17 -19 36 -34 44 -34 17 0 19 -17 3 -22 -6 -2 -10 -12 -8 -23 4 -17 5 -17 21
-2 15 16 17 15 23 -12 3 -17 2 -38 -4 -49 -8 -15 -6 -24 8 -39 10 -11 22 -38
26 -61 4 -23 15 -52 26 -66 10 -13 16 -31 13 -40 -5 -14 -30 -16 -179 -16
-150 0 -176 2 -194 18 -20 15 -21 19 -7 37 15 19 16 19 46 3 42 -24 55 -23 68
7 17 38 15 86 -7 121 -22 36 -13 60 18 51 12 -3 23 -2 26 3 3 4 -5 10 -17 13
-20 6 -20 7 -5 30 8 13 18 45 22 71 4 27 10 43 14 38 4 -7 12 -7 20 -3z
m-4301 -41 c2 -4 10 -8 18 -8 15 0 18 -18 8 -44 -3 -9 -10 -13 -15 -10 -5 3
-9 0 -9 -5 0 -6 5 -11 12 -11 9 0 9 -3 0 -12 -10 -10 -15 -10 -21 1 -5 7 -14
10 -20 7 -18 -11 -13 -37 9 -43 23 -6 27 -23 5 -23 -8 0 -15 -7 -15 -15 0 -8
5 -15 11 -15 5 0 7 -4 4 -10 -3 -5 -8 -20 -10 -31 -6 -29 -15 -37 -15 -14 0
15 -3 16 -12 7 -9 -9 -9 -15 0 -24 17 -17 15 -29 -3 -22 -22 9 -32 -26 -12
-41 21 -15 22 -25 1 -25 -11 0 -14 -5 -10 -16 4 -10 1 -14 -6 -12 -9 3 -14 33
-16 88 -3 69 -7 86 -23 98 -14 10 -19 25 -19 58 0 53 -26 82 -75 85 l-30 1 28
11 c19 8 26 16 21 29 -5 16 2 17 93 11 54 -3 100 -10 101 -15z m3315 -28 c25
0 64 -25 60 -37 -3 -7 5 -18 16 -25 12 -7 21 -23 21 -35 0 -12 5 -23 12 -25 7
-3 6 -12 -6 -30 -15 -23 -15 -27 -1 -41 13 -14 14 -20 3 -37 -11 -17 -10 -22
12 -37 14 -10 32 -16 42 -15 22 4 34 -18 17 -29 -8 -5 -103 -9 -211 -9 -180 0
-228 6 -197 25 5 4 8 13 5 20 -2 7 4 22 15 33 10 12 19 26 19 32 0 5 6 10 13
10 21 0 54 40 40 48 -25 16 5 36 47 33 38 -2 41 -1 38 20 -2 15 -12 26 -28 30
-26 7 -26 8 3 14 11 2 22 7 25 11 4 4 -1 4 -12 0 -14 -5 -17 -3 -11 11 4 10 9
32 12 49 l5 31 24 -24 c13 -12 30 -23 37 -23z m1187 -423 c410 -1 -185 -3
-1322 -5 -1138 -1 -2068 1 -2068 6 0 6 1405 6 3390 -1z m-3319 -99 c2 -50 -3
-243 -7 -249 -2 -4 -22 2 -44 14 -33 18 -40 27 -40 52 0 23 3 27 10 15 7 -11
8 -6 4 17 -4 18 -3 57 0 86 6 43 11 54 24 53 9 0 16 5 15 12 -2 6 6 12 17 12
11 0 20 -6 21 -12z m3027 5 c-555 -2 -1461 -2 -2015 0 -555 1 -101 2 1007 2
1108 0 1562 -1 1008 -2z m-3030 -471 l3 -133 -53 3 c-45 3 -53 6 -56 24 -2 12
-12 24 -23 27 -17 5 -29 39 -11 36 21 -4 31 3 38 24 4 12 15 28 25 35 22 15
25 42 6 42 -7 0 -18 5 -24 11 -9 9 -3 19 24 41 62 49 68 41 71 -110z m1997
-162 c3 -5 19 -10 34 -10 36 0 47 -14 55 -70 5 -33 2 -51 -8 -65 -14 -18 -16
-19 -28 -4 -20 25 -57 34 -64 15 -3 -9 -10 -16 -15 -16 -14 0 -11 44 5 65 11
16 11 21 0 33 -19 18 -18 62 0 62 8 0 18 -4 21 -10z m-2195 -143 c0 -8 9 -22
20 -32 19 -17 20 -31 20 -215 0 -139 -3 -199 -12 -208 -7 -7 -40 -12 -80 -12
l-68 0 0 -68 c0 -40 -5 -73 -12 -80 -7 -7 -40 -12 -80 -12 -66 0 -68 -1 -68
-25 0 -18 -5 -25 -19 -25 -10 0 -21 -7 -25 -15 -3 -8 -10 -15 -17 -15 -6 0 -2
14 10 33 11 17 25 31 31 29 5 -1 10 2 10 8 0 21 67 80 98 86 27 5 32 11 32 34
0 16 -7 30 -15 34 -24 9 -18 35 11 48 20 9 25 17 21 36 -3 15 2 31 14 43 23
23 24 39 4 39 -12 0 -13 4 -5 19 6 13 17 17 30 14 24 -6 39 22 21 40 -9 9 -14
8 -21 -3 -7 -11 -10 -12 -10 -2 0 21 20 53 48 77 21 18 24 25 14 37 -10 12 -7
17 12 26 28 13 40 49 19 60 -10 6 -12 17 -8 35 7 28 25 37 25 14z m2978 -552
c6 -14 17 -25 23 -25 8 0 9 -11 5 -32 -3 -18 -2 -28 2 -21 6 9 11 7 20 -7 7
-12 8 -20 2 -20 -36 0 46 -87 86 -92 17 -2 29 -9 29 -18 0 -18 -62 -33 -125
-31 -25 1 -294 4 -599 7 -384 3 -558 8 -568 15 -7 7 -13 32 -13 59 0 33 -5 50
-15 54 -8 3 -15 15 -15 26 0 11 -4 20 -10 20 -23 0 -8 40 20 55 16 8 31 15 33
15 3 0 7 -22 9 -50 7 -68 50 -110 114 -110 33 0 47 -5 56 -20 12 -19 24 -20
170 -20 l156 0 18 45 c9 25 19 45 21 45 2 0 14 -11 27 -25 32 -34 56 -33 56 4
0 31 27 51 36 26 4 -10 16 -14 40 -11 23 3 32 1 28 -6 -5 -8 5 -9 33 -5 36 6
42 4 76 -33 42 -46 59 -50 75 -15 10 20 16 24 41 19 24 -5 30 -2 37 17 4 13 7
33 7 44 -1 16 -1 17 3 3 3 -10 12 -18 20 -18 10 0 13 -7 8 -25 -5 -21 -3 -25
15 -25 12 0 22 6 22 13 1 6 2 17 4 22 1 6 3 18 3 28 1 9 7 16 13 15 18 -4 34
63 18 73 -7 4 -17 5 -21 3 -4 -3 -8 2 -8 10 0 25 36 18 48 -9z m-1692 -48 c4
-3 -1 -20 -9 -36 -9 -17 -11 -31 -6 -31 6 0 6 -8 -1 -19 -5 -11 -10 -21 -10
-23 0 -2 40 -2 89 0 82 3 89 5 101 28 10 18 22 24 48 24 30 0 39 -13 11 -16
-5 -1 -13 -2 -19 -3 -5 0 -10 -8 -10 -16 0 -11 11 -15 40 -15 22 0 40 5 40 10
0 22 33 8 71 -28 21 -22 39 -42 39 -45 0 -4 -13 -13 -30 -22 -23 -12 -67 -15
-210 -15 -143 0 -187 3 -210 15 -36 19 -37 28 -6 45 14 7 22 18 20 25 -3 7 -1
16 5 20 12 7 15 58 4 69 -4 3 -7 15 -8 25 -1 14 4 18 22 16 13 -1 26 -5 29 -8z
m-415 -46 c7 11 9 10 9 -3 0 -13 -8 -18 -30 -18 -33 0 -37 -13 -18 -55 10 -22
17 -25 68 -25 l57 0 7 39 c6 37 36 66 44 42 2 -6 12 -11 23 -11 12 0 23 -10
29 -25 5 -14 17 -25 25 -25 12 0 15 -8 13 -27 l-3 -28 -134 -3 c-151 -3 -166
2 -157 53 5 22 2 36 -9 45 -16 14 -21 45 -5 35 6 -3 10 -2 10 4 0 6 11 6 31
-1 25 -8 33 -8 40 3z m-1251 -141 c0 -7 13 -8 35 -4 60 11 65 0 65 -155 0 -93
-4 -141 -12 -149 -15 -15 -274 -17 -283 -2 -3 6 -1 10 4 10 6 0 11 6 11 13 0
9 12 11 40 9 l40 -4 0 39 c0 21 -4 43 -9 49 -15 15 -18 59 -4 57 7 -2 10 3 7
11 -8 20 12 29 35 16 25 -13 38 5 14 19 -16 9 -16 10 4 11 12 0 29 10 38 22
14 21 14 24 -1 35 -9 6 -13 16 -9 22 8 14 25 14 25 1z m-1804 -359 c49 3 91 5
93 3 2 -2 0 -11 -3 -21 -6 -14 -9 -15 -15 -4 -7 10 -10 10 -16 1 -4 -7 -2 -15
4 -19 23 -15 2 -38 -31 -33 -29 4 -31 3 -24 -19 18 -62 17 -66 -9 -61 -27 5
-46 -21 -27 -40 15 -15 4 -38 -18 -38 -11 0 -20 -10 -24 -26 -4 -15 -9 -25
-11 -23 -2 2 3 29 11 59 26 102 14 170 -22 123 -12 -16 -13 -15 -14 15 0 19 5
32 13 32 7 1 5 6 -5 14 -10 7 -18 23 -18 35 0 19 2 20 13 9 11 -10 35 -12 103
-7z m-300 -158 c9 -3 25 -1 35 6 17 10 19 8 19 -14 0 -14 -4 -25 -10 -25 -5 0
-10 -11 -10 -25 0 -29 16 -34 23 -7 3 9 5 0 6 -21 0 -22 -3 -36 -8 -32 -14 8
-29 -24 -23 -47 3 -13 11 -18 23 -15 15 4 19 -4 25 -49 7 -63 1 -84 -26 -91
-27 -7 -26 -52 1 -84 12 -14 18 -31 15 -45 -3 -11 0 -29 7 -38 10 -14 18 -15
40 -7 22 9 28 7 37 -9 8 -16 21 -20 58 -20 55 0 72 -12 72 -53 l0 -29 107 4
c96 3 108 1 111 -15 5 -25 -18 -30 -84 -18 -65 12 -82 5 -65 -28 11 -20 10
-21 -26 -17 -21 2 -46 7 -56 11 -10 4 -20 5 -23 2 -11 -10 7 -27 29 -27 22 -1
22 -1 3 -15 -23 -17 -40 -20 -31 -5 12 19 -14 10 -34 -11 -11 -12 -26 -19 -35
-16 -9 3 -18 2 -21 -3 -4 -6 -10 -10 -14 -10 -9 0 -9 0 -17 88 l-6 62 -67 0
c-39 0 -72 5 -79 12 -8 8 -12 67 -12 199 0 202 1 199 -55 199 -18 0 -22 4 -18
20 4 16 2 19 -11 14 -15 -6 -15 -3 -5 20 7 15 18 25 25 22 6 -2 18 8 25 22 7
15 21 38 31 51 22 29 24 55 3 48 -12 -5 -12 -2 -3 19 12 25 12 25 20 5 4 -12
15 -24 24 -28z m1357 -272 c-4 -15 1 -20 19 -23 21 -3 23 -9 26 -61 4 -80 -5
-90 -87 -85 l-66 3 -3 -309 c-1 -208 -6 -314 -13 -323 -18 -20 -921 -19 -939
2 -8 10 -11 49 -10 122 3 131 3 130 -12 115 -7 -7 -26 -11 -43 -11 -27 2 -27
2 -5 6 14 3 30 9 36 14 6 5 24 10 40 12 17 2 35 7 42 11 8 5 12 -2 12 -23 0
-42 9 -61 31 -61 14 0 19 7 19 30 0 24 6 33 26 41 26 9 26 10 9 29 -17 19 -17
19 16 14 122 -21 143 -16 157 39 4 17 19 39 34 50 21 16 29 17 48 7 28 -15 50
-6 50 19 0 11 5 23 12 27 7 4 8 3 4 -4 -4 -7 -3 -12 3 -12 5 0 13 5 16 10 4 6
11 8 16 5 5 -3 6 1 3 10 -5 13 -2 15 21 9 24 -6 27 -4 22 10 -4 10 -1 16 8 16
8 0 15 -7 15 -16 0 -23 24 -11 28 13 2 14 11 21 28 21 30 0 55 19 47 38 -3 8
-1 14 3 14 15 -1 44 -26 44 -39 0 -6 15 -11 33 -11 28 0 36 5 50 35 18 38 14
65 -10 65 -12 0 -13 3 -3 15 9 11 16 12 30 2 23 -14 37 -3 21 17 -19 23 26 36
69 19 30 -11 60 -11 60 0 0 7 14 25 30 41 26 26 36 51 31 80 -1 6 26 34 36 36
0 0 -1 -9 -4 -19z m-1028 -1477 c13 -7 21 -24 23 -45 2 -19 8 -38 13 -43 14
-15 11 -36 -7 -36 -24 0 -47 -28 -41 -50 3 -14 -3 -27 -20 -40 -17 -13 -24
-26 -20 -40 7 -26 -21 -50 -34 -29 -8 12 -10 12 -20 -1 -9 -12 -10 -11 -4 5
15 43 17 104 4 134 -8 17 -17 31 -21 31 -5 0 -8 9 -8 20 0 11 5 20 10 20 6 0
10 7 10 16 0 10 -6 14 -15 10 -8 -3 -15 -1 -15 4 0 6 6 10 14 10 7 0 16 9 19
20 3 13 10 18 21 14 9 -3 16 -1 16 6 0 7 5 6 15 -4 20 -19 19 -28 -2 -24 -10
2 -19 -4 -21 -14 -3 -15 4 -18 37 -18 35 0 41 3 41 20 0 11 -7 23 -15 26 -8 4
-15 14 -15 23 0 9 3 12 8 6 4 -5 16 -15 27 -21z m-267 -3 c11 -7 11 -9 -2 -14
-10 -4 -16 -19 -16 -42 0 -38 15 -45 36 -17 12 15 13 14 14 -15 0 -17 -4 -33
-10 -35 -5 -1 -9 -19 -10 -38 0 -19 0 -50 0 -67 0 -30 8 -38 33 -34 5 1 7 -9
5 -21 -2 -15 -9 -21 -18 -18 -8 2 -40 4 -70 5 l-55 0 -1 -90 c-1 -51 -6 -91
-12 -93 -6 -2 -12 5 -14 15 -3 16 -5 16 -23 -5 -18 -20 -20 -21 -27 -5 -5 12
-7 6 -5 -17 1 -27 -2 -35 -17 -38 -10 -2 -22 2 -27 10 -11 16 -12 145 -1 151
4 3 7 84 7 181 0 132 3 176 12 176 9 0 11 -10 6 -31 -6 -29 -5 -31 15 -20 31
17 60 13 74 -9 7 -11 21 -20 30 -20 14 0 18 8 18 40 0 27 6 42 18 49 21 13 24
13 40 2z m681 -174 c20 -22 21 -32 19 -142 -3 -99 -6 -120 -20 -129 -31 -19
-53 4 -56 63 -2 34 -7 51 -16 51 -22 0 -27 28 -6 35 26 8 33 34 15 61 -19 30
-19 31 5 37 12 3 20 14 20 26 0 27 11 27 39 -2z"/>
<path d="M9864 7995 c-4 -8 -12 -15 -20 -15 -9 0 -14 -12 -14 -35 0 -19 4 -35
9 -35 5 0 11 -22 13 -49 1 -27 0 -47 -4 -45 -4 2 -9 0 -12 -5 -7 -11 20 -41
37 -42 7 0 19 -2 27 -5 8 -2 31 -8 50 -13 31 -8 26 -9 -37 -10 -43 -1 -73 3
-73 9 0 6 -5 10 -11 10 -5 0 -7 -4 -4 -10 3 -5 2 -10 -4 -10 -5 0 -18 -3 -28
-7 -10 -3 -15 -3 -11 2 9 9 -9 35 -23 35 -5 0 -9 -8 -9 -19 0 -10 -9 -21 -20
-24 -11 -3 -20 -12 -20 -21 0 -9 -8 -16 -20 -16 -22 0 -28 -26 -7 -33 10 -3
10 -9 0 -26 -9 -15 -13 -79 -13 -222 0 -208 4 -229 44 -229 8 0 17 -4 21 -10
3 -5 13 -6 23 -3 38 13 42 32 42 215 0 112 4 178 10 178 6 0 10 -74 10 -202 0
-112 -4 -198 -8 -191 -4 7 -13 9 -21 4 -10 -6 -12 -20 -7 -47 4 -22 7 -50 6
-64 -8 -176 -10 -329 -5 -348 4 -15 11 -22 19 -19 8 3 16 -3 19 -15 5 -16 3
-18 -6 -9 -19 19 -37 12 -37 -14 0 -14 5 -25 10 -25 6 0 10 -6 10 -14 0 -20
27 -28 67 -20 21 4 44 2 58 -6 20 -11 28 -9 54 9 29 21 30 21 40 2 20 -37 42
-51 81 -51 41 0 70 20 70 48 0 26 -13 40 -40 43 -18 3 -24 9 -22 24 1 11 5 57
9 103 5 76 8 85 32 100 37 23 41 31 41 82 0 25 -4 50 -8 56 -7 11 -45 34 -56
34 -3 0 -7 -30 -9 -67 -2 -38 -3 -10 -3 62 l1 129 45 3 c25 1 37 -1 28 -3 -24
-7 -23 -41 2 -49 10 -3 28 -1 40 5 19 10 20 20 20 226 0 182 -2 216 -15 220
-10 4 -15 20 -15 48 0 29 3 37 10 26 7 -11 12 -12 21 -3 15 15 3 47 -15 40 -8
-3 -17 0 -20 8 -3 9 3 15 16 17 35 5 32 26 -7 43 -37 15 -100 11 -74 -6 7 -4
-7 -5 -32 -2 -53 7 -57 10 -37 26 14 11 24 39 31 87 1 8 -4 14 -10 13 -22 -5
-14 29 8 34 15 4 19 12 17 32 -3 28 -35 42 -49 20 -10 -17 -42 8 -35 28 3 7
-1 13 -8 13 -8 0 -16 6 -19 13 -3 10 -9 10 -26 0 -25 -15 -61 -17 -61 -3 0 16
-60 12 -66 -5z"/>
<path d="M10955 7680 c-3 -5 -16 -8 -29 -4 -17 4 -25 -1 -36 -23 -8 -15 -16
-32 -19 -37 -2 -5 4 -6 13 -3 14 6 16 3 9 -16 -4 -12 -8 -47 -8 -77 0 -61 -7
-77 -39 -90 -19 -8 -18 -9 9 -10 29 -2 29 -2 5 -9 -14 -4 -42 -6 -63 -3 -29 4
-38 1 -37 -9 4 -24 -1 -55 -7 -41 -7 18 -30 15 -37 -5 -4 -9 -6 -133 -5 -275
1 -289 1 -288 70 -288 28 0 42 5 46 17 3 9 7 106 7 216 1 151 4 201 14 204 9
4 12 -86 12 -426 0 -309 -3 -431 -11 -431 -7 0 -9 -10 -4 -27 4 -16 8 -35 9
-43 2 -9 14 -15 30 -15 25 -1 26 0 10 12 -16 12 -14 13 14 7 20 -4 38 -2 47 6
8 7 15 9 16 4 0 -5 5 2 10 16 6 15 10 130 9 278 0 167 3 252 10 252 7 0 10
-88 10 -258 0 -246 1 -260 20 -277 23 -20 26 -36 8 -32 -7 1 -14 -10 -16 -24
-4 -36 44 -57 88 -39 34 14 40 39 10 47 -11 3 -20 9 -20 13 0 12 36 41 43 34
8 -8 8 -4 14 266 2 141 8 239 15 247 8 10 15 10 37 -1 27 -14 51 -11 51 5 0 6
-5 7 -11 3 -8 -5 -8 -1 0 14 7 13 11 101 11 246 0 170 3 225 13 229 18 6 -6
32 -43 47 -18 8 -30 20 -30 31 0 14 -7 19 -30 19 -16 0 -39 9 -49 19 -17 17
-18 24 -7 54 6 19 17 41 24 50 25 29 -27 99 -77 102 -9 1 -31 2 -48 3 -19 1
-32 7 -30 13 3 15 -19 23 -28 9z"/>
<path d="M8820 7316 c0 -8 7 -17 16 -20 13 -5 13 -9 -3 -30 -10 -13 -24 -21
-30 -19 -16 6 -17 -23 -3 -32 8 -5 8 -11 0 -20 -8 -9 -8 -15 0 -20 5 -3 10
-17 10 -30 0 -17 4 -23 15 -19 9 4 19 -3 26 -20 7 -14 19 -27 28 -30 9 -3 -24
-4 -74 -3 -66 1 -93 6 -102 17 -10 12 -14 13 -25 2 -11 -11 -9 -16 9 -30 20
-15 21 -19 7 -37 -12 -17 -15 -63 -13 -282 1 -253 2 -263 21 -263 10 0 16 5
13 10 -3 6 -2 10 4 10 5 0 17 3 26 6 9 4 15 3 14 -2 -1 -5 1 -17 6 -27 4 -9 4
-32 0 -50 -14 -60 -17 -367 -4 -383 10 -12 14 -12 20 -2 6 8 9 -1 9 -24 0 -39
19 -58 57 -58 10 0 30 -13 45 -30 33 -38 45 -38 66 0 10 17 25 30 37 30 11 0
36 4 55 10 l35 10 -3 455 c-2 327 1 455 8 455 8 0 11 -57 8 -193 -2 -125 1
-194 7 -194 6 0 19 -1 30 -2 l20 -2 -20 -9 c-16 -7 -17 -9 -3 -9 9 -1 20 -10
23 -21 4 -11 15 -20 26 -20 16 0 20 6 18 28 -2 15 0 33 5 40 4 7 3 19 -3 26
-8 9 -11 92 -11 260 1 135 -2 251 -5 257 -4 6 -16 9 -26 6 -11 -3 -16 -1 -13
5 3 5 0 9 -7 7 -8 -1 -36 0 -64 1 -38 1 -44 4 -25 9 35 10 38 37 4 45 -20 5
-24 10 -15 19 14 14 14 74 1 113 -18 52 -108 82 -161 54 -15 -9 -21 -7 -25 5
-8 19 -34 20 -34 1z"/>
<path d="M7987 7123 c-4 -3 -7 -15 -7 -25 0 -10 -7 -19 -15 -19 -8 -1 -21 -2
-27 -3 -8 -1 -12 -12 -10 -26 1 -14 -1 -20 -5 -15 -10 14 -53 17 -53 4 0 -5 4
-9 9 -9 4 0 4 -24 0 -52 -5 -32 -5 -56 1 -62 7 -7 10 0 10 19 0 32 17 24 23
-10 3 -25 37 -65 54 -65 7 0 13 -5 13 -11 0 -8 -21 -10 -65 -7 -36 2 -65 0
-65 -5 0 -4 -10 -5 -21 -2 -14 5 -19 3 -15 -3 3 -6 -6 -21 -21 -34 l-28 -23 2
-237 c1 -148 -1 -238 -7 -238 -17 0 -11 -36 9 -54 26 -24 53 -17 69 17 7 15
20 27 28 27 12 0 14 -40 14 -264 0 -262 0 -265 23 -292 23 -26 23 -27 58 -9
19 10 37 23 41 29 4 6 8 129 8 274 0 226 2 262 15 262 13 0 15 -34 13 -257
l-2 -258 -6 255 -6 255 -2 -268 c-1 -177 1 -266 8 -262 6 3 10 1 10 -5 0 -6 3
-9 8 -6 4 2 16 -2 27 -11 19 -14 19 -14 -7 -8 -32 8 -39 -13 -12 -39 30 -31
114 -12 114 25 0 5 -10 13 -22 18 l-23 8 23 7 22 7 0 267 0 266 21 -26 c17
-21 26 -25 40 -18 10 6 28 9 41 7 17 -1 22 2 18 13 -2 8 -6 118 -8 244 -2 162
0 237 9 258 10 24 9 31 -5 47 -9 9 -16 23 -16 29 0 15 -26 16 -35 2 -7 -12
-45 -14 -45 -2 0 5 -28 7 -62 6 -42 -2 -53 -1 -33 4 20 5 30 14 31 27 4 52 4
51 18 33 16 -22 26 -23 26 -3 0 9 -7 18 -15 21 -15 6 -11 58 7 81 13 17 0 73
-17 73 -8 0 -18 -8 -24 -17 -9 -17 -10 -17 -17 0 -4 10 -7 28 -8 40 -1 15 -9
23 -23 25 -27 4 -30 -13 -6 -27 24 -13 14 -20 -19 -14 -14 3 -28 13 -31 24 -5
19 -18 25 -30 12z"/>
<path d="M9631 6291 c-8 -5 -11 -16 -8 -24 4 -10 -3 -21 -18 -31 -22 -14 -25
-14 -39 0 -9 8 -16 12 -16 7 0 -5 5 -14 10 -19 8 -8 7 -26 -2 -59 -12 -46 -13
-47 -19 -19 -6 28 -7 28 -8 -7 0 -21 5 -42 13 -49 8 -6 13 -17 10 -25 -3 -7
-1 -16 4 -19 6 -3 8 -15 5 -26 -4 -15 -14 -20 -40 -20 -19 0 -43 -5 -54 -10
-15 -8 -19 -7 -19 5 0 8 -5 15 -11 15 -7 0 -9 -10 -5 -24 6 -25 -9 -47 -16
-24 -3 7 -7 5 -11 -6 -4 -10 -3 -15 3 -11 7 4 10 -81 10 -242 0 -244 0 -249
22 -267 14 -13 23 -15 26 -8 2 7 13 10 28 6 15 -4 24 -2 24 5 0 6 -4 11 -10
11 -6 0 -10 63 -10 169 0 141 2 170 15 175 13 5 15 -46 13 -427 -2 -298 -4
-376 -8 -253 -5 187 -12 212 -45 163 -14 -21 -15 -46 -10 -168 8 -183 9 -189
40 -189 16 0 25 -6 25 -15 0 -10 7 -14 23 -12 12 2 17 2 10 0 -17 -6 -21 -25
-11 -60 14 -55 76 -56 98 -3 14 34 6 65 -14 57 -25 -10 -25 3 0 28 15 15 30
21 44 18 22 -6 28 -23 8 -23 -7 -1 2 -7 21 -16 26 -11 36 -12 42 -3 4 7 17 9
32 5 23 -5 25 -3 31 41 3 25 6 232 6 459 0 269 3 414 10 414 6 0 10 -63 10
-169 0 -93 3 -176 6 -185 8 -20 53 -21 80 -2 17 13 19 30 22 195 3 109 0 186
-6 194 -16 20 -7 86 14 102 15 11 16 16 7 26 -10 10 -15 10 -27 0 -12 -10 -16
-9 -24 6 -6 9 -19 18 -29 19 -10 0 -41 1 -70 2 -51 2 -52 2 -50 32 1 19 7 28
14 26 7 -3 22 8 33 24 l21 30 -20 0 c-17 0 -21 6 -21 30 0 40 -18 75 -45 90
-20 11 -22 16 -12 31 6 10 8 21 5 25 -12 11 -40 -5 -35 -20 4 -10 0 -12 -14
-9 -11 3 -17 8 -14 11 5 6 -14 32 -24 32 -3 0 -12 -4 -20 -9z"/>
<path d="M10585 6090 c-3 -5 -2 -18 4 -27 11 -21 -7 -52 -26 -46 -7 3 -13 -2
-13 -11 0 -20 17 -30 23 -14 3 7 6 -4 6 -24 1 -28 -3 -38 -14 -38 -34 0 -10
-44 25 -45 24 0 25 -36 1 -42 -11 -3 -18 -9 -15 -14 3 -5 -12 -9 -33 -8 -30 0
-34 2 -18 9 18 8 18 9 2 9 -10 1 -33 -14 -51 -33 l-34 -33 -1 -242 c-1 -133
-4 -248 -7 -255 -7 -19 14 -30 51 -29 16 1 24 -1 18 -3 -17 -8 -16 -25 4 -65
14 -26 19 -72 24 -204 4 -93 4 18 2 248 -4 300 -2 417 6 417 8 0 11 -125 11
-436 0 -396 2 -439 17 -465 22 -37 57 -47 82 -25 10 9 20 14 23 11 3 -3 8 13
12 35 4 25 11 38 17 35 5 -4 9 -14 7 -23 -2 -9 14 -32 34 -50 l37 -34 31 18
c28 17 45 44 18 28 -10 -6 -10 -4 0 7 6 7 12 21 12 31 0 10 4 18 10 18 6 0 11
87 12 228 3 223 3 227 24 228 12 1 28 5 35 9 11 6 12 5 2 -6 -7 -7 -13 -25
-13 -40 0 -51 51 -77 84 -43 23 22 20 48 -9 83 -26 30 -26 30 -29 265 l-4 235
29 25 c33 30 35 38 14 60 -33 32 -151 35 -149 4 2 -16 -7 -18 -65 -17 -36 1
-56 4 -43 6 12 2 20 8 17 13 -3 5 8 11 24 15 17 3 33 15 36 25 3 9 18 20 33
24 44 9 55 21 48 50 -7 28 -13 35 -68 70 -30 20 -36 21 -31 8 4 -13 3 -14 -5
-3 -5 7 -16 18 -23 23 -11 8 -10 9 3 5 21 -7 45 20 31 34 -8 8 -18 7 -34 -2
-33 -17 -107 -19 -113 -2 -6 15 -62 18 -71 3z"/>
<path d="M8192 6058 c-16 -16 -17 -234 -1 -244 6 -3 9 -19 5 -35 -5 -24 -2
-29 14 -29 32 0 40 33 40 164 0 100 -3 128 -16 140 -19 19 -26 20 -42 4z"/>
<path d="M8533 5722 c-13 -2 -23 -8 -23 -13 0 -5 -6 -9 -14 -9 -19 0 -27 -25
-13 -39 7 -7 7 -11 0 -11 -13 0 -14 -111 -1 -127 5 -6 15 -10 23 -7 9 4 12 -3
11 -20 -1 -22 -6 -25 -48 -28 -38 -2 -48 0 -52 15 -6 23 -18 21 -46 -8 -21
-22 -22 -25 -5 -25 17 0 17 -1 -1 -21 -17 -19 -20 -43 -24 -248 l-6 -226 -3
225 c-5 250 -17 202 -20 -73 -1 -136 1 -151 20 -178 11 -16 27 -29 35 -29 14
0 14 -2 0 -15 -13 -13 -13 -45 0 -45 2 0 17 15 33 32 16 18 32 30 35 27 4 -3
7 -115 8 -248 0 -162 4 -241 11 -241 7 0 7 -4 -1 -12 -18 -18 -15 -26 11 -27
12 0 50 -4 85 -9 50 -6 62 -5 62 6 0 10 6 12 23 7 12 -4 36 -7 52 -7 17 1 42
1 58 1 31 1 35 15 10 30 -16 9 -16 12 -3 21 11 7 16 5 18 -5 5 -20 28 -19 36
1 8 20 8 328 0 348 -3 9 -15 16 -25 16 -17 0 -19 8 -18 88 0 72 2 83 11 62 11
-25 14 -34 17 -47 1 -5 6 -1 11 7 9 13 11 13 19 0 6 -8 14 -11 18 -6 8 7 9 11
12 39 1 8 4 7 11 -3 20 -32 25 13 22 220 -2 126 -6 209 -11 201 -6 -10 -9 -3
-8 21 1 28 4 34 17 31 21 -6 50 22 50 47 0 10 -7 25 -15 33 -19 19 -70 31 -87
20 -7 -4 -21 -6 -30 -5 -10 2 -18 -2 -18 -7 0 -7 -25 -11 -62 -11 -34 0 -58 3
-54 8 4 4 17 7 29 7 16 0 23 8 29 35 8 38 1 104 -14 133 -5 11 -5 17 2 17 5 0
10 7 10 15 0 12 -4 14 -17 7 -12 -7 -22 -5 -36 8 -18 18 -87 29 -134 22z"/>
<path d="M9550 4081 c0 -6 6 -14 13 -17 8 -3 11 -17 9 -41 -3 -27 0 -40 14
-50 15 -11 15 -13 2 -13 -9 0 -19 6 -21 13 -4 7 -8 3 -12 -10 -4 -13 -13 -23
-20 -23 -8 0 -17 -9 -20 -20 -4 -11 -15 -20 -27 -20 -14 0 -18 -5 -14 -15 7
-18 2 -19 -25 -2 -17 10 -22 9 -32 -3 -7 -8 -25 -23 -40 -33 -15 -10 -25 -22
-22 -27 3 -5 -8 -24 -24 -42 -17 -18 -31 -27 -31 -20 0 7 -4 11 -9 8 -5 -3 -7
-14 -4 -25 3 -14 -2 -20 -26 -24 -30 -6 -43 -31 -20 -39 7 -2 7 -12 -2 -31
-13 -29 -29 -36 -29 -12 0 30 -20 14 -21 -17 -2 -41 -2 -38 7 -73 7 -27 6 -29
-9 -17 -18 15 -37 8 -37 -13 0 -17 27 -27 34 -12 4 7 4 -7 1 -30 -6 -51 11
-175 31 -220 16 -36 18 -55 4 -33 -8 13 -10 12 -10 -3 0 -10 11 -22 26 -28 26
-9 26 -10 8 -24 -19 -14 -19 -15 2 -32 12 -10 24 -26 28 -37 5 -14 12 -17 31
-12 29 7 29 7 11 -29 -10 -19 -12 -36 -5 -58 5 -18 9 -33 9 -34 0 -2 9 -3 19
-3 17 0 38 33 33 52 -1 3 5 8 12 11 8 3 13 -1 12 -11 0 -9 5 -16 12 -15 6 2
12 -1 12 -6 0 -14 59 -41 66 -30 3 5 0 9 -7 9 -7 0 -10 3 -7 6 4 3 17 0 30 -8
12 -7 30 -13 38 -14 8 -1 29 -2 45 -3 l30 -2 -27 -15 c-59 -32 -8 -90 52 -59
26 14 33 13 64 -1 29 -14 39 -15 65 -4 31 12 42 42 21 55 -13 8 6 35 25 35 6
0 34 11 61 25 57 29 61 30 44 10 -7 -8 -20 -15 -29 -16 -36 -2 68 -28 116 -28
62 -1 83 16 83 67 0 43 -6 55 -38 71 -23 12 -23 13 -6 32 13 15 19 17 26 7 5
-9 8 -3 8 15 0 15 7 30 15 33 8 4 15 14 15 25 0 28 22 69 33 62 6 -4 8 2 5 14
-4 14 -1 20 10 19 17 -1 22 13 42 102 16 71 7 106 -25 99 -19 -3 -25 0 -25 14
0 9 -3 26 -6 36 -5 15 -4 15 5 3 9 -13 11 -13 11 1 0 9 -7 19 -15 23 -8 3 -15
11 -15 18 0 9 3 8 10 -2 8 -13 10 -13 10 1 0 9 -12 29 -26 44 -20 22 -23 30
-12 37 10 7 9 8 -4 4 -20 -6 -38 20 -30 43 2 7 -2 17 -9 23 -11 7 -9 12 9 25
22 15 22 17 5 35 -15 17 -15 21 -3 28 9 6 10 10 3 10 -6 0 -15 -5 -18 -10 -9
-15 -25 -2 -25 21 0 13 -7 19 -23 19 -15 0 -29 9 -37 25 -7 14 -19 25 -25 25
-16 0 -57 -45 -48 -53 9 -9 -7 -8 -32 3 -11 5 -14 9 -7 9 24 2 12 29 -18 40
-16 5 -30 16 -30 24 0 8 -11 19 -25 25 -27 12 -35 57 -12 65 9 3 9 7 0 17 -8
9 -43 13 -105 13 -81 0 -86 0 -38 7 43 5 47 7 20 8 -19 1 -52 5 -72 8 -26 5
-38 3 -38 -5z m148 -482 l3 -155 -24 -11 c-14 -7 -28 -9 -31 -6 -3 4 -6 74 -6
158 0 154 6 179 40 173 12 -3 16 -29 18 -159z"/>
<path d="M1933 8510 c-5 -19 -14 -20 -129 -20 l-124 0 0 -30 0 -30 140 0 c130
0 140 1 140 19 0 10 3 33 6 50 5 25 3 31 -11 31 -9 0 -19 -9 -22 -20z"/>
<path d="M1803 8363 c-128 -3 -153 -10 -115 -32 9 -6 11 -11 5 -11 -14 0 -18
-40 -4 -40 5 0 11 -10 14 -22 3 -13 8 -33 12 -44 5 -16 -1 -29 -22 -48 -25
-25 -26 -28 -10 -37 9 -5 17 -15 17 -20 0 -6 -4 -8 -9 -5 -5 3 -14 -1 -21 -9
-10 -12 -9 -15 4 -15 19 0 20 -11 6 -62 -6 -21 -16 -37 -23 -35 -8 1 -12 -16
-13 -53 -2 -88 -35 -140 -77 -124 -12 4 -15 -3 -15 -32 0 -29 7 -44 30 -66 39
-36 58 -36 58 1 0 61 62 60 74 -1 7 -37 46 -40 46 -4 0 13 3 31 6 40 4 11 -2
19 -17 25 -18 7 1 9 66 8 81 -1 83 -1 22 -4 l-69 -4 24 -23 c12 -12 33 -34 45
-49 33 -40 68 -35 92 11 8 16 18 21 28 17 16 -6 33 10 33 32 0 6 -10 14 -22
16 -16 3 -11 5 15 7 20 1 42 3 49 4 6 0 24 26 40 56 25 48 26 56 13 66 -18 13
-20 41 -3 46 7 3 8 10 4 17 -7 10 -14 6 -32 -14 -23 -27 -24 -27 -24 -7 0 14
-6 22 -16 22 -13 0 -15 -9 -13 -44 2 -24 2 -43 0 -41 -8 8 -41 -16 -41 -30 0
-14 -10 -18 -69 -30 -21 -5 -31 -4 -27 3 3 5 -9 15 -27 22 -17 7 -44 25 -59
38 -28 26 -38 54 -17 50 6 -2 16 5 22 15 10 14 9 20 -3 27 -13 8 -12 11 5 24
11 9 14 16 8 16 -16 0 -17 30 -2 30 6 0 9 7 6 14 -4 9 2 17 14 21 24 8 43 41
29 50 -15 9 -12 25 4 25 14 0 16 23 3 36 -10 11 -8 47 4 84 10 27 13 30 21 16
5 -9 18 -16 30 -16 16 0 19 5 16 25 -5 23 2 30 25 26 4 0 7 8 7 19 0 11 -3 19
-7 18 -5 -1 -68 -4 -140 -5z"/>
<path d="M3035 8290 c-8 -14 3 -30 21 -30 18 0 18 -8 0 -26 -10 -10 -16 -10
-18 -2 -6 18 -32 4 -48 -27 -13 -24 -13 -28 1 -39 22 -16 31 -115 13 -141 -18
-24 -18 -35 0 -35 7 0 19 -7 26 -15 17 -21 41 -20 33 2 -4 11 -3 14 5 9 7 -4
12 -14 12 -22 0 -15 12 -19 24 -7 4 4 23 8 42 8 28 0 34 -4 34 -21 0 -28 28
-37 107 -34 50 1 64 -2 69 -14 3 -9 14 -16 24 -16 14 0 20 9 22 33 2 20 8 32
18 32 9 0 14 -8 12 -21 -4 -27 20 -47 50 -42 17 2 24 11 26 32 2 18 11 30 23
33 10 3 17 9 14 13 -3 4 18 10 45 14 47 6 50 8 56 42 10 54 -1 119 -26 151
-26 34 -41 40 -86 35 -30 -4 -34 -7 -28 -25 6 -20 6 -20 -10 -4 -24 23 -34 21
-48 -8 -15 -33 -30 -32 -51 5 -10 17 -26 30 -35 30 -15 0 -15 -2 -2 -10 11 -7
5 -10 -23 -10 -23 0 -36 4 -32 10 3 6 0 10 -7 10 -7 0 -23 3 -34 6 -24 6 -43
-24 -22 -37 9 -6 9 -11 0 -22 -13 -15 -6 -77 8 -77 5 0 6 -8 3 -19 -3 -12 -11
-17 -22 -14 -12 3 -20 -2 -24 -16 -4 -16 -13 -21 -41 -21 -25 0 -36 4 -36 15
0 8 -9 15 -20 15 -11 0 -20 4 -20 9 0 5 -10 12 -22 16 -19 6 -20 8 -6 12 14 4
16 12 12 51 -3 26 -7 53 -10 60 -2 9 6 8 32 -3 34 -14 36 -14 59 13 17 19 20
29 12 35 -8 6 -7 7 3 4 8 -2 15 -10 15 -18 0 -7 8 -15 18 -17 9 -2 17 1 17 7
0 6 -6 11 -12 11 -10 0 -9 3 1 9 7 5 10 14 7 20 -4 6 -2 11 3 11 6 0 11 -6 12
-12 0 -7 4 -4 8 7 10 26 -28 50 -45 29 -15 -19 -20 -18 -45 7 -22 22 -45 21
-43 -4 3 -27 -26 -29 -36 -2 -10 26 -24 32 -35 15z"/>
<path d="M4130 8270 c0 -6 6 -13 14 -16 38 -14 22 -74 -19 -74 -13 0 -26 6
-29 13 -5 10 -7 10 -12 0 -3 -7 -12 -13 -20 -13 -9 0 -12 5 -9 10 3 6 1 10 -4
10 -6 0 -11 -4 -11 -10 0 -5 -9 -10 -21 -10 -11 0 -17 5 -14 10 3 6 2 10 -4
10 -5 0 -11 -6 -14 -12 -3 -10 -9 -10 -26 0 -11 6 -27 12 -35 12 -8 0 -17 -6
-20 -12 -3 -10 -8 -9 -15 3 -11 17 -56 15 -67 -2 -8 -14 -34 -11 -31 4 1 6 -4
12 -10 11 -7 -1 -28 -2 -45 -3 -23 -1 -29 -4 -19 -10 11 -7 10 -10 -5 -15 -11
-4 -28 -18 -38 -33 -15 -20 -17 -30 -8 -44 8 -13 8 -19 -1 -22 -9 -4 -9 -6 1
-6 8 -1 10 -9 7 -23 -3 -13 -2 -36 3 -53 l8 -30 75 1 c45 1 77 -3 81 -10 5 -8
10 -8 19 1 6 6 18 9 25 6 8 -3 20 0 27 5 8 7 18 7 27 2 13 -8 12 -10 -2 -10
-11 0 -18 -8 -18 -19 0 -19 18 -31 49 -31 9 0 24 -9 34 -20 9 -11 26 -20 36
-20 24 0 51 26 51 48 0 24 -40 61 -59 55 -11 -3 -9 2 7 15 18 17 22 31 22 79
0 58 0 58 -31 59 -16 1 -36 7 -42 14 -10 10 -6 11 16 6 21 -5 27 -3 27 10 0
11 5 14 16 10 9 -3 18 -6 20 -6 2 0 4 -43 4 -95 0 -74 3 -95 14 -95 13 0 26
48 26 103 0 22 4 27 25 27 22 0 25 -4 25 -39 0 -21 3 -53 6 -70 6 -29 9 -32
38 -27 17 3 25 3 19 0 -7 -3 -13 -14 -13 -24 0 -19 25 -34 41 -24 5 3 21 -4
35 -15 15 -12 22 -21 15 -21 -17 0 -13 -37 5 -44 29 -11 72 -6 88 10 18 17 19
24 10 48 -7 19 -44 22 -44 4 0 -9 -3 -9 -12 0 -15 15 4 37 53 62 20 11 39 26
42 34 6 15 -12 41 -35 48 -17 6 0 28 22 28 28 0 33 17 20 66 -13 46 -34 58
-45 24 -6 -19 -45 -29 -45 -12 0 5 -11 14 -25 20 -14 6 -25 18 -25 27 0 10
-10 15 -30 15 -16 0 -30 -4 -30 -10 0 -5 -4 -10 -9 -10 -5 0 -7 10 -4 21 7 26
-19 49 -54 49 -13 0 -23 5 -23 10 0 6 -7 10 -15 10 -8 0 -15 -5 -15 -10z"/>
<path d="M2563 8151 c-10 -10 -27 -21 -38 -23 -11 -2 -20 -10 -20 -18 0 -8 -8
-14 -18 -14 -19 2 -23 -22 -4 -29 10 -4 10 -7 0 -18 -21 -21 -15 -37 19 -55
31 -16 32 -16 57 15 25 30 28 31 109 31 45 0 82 -4 82 -9 0 -25 34 -41 88 -41
77 0 87 8 75 56 l-9 39 -89 6 -90 5 77 2 c42 1 83 5 92 8 25 9 19 24 -9 24
-14 0 -25 -4 -25 -10 0 -6 -27 -10 -60 -10 -51 0 -61 3 -71 23 -17 32 -28 37
-91 37 -43 0 -62 -5 -75 -19z"/>
<path d="M3590 6640 c0 -6 -11 -10 -26 -8 -19 2 -36 -6 -59 -28 -30 -28 -32
-34 -26 -71 4 -22 11 -46 16 -53 5 -9 4 -11 -3 -6 -8 4 -12 0 -12 -11 0 -16
-6 -18 -35 -15 -26 3 -35 0 -35 -11 0 -8 -13 -20 -30 -27 -17 -7 -30 -20 -30
-30 0 -25 -32 -35 -46 -15 -11 15 -15 15 -44 -6 -27 -21 -29 -24 -13 -31 10
-3 12 -7 6 -7 -7 -1 -15 -12 -19 -26 -3 -14 -10 -22 -15 -19 -15 9 -22 -25
-10 -40 13 -16 5 -86 -10 -86 -5 0 -6 -7 -3 -15 4 -8 1 -22 -6 -30 -19 -23 -3
-34 48 -31 40 2 47 6 53 27 4 13 7 18 8 10 1 -9 9 -12 25 -9 23 5 24 3 19 -26
-3 -17 -10 -34 -15 -37 -5 -3 -6 -13 -3 -21 4 -9 -1 -28 -10 -42 -13 -19 -14
-29 -5 -46 16 -29 9 -55 -15 -55 -15 0 -20 -7 -20 -27 1 -23 -2 -25 -18 -16
-27 14 -41 -10 -23 -37 11 -17 11 -24 1 -38 -10 -14 -14 -15 -18 -5 -8 23 -28
-6 -29 -43 -1 -19 -3 -28 -5 -21 -3 6 -11 12 -19 12 -32 0 -18 -69 23 -109 19
-19 27 -30 17 -26 -45 18 -54 18 -54 -3 0 -40 26 -52 110 -52 108 0 114 7 107
122 -4 58 -2 87 5 85 6 -1 11 7 12 19 2 11 9 30 18 43 15 22 16 22 21 1 6 -23
27 -27 27 -5 0 8 -4 15 -8 15 -15 0 -9 34 10 59 10 13 18 29 18 35 0 6 7 19
14 29 12 15 18 17 36 7 16 -9 19 -15 10 -25 -8 -10 -8 -15 1 -20 6 -4 15 -2
19 5 12 19 25 -8 25 -50 0 -29 4 -36 23 -38 25 -4 28 -14 8 -32 -18 -14 -9
-43 10 -36 8 3 14 1 14 -4 0 -6 -4 -10 -10 -10 -5 0 -10 -7 -10 -16 0 -14 3
-14 15 -4 13 11 15 7 17 -21 1 -19 1 -46 0 -61 -2 -20 3 -28 14 -28 8 0 13 -4
10 -9 -4 -5 11 -7 33 -4 37 5 38 4 34 -21 -4 -20 -1 -26 12 -26 11 0 15 7 13
23 -2 14 4 26 17 32 11 6 22 21 23 35 2 13 13 32 23 41 25 22 24 31 -3 27 -16
-2 -25 -12 -29 -33 -4 -16 -7 -23 -8 -14 0 9 -4 32 -7 50 -4 22 -2 29 4 21 7
-10 11 -10 21 2 7 8 10 20 7 25 -4 6 -1 20 6 31 11 17 11 22 -2 31 -8 5 -26 8
-39 5 -22 -3 -23 -1 -17 33 4 25 2 31 -4 21 -8 -12 -10 -10 -11 10 -2 83 -12
110 -38 103 -12 -3 -18 -10 -14 -17 3 -6 -3 -3 -15 8 -12 10 -21 21 -20 25 1
3 -2 14 -6 24 -13 29 1 50 29 43 14 -4 25 -2 25 3 0 7 54 41 65 41 1 0 0 -11
-2 -24 -5 -26 29 -66 58 -66 24 0 46 57 31 81 -7 10 -12 29 -12 42 0 27 -43
72 -60 62 -6 -4 -25 9 -44 29 -18 20 -41 36 -51 36 -10 0 -15 3 -12 7 4 3 -1
12 -11 19 -11 8 -17 26 -17 56 0 36 -3 42 -18 40 -18 -3 -23 5 -31 50 -4 27
-4 27 38 22 l43 -5 0 40 c0 22 -4 38 -8 35 -5 -3 -9 7 -9 23 0 15 -10 46 -23
67 -22 39 -47 58 -47 36z"/>
<path d="M5511 6625 c-27 -29 -41 -125 -17 -125 15 0 54 -39 40 -41 -5 -1 2
-5 16 -9 l25 -8 -28 -1 c-15 -1 -42 -8 -58 -17 -31 -16 -56 -11 -29 6 8 5 12
12 9 15 -11 10 -34 -5 -45 -28 -5 -12 -15 -21 -22 -19 -7 1 -11 -3 -9 -10 1
-6 -16 -20 -37 -31 -35 -17 -40 -17 -48 -3 -5 9 -16 16 -23 16 -17 0 -20 -16
-5 -25 15 -9 2 -25 -21 -25 -24 0 -37 -29 -19 -40 11 -7 10 -26 -3 -106 -18
-106 -13 -129 23 -106 22 13 60 1 60 -18 0 -6 9 -10 20 -10 15 0 20 -7 20 -24
0 -36 -18 -78 -40 -93 -21 -15 -28 -53 -10 -53 22 0 8 -26 -20 -37 -26 -10
-30 -16 -28 -45 3 -28 0 -33 -17 -30 -15 2 -17 0 -6 -6 11 -8 10 -14 -4 -36
-10 -14 -23 -26 -29 -26 -7 0 -21 -6 -31 -14 -18 -13 -18 -14 3 -41 24 -30 22
-46 -2 -26 -17 14 -36 7 -36 -13 0 -7 16 -27 37 -45 36 -32 52 -30 53 7 0 23
50 13 62 -13 14 -32 25 -32 40 0 8 19 8 28 -3 41 -11 14 -10 18 6 31 11 7 21
19 21 26 1 7 2 18 3 25 0 6 8 12 17 12 10 0 14 6 10 15 -3 9 0 15 10 15 10 0
14 6 11 15 -4 8 -2 17 4 20 5 4 12 0 15 -9 9 -22 34 -7 34 20 0 13 5 25 10 25
71 9 89 40 44 73 -22 15 -28 16 -36 5 -8 -11 -8 -10 -4 4 3 10 6 34 6 53 0 29
3 34 24 34 28 0 111 -84 100 -102 -4 -6 -3 -8 3 -5 20 12 36 -23 36 -78 0 -30
4 -55 9 -55 4 0 6 -11 2 -25 -3 -14 -2 -25 4 -25 5 0 15 -27 22 -60 14 -64 32
-77 65 -44 8 9 22 13 30 10 9 -3 15 0 15 9 0 8 4 15 9 15 9 0 4 69 -9 133 -9
44 0 41 16 -6 10 -30 11 -29 12 22 1 52 -12 81 -37 81 -6 0 -11 8 -11 18 0 14
2 15 10 2 11 -17 11 -18 16 37 3 36 1 43 -18 49 l-22 7 22 17 c40 32 28 47
-42 55 -61 6 -91 25 -66 40 15 9 12 32 -4 38 -8 3 -29 2 -46 -3 l-32 -9 7 42
c15 100 16 103 31 82 8 -10 14 -31 14 -45 0 -35 6 -40 38 -31 36 10 56 3 42
-14 -8 -10 -8 -15 1 -21 7 -4 15 -2 17 4 7 23 30 12 35 -18 7 -33 39 -47 82
-36 23 6 25 10 20 52 -4 27 -1 51 5 59 8 9 8 15 0 20 -5 3 -10 2 -10 -4 0 -7
-8 -7 -25 1 -13 6 -23 14 -20 17 2 4 0 13 -6 21 -6 10 -9 11 -9 3 0 -26 -29
-12 -32 15 -3 25 -6 27 -43 24 -37 -2 -38 -1 -21 12 20 16 14 38 -8 30 -22 -9
-48 24 -36 46 14 27 12 32 -10 25 -18 -6 -20 -2 -18 35 1 27 -4 45 -13 51 -9
5 -10 9 -2 9 6 0 15 -4 18 -10 9 -15 25 -12 32 7 4 9 15 25 25 35 22 22 24 48
3 48 -8 0 -16 8 -17 18 -1 18 -2 21 -13 70 -7 29 -11 32 -39 29 -18 -2 -38 -7
-45 -11 -7 -5 -18 -3 -24 3 -17 17 -30 13 -56 -14z"/>
<path d="M4580 6630 c-54 -9 -98 -46 -92 -76 2 -13 -1 -31 -8 -39 -15 -18 -10
-25 17 -29 10 -2 17 -7 15 -11 -2 -5 9 -14 25 -21 l28 -12 -28 -1 c-15 -1 -46
-10 -67 -21 -22 -11 -54 -19 -72 -18 -24 2 -34 -2 -43 -20 -18 -34 -23 -36
-40 -18 -21 21 -59 4 -52 -24 3 -10 -4 -28 -14 -39 -10 -11 -16 -27 -13 -35 4
-9 1 -16 -6 -16 -8 0 -10 -9 -6 -27 4 -19 4 -23 -3 -14 -12 18 -27 7 -35 -24
-5 -18 0 -35 12 -53 32 -46 37 -56 22 -47 -8 5 -11 3 -8 -6 3 -8 17 -18 32
-24 34 -12 62 4 59 34 -2 12 1 20 6 17 4 -3 6 6 3 19 -4 22 -1 25 28 25 25 0
30 -3 26 -17 -3 -10 -8 -35 -12 -56 -4 -22 -10 -34 -14 -27 -8 13 -40 -30 -40
-53 0 -22 27 -41 33 -25 4 8 6 7 6 -4 1 -10 -3 -18 -7 -18 -4 0 -6 -15 -4 -34
2 -18 -1 -37 -7 -40 -6 -4 -11 -2 -11 3 0 6 -4 11 -10 11 -5 0 -10 -8 -10 -18
0 -10 -5 -23 -12 -30 -9 -9 -9 -12 0 -12 9 0 7 -10 -5 -32 -16 -31 -18 -31
-21 -10 -2 12 -8 22 -13 22 -6 0 -7 -15 -3 -37 5 -31 4 -36 -7 -25 -19 18 -26
15 -33 -15 -5 -17 -3 -29 6 -35 9 -7 8 -8 -4 -4 -24 7 -48 -3 -48 -20 0 -8 7
-14 15 -14 10 0 15 -10 15 -28 0 -19 11 -39 33 -59 17 -17 38 -38 45 -47 16
-20 36 -20 56 0 20 19 20 34 2 34 -27 0 -28 21 -2 61 27 40 40 51 30 24 -4 -8
-1 -15 5 -15 6 0 12 7 12 15 1 8 3 20 4 25 1 6 3 15 4 20 0 6 5 10 11 10 5 0
9 -5 7 -11 -5 -22 29 -33 62 -19 33 13 42 44 16 54 -8 3 -15 17 -15 31 0 28
-9 32 -29 13 -10 -11 -10 -8 -1 13 12 25 38 33 51 15 11 -14 49 4 49 25 0 10
-4 19 -10 19 -5 0 -10 7 -10 15 0 9 -7 18 -15 21 -11 5 -12 10 -2 26 9 16 9
22 0 25 -7 3 -13 10 -13 17 0 19 36 17 54 -3 15 -16 15 -19 1 -31 -8 -7 -15
-19 -15 -27 0 -12 3 -13 14 -4 11 10 17 8 25 -6 8 -14 13 -15 19 -5 12 17 35
-9 27 -30 -3 -8 1 -21 10 -28 12 -10 15 -10 16 1 1 8 5 -6 10 -30 5 -29 5 -49
-2 -57 -7 -9 -6 -15 4 -21 8 -4 18 -23 22 -40 5 -26 3 -33 -9 -33 -20 0 -21
-34 -1 -50 8 -7 21 -10 30 -7 11 5 13 0 8 -23 -5 -26 -2 -30 16 -30 23 0 30
35 9 43 -7 2 4 6 24 8 21 3 36 1 35 -5 -3 -14 33 -20 46 -7 11 11 -9 45 -22
37 -10 -7 -1 66 11 92 13 24 0 78 -18 75 -5 -1 -10 17 -10 39 -1 22 -7 43 -13
47 -6 4 -12 19 -13 33 -1 15 -6 25 -10 22 -13 -9 -28 34 -22 65 6 27 4 31 -15
31 -11 0 -21 -5 -21 -10 0 -19 -39 14 -45 38 -3 13 -11 22 -18 19 -6 -2 -20 7
-30 20 -17 21 -17 26 -3 54 8 16 13 38 10 47 -5 16 -4 16 9 0 8 -10 17 -15 20
-12 3 3 14 1 24 -5 10 -6 12 -11 6 -11 -22 0 -16 -58 7 -65 11 -3 24 -4 28 -1
5 3 19 -6 30 -19 20 -23 28 -25 116 -25 52 0 101 3 110 6 24 9 19 24 -6 24
-37 0 -99 20 -93 30 3 5 12 7 20 3 8 -3 15 0 15 6 0 6 -5 11 -11 11 -6 0 -8 8
-5 18 4 12 -1 26 -14 37 -11 10 -20 25 -20 32 0 8 -6 13 -12 10 -7 -2 -12 -11
-10 -21 2 -14 -1 -14 -23 -4 -14 6 -25 17 -25 23 0 7 -13 18 -29 25 -54 22
-62 39 -50 103 14 68 6 107 -21 107 -23 0 -25 17 -5 44 8 11 15 32 15 47 0 15
7 29 15 33 23 9 18 22 -15 36 -16 7 -30 16 -30 20 0 13 -23 17 -60 10z"/>
<path d="M4232 5238 c3 -7 20 -15 39 -17 l34 -4 -34 -6 c-27 -5 -36 -12 -42
-33 l-7 -28 149 0 149 0 0 29 c0 17 6 31 16 35 13 5 14 9 4 21 -17 20 -314 23
-308 3z"/>
<path d="M4230 5121 c0 -11 9 -26 20 -34 19 -14 19 -14 -6 -26 -15 -6 -29 -9
-32 -6 -3 3 0 5 6 5 7 0 12 7 12 15 0 8 -7 15 -15 15 -12 0 -15 -10 -13 -40 1
-22 -3 -45 -10 -52 -9 -9 -12 -9 -12 0 0 7 -6 12 -14 12 -19 0 -30 -35 -18
-57 7 -11 6 -23 -1 -34 -16 -26 9 -78 42 -86 14 -3 36 -14 47 -23 22 -16 22
-17 3 -41 -16 -20 -19 -21 -19 -6 0 12 -6 17 -17 15 -11 -2 -18 -12 -18 -25 0
-22 -43 -70 -57 -65 -7 2 -13 -38 -9 -60 0 -5 -5 -8 -13 -8 -20 0 -31 -21 -16
-30 20 -12 1 -31 -28 -28 -17 2 -26 -1 -24 -9 1 -7 -4 -13 -12 -13 -15 0 -28
-47 -20 -76 7 -27 119 -32 133 -6 4 9 6 22 4 29 -2 6 4 24 14 40 30 48 37 52
48 33 42 -68 59 -90 70 -90 7 0 18 -7 26 -16 7 -9 22 -14 36 -11 19 3 23 0 23
-20 0 -20 4 -24 23 -21 25 3 36 50 18 72 -9 10 -7 15 9 19 19 5 29 37 11 37
-4 0 -6 11 -3 25 5 27 -12 35 -22 9 -3 -8 -10 -12 -16 -9 -5 3 -10 1 -10 -4 0
-6 -7 -11 -16 -11 -8 0 -13 4 -9 9 3 5 -2 16 -10 24 -22 22 -19 53 10 95 14
20 25 49 25 64 0 25 3 28 35 28 28 0 35 4 35 19 0 10 -7 22 -16 25 -12 5 -14
13 -9 33 7 29 -6 43 -42 43 -13 0 -23 -6 -23 -14 0 -8 -3 -17 -7 -19 -5 -3 -6
29 -3 71 l5 77 55 -3 c67 -3 80 4 91 54 4 22 11 51 15 67 l6 27 -141 0 c-133
0 -141 -1 -141 -19z"/>
<path d="M2827 4243 c-4 -3 -7 -17 -7 -29 0 -13 -4 -26 -10 -29 -6 -3 -7 1 -4
9 3 9 1 16 -4 16 -6 0 -14 -9 -17 -20 -7 -21 2 -60 13 -60 13 0 6 -244 -7
-269 -18 -34 1 -101 29 -101 15 0 20 7 20 25 0 19 4 23 18 19 16 -5 16 -5 0 9
-23 19 -23 26 1 20 24 -6 35 11 18 29 -7 7 -17 22 -21 33 -6 16 -5 18 5 8 20
-20 27 -15 26 20 0 17 3 49 7 69 6 32 4 37 -15 43 -23 8 -34 0 -43 -30 -3 -11
-3 9 0 45 3 36 8 67 10 70 3 2 14 -1 24 -8 33 -20 48 -14 53 21 3 17 4 -29 4
-103 0 -94 -4 -138 -13 -147 -12 -13 -8 -49 6 -58 14 -9 60 17 60 33 0 9 -6
23 -13 31 -8 11 -11 31 -6 61 3 25 7 35 7 23 1 -13 7 -23 12 -23 6 0 10 10 10
23 0 18 3 16 18 -13 9 -19 14 -36 10 -38 -5 -2 -8 -9 -8 -16 0 -9 12 -12 38
-10 20 2 57 3 82 4 28 0 40 3 32 9 -15 9 -2 22 32 35 14 5 17 2 12 -9 -3 -8
-1 -15 4 -15 6 0 10 -12 10 -27 l0 -26 23 20 c12 11 28 18 35 16 9 -4 13 1 10
13 -2 11 -10 18 -16 16 -17 -3 -16 109 2 133 21 29 46 12 46 -30 0 -29 3 -36
18 -33 11 2 19 16 23 38 4 23 7 5 8 -52 1 -61 -3 -88 -11 -91 -7 -3 -3 -6 9
-6 12 -1 34 10 49 24 33 30 49 32 34 4 -15 -28 -5 -66 22 -80 11 -6 44 -11 72
-11 36 -1 45 -3 31 -9 -19 -7 -19 -8 3 -8 17 -1 22 -7 22 -26 0 -34 33 -33 49
1 10 23 9 30 -9 48 -26 29 -10 46 42 46 31 0 38 4 38 20 0 14 -11 22 -39 30
-22 6 -42 16 -45 23 -3 6 -4 -1 -1 -18 4 -25 1 -22 -16 14 -13 30 -16 48 -9
55 14 14 48 15 54 0 3 -7 25 -14 51 -16 25 -2 44 -6 43 -10 -2 -4 17 -19 42
-32 25 -13 49 -33 55 -45 5 -11 15 -21 22 -21 7 0 13 -9 13 -19 0 -21 28 -35
52 -26 19 8 40 53 31 67 -4 8 0 9 11 5 10 -4 30 -7 46 -7 21 0 30 -7 39 -29 7
-15 23 -33 35 -39 25 -11 179 -2 193 12 4 4 10 55 11 113 4 102 4 105 25 98
12 -4 32 -9 45 -12 20 -5 22 -11 22 -69 0 -48 3 -64 14 -64 8 0 16 -6 19 -14
10 -26 107 -28 107 -2 0 7 10 12 23 12 20 -1 22 4 23 49 l2 50 -8 -45 c-6 -42
-7 -40 -8 28 -1 39 1 71 6 71 42 -7 42 22 1 49 -31 19 -103 21 -123 2 -5 -5
-16 0 -26 12 -13 16 -21 18 -36 11 -10 -6 -62 -9 -114 -8 -52 1 -107 -1 -122
-6 -15 -4 -28 -5 -28 -1 0 10 -54 9 -60 0 -3 -4 -23 -3 -43 3 -21 5 -42 7 -47
4 -6 -3 -10 -2 -10 3 0 9 -67 82 -75 82 -2 0 -15 -4 -28 -9 -19 -7 -27 -20
-32 -50 -4 -25 -12 -41 -21 -41 -8 0 -14 -4 -14 -10 0 -5 4 -10 9 -10 5 0 7
-10 3 -22 -3 -14 -2 -19 6 -14 8 4 12 0 12 -11 0 -13 -8 -19 -25 -21 -14 -1
-25 3 -25 9 0 6 -13 7 -34 3 -34 -6 -101 9 -111 26 -3 5 2 16 12 25 12 13 14
21 6 34 -12 19 -71 27 -86 12 -6 -6 -23 -11 -37 -11 -14 0 -36 -8 -49 -17 -14
-9 -21 -11 -17 -4 13 20 -11 38 -45 33 -27 -4 -30 -7 -24 -31 6 -24 5 -24 -7
-8 -13 18 -98 42 -98 28 0 -3 -22 -7 -50 -8 -27 -1 -50 3 -50 8 0 10 -113 5
-130 -6 -6 -4 -10 15 -10 49 0 75 -13 86 -101 86 -55 0 -69 -3 -67 -14 2 -8
-1 -14 -7 -13 -5 1 -9 8 -7 15 3 12 -30 17 -41 5z"/>
<path d="M6010 4234 l-25 -14 25 -1 c16 -1 19 -3 8 -6 -29 -7 -34 -53 -6 -53
5 0 8 7 4 15 -10 27 3 16 20 -16 20 -40 7 -78 -28 -77 -28 2 -48 15 -44 31 1
7 1 10 -1 7 -7 -10 -187 -2 -191 9 -5 14 -45 14 -58 1 -6 -6 -28 -11 -50 -12
-21 -1 -42 -5 -45 -10 -3 -5 -13 -3 -21 5 -15 15 -48 18 -58 5 -3 -3 -25 -2
-50 2 -34 6 -49 5 -61 -6 -20 -18 -28 -18 -51 3 -17 15 -19 15 -40 -3 -12 -10
-18 -14 -15 -7 10 15 -47 27 -70 15 -12 -7 -20 -6 -28 5 -10 13 -17 14 -51 3
-21 -7 -47 -16 -56 -21 -10 -5 -19 -5 -23 1 -3 5 -13 9 -23 9 -9 -1 -28 3 -41
7 -20 6 -22 4 -17 -13 5 -17 2 -19 -26 -17 -19 1 -41 -4 -50 -13 -16 -14 -18
-14 -18 -1 0 9 -6 21 -14 27 -19 16 -66 24 -66 11 0 -5 -5 -10 -11 -10 -5 0
-7 4 -4 10 3 6 -10 9 -32 9 -21 -1 -55 1 -76 3 -43 4 -66 -12 -43 -31 10 -8
16 -9 21 -1 11 17 23 11 18 -10 -3 -11 -9 -18 -13 -15 -5 3 -12 0 -16 -6 -12
-20 18 -28 45 -11 14 9 29 20 32 25 13 18 54 2 57 -22 3 -22 1 -23 -35 -19
-32 4 -42 1 -67 -25 -25 -26 -28 -27 -24 -9 4 15 2 22 -7 22 -10 0 -11 -7 -5
-32 5 -17 7 -42 4 -55 -5 -19 -2 -23 15 -23 15 0 21 -6 21 -21 0 -11 4 -18 9
-14 9 5 17 -2 49 -39 6 -9 19 -13 27 -10 20 8 30 51 16 68 -8 10 -9 16 -1 21
5 3 10 1 10 -4 0 -6 7 -11 15 -11 8 0 15 -4 15 -10 0 -5 7 -10 15 -10 8 0 15
5 15 10 0 20 26 9 64 -26 46 -42 55 -35 54 42 -1 55 16 84 46 84 16 0 46 -83
46 -130 0 -20 8 -30 35 -43 34 -16 37 -16 75 3 37 19 42 19 70 5 55 -28 112
25 60 57 -15 10 -20 24 -20 60 0 52 7 57 52 36 26 -13 45 -60 27 -66 -20 -8
-7 -24 16 -20 14 3 25 1 25 -3 0 -9 -15 -13 -38 -10 -9 2 -12 -6 -10 -21 2
-15 11 -24 26 -26 18 -3 23 2 28 25 4 21 14 31 38 39 27 8 33 7 32 -5 -1 -8
13 -18 32 -23 17 -5 32 -15 32 -22 0 -22 28 -40 43 -28 8 7 18 7 27 2 13 -8
12 -10 -2 -10 -10 0 -18 -4 -18 -8 0 -17 13 -21 32 -9 16 10 23 8 43 -15 13
-16 31 -28 38 -28 25 0 27 29 5 50 -14 12 -17 20 -9 20 8 0 29 16 47 36 43 45
74 44 90 -5 18 -56 76 -83 89 -41 8 24 15 25 41 5 10 -8 27 -15 38 -15 15 0
16 3 6 15 -13 16 -9 18 29 15 24 -2 24 -1 9 22 -11 17 -13 29 -6 42 5 9 12 52
15 94 3 42 10 80 15 83 5 3 6 13 2 23 -5 14 -9 15 -15 4 -5 -7 -7 14 -5 52 2
36 -1 71 -7 78 -12 15 -45 14 -77 -4z"/>
<path d="M8838 1935 c-14 -23 -19 -95 -8 -114 9 -18 20 -21 80 -21 40 0 70 4
70 10 0 6 27 10 60 10 47 0 60 -3 60 -15 0 -12 -17 -15 -82 -17 l-83 -2 85 -6
85 -6 -123 -2 c-112 -2 -123 -4 -120 -19 3 -12 12 -17 27 -16 26 3 61 -13 61
-28 0 -6 -7 -18 -16 -26 -10 -11 -14 -26 -10 -43 6 -34 -8 -86 -23 -83 -6 2
-11 -3 -11 -11 0 -7 -6 -19 -14 -25 -7 -6 -11 -21 -9 -34 3 -13 -4 -30 -15
-43 -21 -22 -24 -71 -4 -66 15 3 15 -3 1 -50 -8 -31 -15 -38 -34 -38 -25 0
-33 -14 -15 -25 15 -9 12 -45 -4 -45 -8 0 -22 -7 -30 -16 -15 -14 -16 -14 -16
0 0 19 -25 21 -36 4 -4 -7 2 -18 14 -26 12 -8 22 -21 22 -28 0 -9 13 -15 38
-15 30 -2 32 -3 10 -6 -31 -5 -37 -19 -10 -25 28 -7 54 3 48 18 -5 12 24 14
182 12 103 -1 165 -3 139 -5 -32 -3 -47 -8 -44 -16 5 -16 31 -20 81 -13 34 5
44 12 55 38 23 50 46 68 81 62 l30 -6 0 59 c0 54 -2 61 -27 74 -20 11 -27 11
-30 2 -3 -7 -13 -13 -24 -13 -11 0 -22 -7 -25 -15 -4 -8 -14 -15 -24 -15 -28
0 -50 -11 -50 -25 0 -17 -33 -45 -53 -45 -9 0 -17 -7 -17 -15 0 -12 -15 -15
-77 -13 -43 1 -60 3 -38 5 72 6 85 12 85 37 0 14 10 30 25 40 23 15 25 23 25
84 0 40 -5 73 -12 80 -7 7 -38 12 -70 12 -70 0 -77 18 -25 59 15 12 17 12 11
-2 -6 -16 22 -37 50 -37 22 0 46 28 46 55 0 14 8 40 17 60 16 33 16 37 0 70
-22 46 -21 51 6 60 20 7 19 8 -12 12 l-34 4 28 15 c15 8 36 14 46 14 23 0 25
27 4 54 -19 25 -19 62 0 70 8 3 12 11 10 18 -4 10 -44 13 -165 13 l-160 0 0
-24 c0 -32 -11 -20 -19 21 -4 18 -9 28 -13 23z"/>
<path d="M9554 1525 c-3 -8 -3 -19 1 -25 3 -5 2 -10 -4 -10 -6 0 -8 -7 -5 -15
4 -8 12 -15 20 -15 8 0 14 -5 14 -10 0 -7 96 -9 282 -8 l283 3 6 30 6 30 4
-30 c5 -36 34 -46 44 -16 10 33 -3 61 -30 61 -13 0 -27 5 -30 10 -4 7 -109 10
-296 10 -239 -1 -291 -4 -295 -15z"/>
<path d="M10115 1360 c-4 -6 -77 -10 -186 -10 -127 0 -179 -3 -179 -11 0 -8
-26 -10 -90 -7 -82 5 -90 4 -90 -13 0 -10 -4 -21 -10 -24 -15 -9 -12 -25 5
-25 8 0 14 -5 13 -11 -3 -10 546 -14 564 -3 13 8 9 72 -4 77 -10 4 -10 6 -1 6
7 1 10 8 7 16 -7 17 -20 20 -29 5z"/>
<path d="M2947 523 c-11 -11 -17 -13 -17 -5 0 7 -13 12 -30 12 -16 0 -30 -5
-30 -10 0 -6 -11 -16 -25 -22 -13 -6 -27 -19 -30 -30 -9 -28 -50 -23 -70 9
l-18 27 -18 -23 -18 -22 -13 20 c-20 33 -45 25 -39 -11 0 -5 -6 -8 -15 -8 -11
0 -15 8 -12 28 4 32 -25 39 -29 7 -9 -59 -25 -125 -33 -125 -4 0 -2 18 6 40
14 39 10 70 -8 70 -5 0 -6 -4 -3 -10 3 -5 1 -10 -5 -10 -6 0 -13 7 -16 15 -8
21 -36 19 -32 -2 2 -10 -3 -17 -9 -15 -9 1 -13 -11 -13 -37 0 -22 -5 -43 -12
-47 -8 -5 -9 7 -5 47 7 59 -2 85 -27 76 -9 -4 -16 -2 -16 4 0 6 -4 8 -9 5 -5
-3 -7 -15 -4 -26 3 -11 0 -20 -6 -20 -6 0 -10 3 -10 8 3 19 -3 22 -22 12 -15
-9 -24 -8 -35 1 -11 9 -14 8 -14 -4 0 -16 -26 -30 -41 -21 -5 3 -9 12 -9 20 0
19 -36 18 -44 -2 -5 -14 -9 -14 -23 -3 -12 10 -14 10 -9 2 10 -18 -5 -16 -18
2 -10 14 -13 14 -34 0 -12 -9 -19 -22 -16 -28 5 -8 3 -8 -7 1 -7 6 -21 12 -31
12 -10 0 -18 5 -18 10 0 6 -6 10 -14 10 -7 0 -19 7 -26 15 -8 9 -22 12 -41 8
-18 -3 -29 -1 -29 6 0 6 -4 11 -10 11 -5 0 -10 -7 -10 -15 0 -9 -7 -18 -15
-21 -10 -4 -15 -20 -15 -50 0 -24 -4 -44 -10 -44 -5 0 -10 -5 -10 -11 0 -5 5
-7 10 -4 6 3 10 -1 10 -9 0 -45 102 -58 115 -15 4 11 11 17 16 13 6 -4 6 -11
-2 -20 -26 -32 14 -59 45 -29 13 13 15 13 20 -2 3 -10 15 -24 26 -31 18 -11
23 -10 38 5 15 15 15 16 0 11 -28 -11 -29 4 -1 19 21 11 28 11 34 1 6 -9 13
-9 33 0 14 6 26 7 26 3 0 -5 8 -12 18 -14 13 -4 12 -5 -4 -6 -12 0 -25 -8 -28
-17 -4 -12 -1 -14 14 -9 11 4 20 2 20 -4 0 -29 50 -50 78 -33 20 13 25 61 7
68 -8 4 -15 12 -15 20 0 8 -9 14 -19 14 -14 0 -18 5 -14 19 6 22 33 17 33 -5
0 -26 29 -27 50 -3 10 13 19 19 20 12 0 -6 -5 -13 -11 -15 -7 -2 -1 -11 12
-19 30 -20 153 -31 169 -15 9 8 14 8 17 -2 6 -14 39 -16 48 -2 4 6 13 5 25 -2
15 -10 22 -10 32 0 10 10 10 15 -2 22 -16 10 -12 12 37 23 20 4 21 3 12 -15
-15 -28 -2 -35 59 -30 45 3 52 7 52 25 0 20 0 21 16 1 8 -10 13 -14 10 -7 -10
19 12 26 60 18 28 -4 44 -11 44 -21 0 -17 12 -18 28 -2 8 8 15 8 26 -2 19 -15
46 -6 46 15 0 8 5 15 10 15 6 0 10 5 10 10 0 6 -11 10 -25 10 -25 0 -25 0 -9
26 13 19 19 22 25 12 6 -9 9 -3 10 17 1 23 3 19 9 -16 9 -53 39 -106 50 -89 5
7 11 6 20 -5 17 -21 59 -19 94 4 l29 20 -39 4 c-38 4 -38 4 8 5 26 1 49 7 51
15 4 10 6 10 6 0 1 -8 17 -13 45 -13 37 0 45 -4 50 -22 l6 -23 21 24 c11 14
18 33 16 43 -3 10 -1 18 4 18 14 0 11 27 -6 44 -8 8 -15 21 -15 30 0 8 -5 18
-10 21 -6 4 -8 15 -5 26 6 17 3 19 -21 15 -15 -3 -31 -11 -36 -18 -6 -10 -8
-8 -8 5 0 9 -7 17 -15 17 -8 0 -15 -5 -15 -10 0 -6 -11 -3 -24 5 -24 16 -44 6
-31 -15 4 -6 -7 -10 -27 -9 -18 0 -27 3 -20 6 15 6 6 23 -14 23 -8 0 -14 -9
-14 -20 0 -11 5 -20 10 -20 6 0 10 -8 10 -17 0 -14 -4 -13 -21 6 -14 15 -30
21 -49 19 -18 -2 -41 6 -60 20 -26 20 -36 22 -60 13 -18 -6 -32 -6 -35 0 -10
15 -49 10 -68 -8z"/>
<path d="M3549 529 c-11 -7 -12 -12 -2 -28 11 -18 9 -20 -15 -23 -25 -3 -27
-6 -27 -53 0 -45 3 -51 34 -72 22 -15 42 -21 55 -17 39 11 71 41 74 69 3 20 6
24 12 15 4 -7 6 -37 3 -67 -5 -49 -4 -53 16 -53 11 0 21 6 21 14 0 21 30 74
31 56 1 -8 3 -20 3 -26 2 -16 27 -44 40 -44 6 0 24 7 39 15 22 11 33 12 53 3
20 -10 27 -9 34 3 7 10 3 16 -13 21 -16 4 -17 6 -4 7 9 1 34 -8 54 -19 43 -23
79 -26 86 -7 3 9 7 9 18 1 16 -13 117 -25 124 -14 2 4 30 5 62 2 50 -4 63 -9
90 -38 46 -48 63 -45 63 11 0 39 -3 45 -22 45 -29 0 -20 6 20 13 21 4 31 3 27
-3 -4 -6 1 -13 9 -16 9 -3 16 -13 16 -21 0 -30 34 -6 49 35 11 32 20 42 37 42
26 0 50 -25 34 -35 -15 -9 -12 -35 5 -35 8 0 15 4 15 10 0 5 7 7 15 4 11 -5
13 -2 9 10 -4 11 -1 16 11 16 9 0 13 -5 10 -10 -6 -9 33 -30 56 -30 5 0 15 12
22 27 9 21 9 27 -1 31 -30 10 10 73 51 80 14 2 17 -5 17 -41 0 -36 4 -46 23
-55 17 -8 18 -11 5 -11 -18 -1 -23 -12 -11 -24 3 -4 12 -2 20 5 10 8 17 7 26
-6 12 -17 15 -16 44 8 19 16 43 26 62 26 17 0 31 5 31 11 0 5 4 8 9 5 5 -3 11
1 15 9 7 20 36 19 36 0 0 -9 7 -18 16 -22 8 -3 13 -11 10 -19 -4 -9 4 -11 32
-7 48 7 57 16 41 40 -8 13 -9 30 -4 49 9 28 9 27 14 -16 l6 -45 57 -3 c52 -3
57 -1 61 20 3 18 5 16 6 -8 1 -40 20 -47 71 -29 22 8 40 10 40 5 0 -6 13 -10
29 -10 16 0 31 -6 34 -13 5 -15 84 -21 92 -7 3 5 -3 14 -13 19 -15 8 -38 51
-28 51 9 0 54 -47 58 -60 3 -11 16 -14 44 -12 35 3 75 22 46 22 -7 0 -12 5
-12 10 0 6 7 10 15 10 8 0 15 5 15 12 0 9 3 9 12 0 7 -7 27 -12 45 -12 27 0
34 4 39 28 3 15 8 34 10 43 3 9 -2 22 -11 29 -8 7 -12 16 -9 21 11 18 -48 22
-76 5 -33 -19 -61 -21 -58 -4 4 19 -38 21 -56 3 -9 -9 -16 -12 -16 -7 0 5 -9
12 -21 15 -15 4 -23 0 -26 -12 -6 -23 -61 -16 -86 10 -10 11 -22 19 -27 19 -6
0 -9 3 -9 8 6 36 -28 44 -60 15 -41 -37 -51 -44 -51 -33 0 6 7 13 15 16 8 4
15 10 15 14 0 10 -40 1 -57 -12 -7 -6 -15 -3 -21 8 -10 18 -16 15 -62 -30 -11
-11 -20 -15 -20 -8 0 7 -12 12 -26 12 -19 0 -25 -4 -20 -15 3 -9 0 -15 -9 -15
-9 0 -12 6 -9 15 9 23 -23 29 -51 11 -16 -10 -34 -14 -50 -10 -15 4 -25 2 -25
-5 0 -16 -30 -13 -36 4 -7 17 -34 21 -34 4 0 -6 -7 -3 -16 5 -17 17 -39 22
-29 7 3 -5 1 -12 -5 -16 -5 -3 -11 2 -11 12 -3 43 -5 48 -19 48 -8 0 -14 -8
-13 -18 0 -10 -1 -16 -4 -13 -3 3 -14 -6 -25 -19 -14 -18 -26 -23 -43 -19 -12
3 -26 1 -29 -5 -4 -6 -15 -2 -28 11 -19 19 -22 20 -33 5 -7 -10 -18 -17 -25
-17 -8 0 -22 -8 -33 -17 -19 -17 -19 -17 -16 2 3 11 10 20 17 20 6 0 11 5 10
10 -2 6 -6 9 -10 8 -4 -2 -9 6 -13 16 -7 22 -33 36 -32 18 1 -44 -5 -76 -18
-93 -15 -19 -15 -19 -8 1 3 11 3 17 -2 13 -12 -11 -35 18 -35 46 0 14 -4 27
-9 30 -13 9 -32 -19 -25 -38 4 -11 1 -16 -11 -16 -9 0 -14 4 -11 8 3 5 -11 15
-30 24 -29 13 -36 14 -40 3 -3 -8 -15 -12 -26 -10 -13 3 -22 -2 -25 -15 -5
-19 -6 -19 -23 3 -17 20 -19 20 -25 5 -10 -26 -51 -23 -59 5 -6 22 -6 22 -31
-7 -27 -32 -25 -45 8 -47 17 -1 18 -2 5 -6 -11 -3 -18 -14 -18 -29 0 -13 -4
-24 -8 -24 -16 0 -50 45 -63 83 -7 20 -15 37 -19 38 -41 6 -60 3 -61 -11 -1
-8 -4 -4 -8 9 -9 33 -25 37 -39 9 -7 -15 -11 -17 -12 -8 0 9 -6 6 -15 -10 -11
-19 -14 -21 -15 -7 0 9 -6 17 -13 17 -18 0 -49 -34 -40 -43 10 -11 -3 -8 -31
6 -14 8 -22 17 -18 21 4 4 -5 5 -19 1 -17 -4 -30 -1 -39 10 -12 14 -14 14 -31
-1 -17 -15 -19 -15 -25 0 -3 9 -4 23 -1 30 4 10 1 13 -9 9 -8 -3 -21 0 -29 7
-17 14 -38 3 -31 -16 3 -8 -1 -14 -9 -14 -8 0 -15 6 -15 14 0 18 -23 27 -41
15z"/>
<path d="M1302 517 c-6 -6 -13 -29 -17 -50 -6 -32 -4 -42 15 -62 19 -21 21
-29 13 -48 -10 -20 -7 -25 18 -36 37 -16 64 -11 64 14 0 12 -9 21 -24 25 -21
5 -22 7 -7 19 9 7 16 21 16 30 0 11 3 12 8 4 6 -10 7 16 3 100 -1 12 -7 17
-18 15 -10 -2 -17 -10 -15 -16 1 -7 -7 -12 -19 -12 -11 0 -18 4 -14 9 9 15
-12 22 -23 8z"/>
</g>
</svg>
