<?xml version="1.0" standalone="no"?>
<!DOCTYPE svg PUBLIC "-//W3C//DTD SVG 20010904//EN"
 "http://www.w3.org/TR/2001/REC-SVG-20010904/DTD/svg10.dtd">
<svg version="1.0" xmlns="http://www.w3.org/2000/svg"
 width="2048.000000pt" height="1152.000000pt" viewBox="0 0 2048.000000 1152.000000"
 preserveAspectRatio="xMidYMid meet">

<g transform="translate(0.000000,1152.000000) scale(0.100000,-0.100000)"
fill="#000000" stroke="none">
<path d="M2858 10172 c-57 -2 -78 -6 -78 -16 0 -8 16 -17 35 -20 19 -4 39 -15
45 -26 6 -11 10 -130 10 -302 0 -295 -2 -308 -42 -308 -10 0 -18 -7 -18 -15 0
-12 18 -15 105 -15 83 0 105 3 105 14 0 8 -11 17 -25 20 -15 4 -30 18 -36 33
-5 15 -9 152 -9 332 1 168 -3 306 -7 306 -4 1 -43 -1 -85 -3z"/>
<path d="M3578 10158 c-39 -32 -25 -88 21 -88 16 0 33 -4 36 -10 9 -15 -22
-66 -56 -90 -20 -15 -27 -26 -21 -32 13 -13 63 21 94 64 31 45 31 123 -1 149
-27 22 -51 24 -73 7z"/>
<path d="M1956 10144 c-34 -34 -6 -104 41 -104 21 0 53 38 53 63 0 48 -61 74
-94 41z"/>
<path d="M1340 10107 c0 -8 18 -21 40 -30 l40 -16 -2 -273 -3 -273 -37 -9
c-21 -5 -38 -15 -38 -23 0 -10 49 -13 249 -13 l248 0 7 46 c10 78 7 144 -6
144 -7 0 -26 -24 -41 -54 -47 -90 -64 -100 -161 -101 -56 0 -88 4 -99 14 -15
12 -17 44 -17 276 0 285 -2 277 58 290 18 4 32 13 32 21 0 11 -25 14 -135 14
-107 0 -135 -3 -135 -13z"/>
<path d="M4397 10113 c-13 -12 -7 -21 21 -28 63 -15 62 -13 62 -296 0 -255 0
-258 -22 -273 -12 -9 -33 -16 -45 -16 -14 0 -23 -6 -23 -15 0 -13 35 -15 254
-15 l253 0 6 68 c14 144 2 157 -53 61 -47 -82 -65 -93 -161 -94 -119 0 -113
-13 -117 281 -3 272 -1 286 57 297 18 4 31 13 31 22 0 13 -20 15 -128 15 -71
0 -132 -3 -135 -7z"/>
<path d="M2220 9990 l0 -70 -40 0 c-33 0 -40 -3 -40 -20 0 -17 7 -20 39 -20
l39 0 4 -185 c3 -172 4 -186 24 -205 12 -12 39 -24 60 -26 50 -7 128 16 132
39 3 14 -3 16 -40 11 -34 -5 -48 -2 -68 14 -25 20 -25 23 -28 186 l-4 166 66
0 c59 0 66 2 66 20 0 18 -7 20 -65 20 l-65 0 0 70 0 70 -40 0 -40 0 0 -70z"/>
<path d="M2550 9991 l0 -70 -42 -3 c-31 -2 -44 -8 -46 -20 -3 -15 4 -18 36
-18 27 0 42 -5 46 -16 3 -9 6 -92 6 -185 0 -191 4 -201 76 -215 42 -8 147 21
142 38 -3 7 -28 12 -57 12 -78 1 -81 8 -81 203 l0 163 66 0 c57 0 65 2 62 18
-3 14 -16 18 -66 20 l-62 3 0 69 0 70 -40 0 -40 0 0 -69z"/>
<path d="M3200 9908 c-154 -83 -154 -348 0 -425 90 -46 195 -21 258 61 17 23
20 31 10 38 -9 5 -22 -3 -38 -22 -46 -56 -131 -68 -194 -27 -29 20 -54 72 -62
131 l-7 46 153 0 153 0 -6 54 c-11 107 -61 158 -162 164 -49 3 -68 -1 -105
-20z m131 -18 c26 -15 49 -62 49 -105 l0 -35 -106 0 -106 0 7 37 c7 40 36 87
63 103 22 13 68 13 93 0z"/>
<path d="M3833 9914 c-86 -43 -92 -164 -11 -214 18 -11 61 -29 95 -41 61 -20
103 -55 103 -85 0 -45 -44 -84 -96 -84 -50 0 -122 57 -139 110 -3 11 -13 20
-21 20 -12 0 -14 -14 -12 -72 2 -60 6 -73 21 -76 10 -2 17 3 17 12 0 13 6 12
43 -4 78 -36 167 -21 216 36 26 29 31 43 31 86 0 44 -4 54 -33 82 -18 17 -63
42 -100 55 -87 30 -117 54 -117 92 0 72 91 94 155 38 19 -17 38 -42 41 -55 3
-13 13 -24 22 -24 12 0 14 11 9 66 -7 75 -11 83 -35 68 -10 -6 -26 -8 -37 -3
-34 13 -119 9 -152 -7z"/>
<path d="M5042 9909 c-52 -26 -76 -66 -62 -103 7 -20 17 -26 39 -26 38 0 54
20 46 62 -8 44 10 60 66 56 52 -4 79 -35 82 -97 l2 -44 -50 -19 c-190 -74
-200 -82 -212 -150 -17 -108 111 -164 217 -94 l39 26 30 -30 c31 -32 61 -37
106 -20 33 13 28 32 -12 42 -18 5 -33 16 -36 28 -3 10 -3 75 0 142 6 147 -5
191 -56 225 -46 31 -138 32 -199 2z m175 -271 c-5 -75 -8 -85 -34 -105 -56
-45 -143 -20 -143 41 0 59 42 104 125 134 58 20 58 20 52 -70z"/>
<path d="M1880 9906 c0 -8 10 -18 23 -22 55 -16 57 -25 57 -199 0 -170 -4
-185 -47 -185 -14 0 -23 -6 -23 -15 0 -12 19 -15 110 -15 91 0 110 3 110 15 0
8 -8 15 -18 15 -11 0 -26 8 -35 18 -15 16 -17 46 -17 210 l0 192 -80 0 c-63 0
-80 -3 -80 -14z"/>
<path d="M5390 9908 c0 -7 13 -20 29 -29 25 -15 36 -39 93 -210 79 -236 85
-241 136 -104 74 200 85 226 92 218 5 -4 33 -75 63 -158 76 -207 75 -207 155
33 60 182 86 232 120 232 7 0 12 7 12 15 0 12 -16 15 -85 15 -89 0 -110 -12
-55 -31 21 -8 30 -18 30 -32 0 -28 -72 -257 -80 -257 -4 0 -32 69 -62 153 -49
136 -57 152 -78 152 -21 0 -29 -16 -79 -157 -30 -87 -58 -154 -62 -150 -4 4
-23 63 -44 132 -21 69 -40 130 -42 137 -3 7 7 15 21 19 14 3 26 12 26 20 0 11
-21 14 -95 14 -69 0 -95 -3 -95 -12z"/>
<path d="M9820 8989 c-749 -82 -1396 -354 -1925 -809 -113 -98 -341 -330 -422
-433 -385 -481 -617 -1030 -688 -1632 -22 -186 -23 -525 -1 -704 86 -713 385
-1340 881 -1850 293 -301 575 -507 930 -682 360 -176 691 -277 1105 -335 181
-25 600 -30 789 -10 446 49 793 146 1179 331 781 376 1382 1033 1672 1825 89
245 156 550 176 803 l7 87 2078 0 2079 0 0 -51 c0 -28 4 -49 9 -47 31 11 260
124 260 128 1 3 -60 36 -134 73 l-135 67 0 -55 0 -55 -2075 0 -2075 0 0 93
c-1 1235 -695 2339 -1825 2905 -340 170 -699 279 -1115 338 -135 19 -637 28
-770 13z m665 -84 c346 -37 635 -107 942 -231 807 -324 1463 -965 1788 -1749
173 -415 256 -906 226 -1337 -30 -442 -124 -794 -316 -1184 -307 -622 -817
-1129 -1460 -1452 -849 -425 -1878 -468 -2775 -117 -417 164 -791 408 -1116
730 -448 445 -736 969 -863 1570 -83 390 -84 840 -5 1229 101 499 323 960 656
1365 97 117 311 328 438 432 513 417 1103 665 1760 738 52 6 109 13 125 15 88
10 475 4 600 -9z"/>
<path d="M9903 7960 c-21 -12 -35 -31 -42 -55 -31 -112 96 -192 181 -116 29
26 33 35 33 81 0 46 -4 55 -33 81 -39 35 -91 39 -139 9z"/>
<path d="M9785 7723 c-11 -3 -30 -14 -42 -26 -23 -20 -23 -24 -23 -263 0 -220
2 -244 17 -253 11 -6 24 -6 35 0 16 9 18 28 18 194 0 178 1 185 20 185 20 0
20 -7 20 -443 0 -417 1 -445 18 -460 26 -24 68 -21 86 5 14 19 16 63 16 281 0
241 1 258 18 255 16 -3 17 -25 20 -268 2 -287 3 -290 58 -290 55 0 54 -6 54
475 0 371 2 444 14 448 8 3 17 3 20 0 3 -4 6 -85 6 -182 0 -97 4 -182 9 -189
4 -8 19 -12 32 -10 l24 3 3 235 c1 129 0 245 -3 258 -10 42 -57 52 -237 51
-90 -1 -172 -3 -183 -6z"/>
<path d="M10924 7616 c-28 -28 -34 -42 -34 -76 0 -57 50 -110 104 -110 71 0
116 43 116 110 0 67 -45 110 -116 110 -28 0 -44 -8 -70 -34z"/>
<path d="M10802 7385 c-18 -8 -37 -26 -42 -40 -6 -15 -10 -126 -10 -250 0
-190 2 -226 16 -239 43 -43 53 -11 56 189 3 171 4 180 23 183 20 3 20 -2 18
-430 -3 -480 -3 -481 56 -486 18 -2 39 2 45 8 7 7 13 100 16 278 5 244 7 267
23 270 16 3 17 -15 17 -261 0 -243 1 -265 18 -280 26 -24 68 -21 86 5 14 20
16 80 16 460 0 431 0 438 20 438 19 0 20 -7 20 -185 0 -172 1 -185 19 -195 15
-7 23 -6 35 6 14 13 16 50 16 245 0 146 -4 238 -11 251 -21 39 -68 48 -241 48
-118 -1 -172 -5 -196 -15z"/>
<path d="M11480 7365 c0 -8 12 -18 28 -21 95 -24 182 -90 216 -164 20 -42 21
-68 27 -440 7 -435 11 -467 70 -535 31 -35 115 -81 169 -91 16 -4 30 -10 30
-13 0 -4 -24 -15 -53 -24 -130 -41 -191 -118 -208 -259 -4 -40 -8 -213 -9
-385 0 -181 -4 -333 -11 -362 -22 -103 -89 -172 -204 -209 -39 -12 -55 -22
-55 -35 0 -15 8 -17 78 -11 189 14 291 54 348 136 57 83 64 143 64 521 0 343
6 421 41 488 22 44 84 92 150 115 46 17 65 34 37 34 -31 0 -137 61 -165 94
-54 66 -55 80 -63 506 -7 404 -10 431 -50 510 -51 99 -190 159 -367 160 -58 0
-73 -3 -73 -15z"/>
<path d="M8903 7313 c-33 -6 -83 -68 -83 -104 0 -126 168 -164 215 -47 33 84
-40 168 -132 151z"/>
<path d="M7963 7060 c-62 -37 -63 -141 -2 -184 30 -20 98 -21 127 0 26 18 52
65 52 94 0 34 -28 78 -60 95 -39 20 -79 19 -117 -5z"/>
<path d="M8735 7050 c-45 -18 -46 -27 -46 -280 0 -132 3 -245 6 -250 9 -14 39
-12 53 2 8 8 12 66 12 196 0 169 1 183 18 180 16 -3 17 -35 22 -456 4 -388 7
-454 20 -462 24 -15 55 -12 73 8 15 16 17 51 17 280 0 255 1 262 20 262 19 0
20 -7 20 -258 0 -286 3 -302 60 -302 60 0 60 -1 60 488 0 417 1 443 18 440 15
-3 18 -23 22 -193 l5 -190 30 0 30 0 3 235 c1 129 0 245 -3 257 -11 45 -49 53
-242 52 -98 0 -187 -4 -198 -9z"/>
<path d="M7845 6823 c-11 -3 -30 -14 -42 -26 -23 -20 -23 -24 -23 -263 0 -198
3 -244 14 -253 11 -9 20 -10 35 -1 20 10 21 19 21 195 0 178 1 185 20 185 20
0 20 -7 20 -444 0 -488 -2 -476 60 -476 57 0 60 17 60 303 0 241 1 258 18 255
16 -3 17 -25 19 -267 2 -178 6 -268 14 -277 14 -17 53 -18 80 -4 18 10 19 26
19 460 0 443 0 450 20 450 19 0 20 -7 20 -185 0 -176 1 -185 21 -195 15 -9 24
-8 35 1 11 9 14 55 14 255 0 263 0 263 -57 285 -25 9 -331 11 -368 2z"/>
<path d="M12400 6660 l0 -40 235 0 235 0 0 40 0 40 -235 0 -235 0 0 -40z"/>
<path d="M12420 6461 c0 -5 17 -12 37 -16 62 -11 73 -21 73 -67 0 -22 -38
-178 -85 -347 -142 -509 -135 -491 -202 -506 -18 -3 -33 -11 -33 -16 0 -6 150
-8 381 -7 l381 3 39 120 c21 66 39 126 39 133 0 24 -28 11 -41 -19 -24 -60
-86 -126 -143 -154 -46 -22 -74 -28 -159 -32 -172 -9 -227 7 -227 66 0 23 120
468 190 703 23 75 58 113 115 124 82 15 22 24 -165 24 -110 0 -200 -4 -200 -9z"/>
<path d="M9618 6235 c-92 -51 -65 -198 37 -206 48 -4 68 3 96 30 87 87 -26
236 -133 176z"/>
<path d="M10660 6063 c-28 -10 -59 -46 -70 -79 -9 -25 -8 -40 4 -68 15 -37 67
-76 99 -76 33 0 82 29 100 59 53 89 -37 199 -133 164z"/>
<path d="M9485 5985 c-22 -8 -41 -15 -42 -15 -23 -2 -35 -469 -13 -511 6 -10
19 -19 30 -19 34 0 40 33 40 214 0 169 1 176 20 176 20 0 20 -7 20 -450 l0
-450 26 -17 c24 -15 29 -15 53 -2 l26 15 3 267 c2 259 3 267 22 267 19 0 20
-7 20 -254 0 -140 3 -262 6 -271 15 -37 82 -38 106 -1 4 6 8 210 8 454 0 434
0 442 20 442 19 0 20 -8 22 -186 3 -162 5 -188 20 -197 12 -8 21 -7 32 2 14
12 16 46 16 251 0 269 -1 273 -75 290 -65 15 -314 11 -360 -5z"/>
<path d="M10493 5800 c-39 -16 -43 -39 -43 -283 0 -202 2 -236 16 -248 11 -9
20 -10 32 -2 15 9 17 35 20 197 2 178 3 186 22 186 20 0 20 -8 20 -445 0 -432
1 -446 20 -465 11 -11 29 -20 40 -20 11 0 29 9 40 20 19 19 20 33 20 280 0
253 1 260 20 260 19 0 20 -8 22 -267 l3 -267 26 -15 c24 -13 29 -13 53 2 l26
17 0 450 c0 442 0 450 20 450 19 0 20 -8 22 -186 3 -159 5 -188 19 -197 9 -6
24 -7 33 -4 14 6 16 34 16 256 l0 250 -26 20 c-25 20 -39 21 -213 20 -102 0
-196 -4 -208 -9z"/>
<path d="M8541 5696 c-32 -18 -50 -53 -51 -99 0 -31 7 -46 34 -73 28 -28 42
-34 76 -34 81 0 136 91 99 163 -27 54 -102 74 -158 43z"/>
<path d="M8404 5450 c-51 -21 -54 -38 -54 -285 0 -126 4 -236 9 -243 4 -8 19
-12 32 -10 l24 3 5 190 c4 170 7 190 23 193 16 3 17 -23 17 -442 0 -433 1
-447 20 -466 25 -25 62 -26 83 -2 15 16 17 51 17 280 0 255 1 262 20 262 19 0
20 -7 20 -263 0 -243 1 -265 18 -280 23 -21 52 -22 78 -3 18 14 19 32 22 466
2 421 4 451 20 448 15 -3 18 -24 22 -193 l5 -190 24 -3 c13 -2 28 2 32 10 5 7
9 117 9 245 0 231 0 232 -24 260 l-24 28 -189 2 c-103 1 -198 -2 -209 -7z"/>
<path d="M9580 4015 c0 -32 2 -35 31 -35 29 0 30 -2 27 -37 -3 -36 -4 -36 -64
-49 -164 -33 -292 -145 -354 -309 -31 -83 -32 -224 -1 -309 75 -210 268 -338
487 -323 95 7 146 25 234 83 124 82 198 209 207 359 8 121 -31 249 -102 334
-25 29 -26 33 -12 55 19 28 13 38 -46 81 l-38 28 -22 -21 -22 -21 -75 25 c-41
13 -88 26 -103 29 -25 5 -28 10 -25 38 2 27 8 33 31 35 24 3 27 8 27 38 l0 34
-90 0 -90 0 0 -35z m128 -431 c3 -183 -2 -203 -46 -189 -28 8 -32 32 -32 182
0 156 8 186 48 181 l27 -3 3 -171z"/>
<path d="M10390 3980 c0 -5 8 -10 18 -10 25 0 62 -28 72 -56 8 -20 110 -845
110 -888 0 -9 7 -16 16 -16 11 0 66 104 176 328 168 343 166 338 172 331 2 -2
18 -134 35 -294 39 -360 40 -365 56 -365 14 0 50 66 305 560 172 334 198 376
236 390 55 21 22 30 -112 30 -87 0 -133 -4 -129 -10 3 -5 16 -10 28 -10 13 0
33 -7 45 -16 44 -31 32 -66 -124 -373 -81 -157 -150 -290 -154 -294 -10 -11
-14 25 -46 356 -25 265 -25 279 -9 297 10 11 33 22 51 26 78 15 23 24 -141 24
-110 0 -175 -4 -175 -10 0 -5 13 -10 29 -10 53 0 80 -35 89 -116 l8 -72 -127
-253 c-71 -140 -128 -247 -129 -239 -1 8 -16 146 -33 305 -18 160 -31 303 -29
318 5 29 44 57 82 57 11 0 20 5 20 10 0 6 -63 10 -170 10 -107 0 -170 -4 -170
-10z"/>
<path d="M1680 8465 l0 -25 135 0 135 0 0 25 0 25 -135 0 -135 0 0 -25z"/>
<path d="M1720 8337 c19 -7 36 -20 38 -30 4 -22 -115 -455 -134 -484 -8 -13
-23 -23 -34 -23 -11 0 -20 -5 -20 -10 0 -7 76 -9 222 -8 l221 3 24 70 c28 85
25 104 -10 49 -37 -59 -80 -82 -163 -89 -90 -8 -128 3 -132 37 -2 14 18 99 43
189 25 90 52 187 60 215 16 56 29 71 72 84 19 6 -13 8 -97 9 -109 0 -121 -2
-90 -12z"/>
<path d="M3095 8250 c-46 -18 -69 -58 -73 -123 -4 -76 19 -120 75 -144 41 -17
113 -8 121 15 3 9 -3 10 -23 2 -76 -29 -143 12 -152 92 -7 62 12 115 47 133
34 17 73 19 101 5 12 -7 19 -7 19 -1 0 26 -72 39 -115 21z"/>
<path d="M4070 8240 c0 -5 7 -10 15 -10 8 0 15 5 15 10 0 6 -7 10 -15 10 -8 0
-15 -4 -15 -10z"/>
<path d="M4170 8205 c0 -17 -7 -29 -22 -35 l-23 -9 22 0 c21 -1 22 -6 25 -88
l3 -88 30 -2 c27 -2 28 -2 8 7 -21 9 -23 16 -23 89 0 75 1 80 23 84 l22 4 -22
2 c-19 1 -23 7 -23 31 0 17 -4 30 -10 30 -5 0 -10 -11 -10 -25z"/>
<path d="M3303 8173 c-40 -8 -25 -21 17 -16 43 6 70 -8 70 -37 0 -13 -11 -19
-45 -23 -50 -5 -85 -30 -85 -59 0 -54 49 -79 101 -52 26 13 33 14 40 2 5 -8 9
22 9 74 0 79 -2 88 -22 102 -22 16 -41 18 -85 9z m87 -122 c0 -20 -8 -35 -22
-45 -43 -30 -88 -15 -88 31 0 28 24 42 73 43 34 0 37 -2 37 -29z"/>
<path d="M3516 8159 c-21 -17 -26 -18 -26 -5 0 9 -4 16 -10 16 -6 0 -10 -52
-10 -135 0 -83 4 -135 10 -135 6 0 10 22 10 49 l0 50 35 -15 c71 -29 115 6
115 94 0 43 -5 58 -25 77 -30 30 -64 32 -99 4z m88 -21 c9 -12 16 -41 16 -63
0 -75 -52 -108 -108 -69 -31 21 -31 98 0 131 28 30 72 30 92 1z"/>
<path d="M3723 8173 c-40 -8 -25 -21 17 -16 43 6 70 -8 70 -37 0 -13 -11 -19
-45 -23 -50 -5 -85 -30 -85 -59 0 -54 49 -79 101 -52 26 13 33 14 40 2 5 -8 9
22 9 74 0 79 -2 88 -22 102 -22 16 -41 18 -85 9z m87 -118 c0 -49 -66 -85 -98
-53 -7 7 -12 21 -12 33 0 32 20 45 67 45 39 0 43 -2 43 -25z"/>
<path d="M3933 8170 c-56 -23 -71 -127 -24 -173 24 -24 92 -30 113 -9 10 10 3
11 -33 6 -42 -6 -48 -4 -67 21 -28 35 -28 85 0 120 18 23 26 26 60 22 38 -5
52 5 22 17 -21 8 -44 7 -71 -4z"/>
<path d="M4068 8163 c8 -3 12 -32 12 -94 0 -53 4 -89 10 -89 6 0 10 38 10 95
0 92 -1 95 -22 94 -13 0 -17 -3 -10 -6z"/>
<path d="M4301 8069 c21 -55 39 -105 39 -110 0 -6 -12 -21 -26 -34 -18 -17
-22 -25 -12 -25 27 0 49 37 89 146 41 114 44 124 31 124 -4 0 -20 -38 -36 -85
-15 -47 -31 -83 -36 -80 -4 2 -21 41 -36 85 -16 44 -34 80 -41 80 -7 0 3 -38
28 -101z"/>
<path d="M2515 8069 c8 -12 385 -9 385 4 0 4 -88 7 -196 7 -137 0 -193 -3
-189 -11z"/>
<path d="M14733 6831 c-39 -24 -51 -67 -29 -109 39 -76 156 -45 156 42 0 26
-7 40 -31 60 -36 31 -54 32 -96 7z"/>
<path d="M15754 6836 c-35 -15 -44 -32 -44 -80 0 -43 35 -76 81 -76 87 0 114
122 34 156 -40 16 -33 16 -71 0z"/>
<path d="M16780 6843 c-35 -13 -60 -47 -60 -80 0 -86 117 -116 156 -41 18 34
11 78 -14 101 -20 18 -61 28 -82 20z"/>
<path d="M14580 6595 c-70 -36 -127 -72 -131 -82 -13 -38 -31 -172 -25 -188 4
-11 15 -15 33 -13 29 3 31 9 59 145 4 22 49 53 77 53 12 0 10 -18 -10 -102
-14 -57 -31 -147 -38 -201 -13 -97 -14 -100 -89 -216 -42 -65 -76 -127 -76
-138 0 -27 31 -53 63 -53 24 0 38 17 113 132 84 128 87 133 98 217 l11 85 81
-90 81 -91 21 -112 c12 -62 26 -119 33 -127 17 -20 63 -17 84 6 18 19 17 24
-5 152 l-24 132 -71 79 c-116 130 -109 116 -94 183 18 86 23 92 45 54 13 -22
42 -44 96 -71 86 -43 113 -48 126 -21 15 29 3 41 -77 81 l-77 39 -49 96 c-49
92 -73 117 -113 115 -9 0 -73 -29 -142 -64z"/>
<path d="M15605 6600 c-66 -32 -125 -63 -131 -68 -13 -12 -48 -197 -40 -211
11 -17 54 -13 64 7 5 9 15 48 22 85 12 67 14 69 54 87 22 9 42 16 44 15 2 -2
-10 -61 -27 -131 -16 -71 -32 -160 -36 -199 -6 -65 -12 -78 -80 -185 -41 -64
-77 -124 -81 -133 -10 -27 22 -67 55 -67 35 0 42 8 134 152 68 106 75 123 82
184 4 37 9 73 12 80 3 7 37 -23 83 -74 l78 -87 17 -90 c25 -133 33 -154 62
-161 13 -4 36 -1 50 5 24 11 25 15 20 64 -3 29 -13 93 -22 143 l-17 91 -88 99
-88 100 14 69 c8 38 16 71 19 73 2 3 12 -10 22 -27 13 -23 40 -44 95 -72 88
-44 123 -49 133 -19 9 29 -3 40 -82 79 -73 35 -78 41 -140 164 -33 64 -60 89
-96 86 -7 0 -66 -27 -132 -59z"/>
<path d="M16616 6600 c-65 -32 -123 -63 -128 -68 -6 -6 -19 -52 -29 -103 -21
-100 -16 -119 27 -119 24 0 32 17 51 120 7 39 14 48 51 68 51 28 51 30 18
-110 -14 -56 -30 -143 -36 -191 -12 -85 -15 -93 -86 -204 -81 -127 -92 -165
-50 -184 48 -22 67 -6 153 128 77 120 82 133 92 207 6 44 13 81 15 83 2 2 14
-9 26 -24 12 -15 41 -48 64 -73 64 -68 72 -86 91 -195 20 -113 34 -137 79
-133 47 5 56 33 40 126 -32 184 -29 176 -120 277 -46 51 -84 101 -84 111 0 28
23 134 30 134 3 0 15 -16 28 -36 17 -26 43 -44 99 -70 87 -40 117 -41 121 -3
3 23 -5 30 -75 65 l-78 39 -52 95 c-56 100 -74 121 -107 119 -12 0 -74 -27
-140 -59z"/>
<path d="M3513 6598 c-31 -34 -36 -63 -18 -98 41 -78 155 -52 155 35 0 74 -90
114 -137 63z"/>
<path d="M4525 6595 c-47 -46 -25 -124 39 -141 54 -13 115 48 102 102 -17 64
-95 86 -141 39z"/>
<path d="M5535 6594 c-14 -15 -25 -39 -25 -55 0 -37 37 -77 77 -85 27 -5 37
-1 63 24 38 39 40 83 5 117 -34 35 -88 34 -120 -1z"/>
<path d="M3365 6367 l-120 -63 -19 -97 c-15 -78 -16 -100 -6 -112 33 -40 64
-6 79 88 12 75 12 75 53 92 22 9 42 14 44 13 2 -2 -10 -60 -26 -128 -15 -69
-32 -158 -36 -198 -6 -69 -11 -79 -86 -197 -84 -133 -89 -151 -43 -181 30 -19
65 -4 90 39 10 18 47 75 81 127 59 90 63 99 69 173 4 42 11 77 15 77 4 0 42
-39 84 -86 54 -62 77 -97 82 -123 28 -158 39 -195 65 -210 24 -13 29 -13 53 2
33 22 33 45 2 194 l-23 111 -87 97 c-58 63 -85 102 -82 113 2 9 10 43 16 75 6
31 13 57 15 57 2 0 13 -16 25 -35 16 -26 44 -47 102 -76 79 -40 110 -43 122
-14 10 27 -4 41 -74 75 -74 36 -93 57 -145 160 -15 30 -34 63 -43 73 -28 31
-79 20 -207 -46z"/>
<path d="M4381 6369 c-62 -32 -115 -60 -118 -63 -3 -3 -14 -46 -24 -97 -19
-98 -15 -129 21 -129 26 0 33 13 50 100 15 72 17 76 54 93 21 10 40 16 42 14
3 -3 -6 -54 -20 -115 -14 -61 -30 -150 -37 -199 -11 -85 -14 -92 -85 -203 -82
-126 -90 -159 -49 -186 41 -27 63 -8 149 126 78 121 82 130 101 253 6 39 7 39
27 20 11 -10 47 -48 80 -85 l59 -67 21 -112 c27 -145 58 -180 112 -126 l24 24
-24 132 -23 132 -89 100 -88 100 15 70 c8 38 18 69 22 69 5 0 15 -13 23 -29
11 -21 39 -40 103 -71 94 -45 118 -44 118 1 0 20 -13 30 -74 60 -79 39 -103
66 -152 179 -39 89 -77 90 -238 9z"/>
<path d="M5445 6392 c-38 -21 -92 -47 -118 -57 -26 -10 -50 -21 -52 -25 -8
-13 -35 -156 -35 -187 0 -23 5 -33 20 -38 32 -10 46 9 59 78 7 34 14 69 17 78
5 16 73 54 82 44 3 -3 -5 -49 -18 -103 -12 -53 -29 -141 -36 -195 -15 -109
-12 -102 -100 -237 -70 -109 -78 -141 -39 -166 46 -30 59 -18 173 156 56 87
63 103 73 175 6 44 12 81 14 83 3 3 86 -83 130 -136 21 -25 33 -57 46 -125 28
-136 27 -136 53 -152 30 -20 73 -5 81 27 3 13 -6 79 -19 147 -27 134 -21 123
-139 255 l-59 65 13 71 c7 39 15 73 19 75 4 3 15 -11 25 -29 14 -26 38 -43
106 -76 75 -37 90 -42 104 -30 32 26 14 53 -65 95 -80 43 -73 34 -174 218 -22
40 -73 37 -161 -11z"/>
<path d="M6471 5473 l3 -48 -2094 -5 -2095 -5 -2 -27 -2 -28 2094 0 2094 0 3
-54 3 -54 135 68 135 68 -133 66 c-72 36 -134 66 -138 66 -3 0 -4 -21 -3 -47z"/>
<path d="M15442 5408 c3 -22 6 -23 141 -26 l137 -3 0 26 0 25 -141 0 c-140 0
-140 0 -137 -22z"/>
<path d="M15452 5283 c-16 -6 -52 -76 -52 -100 1 -13 5 -11 16 9 8 15 24 33
35 39 35 18 53 -10 57 -89 l4 -67 -136 -187 c-75 -103 -136 -189 -136 -192 0
-3 17 -6 38 -6 39 0 39 1 122 128 46 70 87 131 92 136 4 5 5 -49 1 -120 -5
-124 -5 -130 16 -149 21 -18 25 -18 49 -4 28 15 66 82 59 102 -2 7 -11 -3 -21
-20 -19 -39 -50 -43 -67 -11 -9 17 -9 68 1 225 7 112 9 220 5 240 -11 60 -41
83 -83 66z"/>
<path d="M4240 5185 l0 -25 140 0 140 0 0 25 0 25 -140 0 -140 0 0 -25z"/>
<path d="M4244 5055 c-22 -15 -54 -73 -54 -97 0 -7 12 2 26 20 50 63 84 34 84
-70 l-1 -63 -134 -185 c-74 -102 -135 -188 -135 -192 0 -5 17 -8 38 -8 37 0
38 2 126 135 49 74 91 135 93 135 3 0 1 -49 -2 -110 -10 -149 7 -188 70 -164
18 7 55 74 55 101 0 13 -6 9 -19 -13 -26 -43 -40 -50 -59 -30 -15 15 -16 35
-12 149 10 277 7 363 -14 386 -23 25 -34 26 -62 6z"/>
<path d="M13861 4404 c-55 -70 -57 -239 -3 -321 27 -43 31 -23 5 33 -23 50
-25 66 -21 143 3 67 9 96 26 126 27 45 23 57 -7 19z"/>
<path d="M13930 4420 c0 -5 5 -12 10 -15 7 -4 10 -54 9 -133 -1 -85 2 -127 10
-130 8 -3 11 38 11 136 0 131 -1 140 -20 145 -11 3 -20 1 -20 -3z"/>
<path d="M17050 4387 c45 -76 45 -200 1 -290 -11 -22 -14 -37 -7 -35 6 2 22
26 35 52 34 68 35 179 2 254 -13 28 -30 52 -37 52 -10 0 -8 -8 6 -33z"/>
<path d="M14858 4384 c-5 -4 -8 -15 -8 -25 0 -10 -8 -23 -17 -28 -17 -10 -17
-10 0 -11 15 0 17 -10 17 -78 0 -85 8 -102 49 -102 l26 0 -25 13 c-23 11 -25
19 -28 90 -3 74 -2 77 20 78 22 0 22 1 3 8 -11 4 -22 20 -25 35 -3 15 -8 24
-12 20z"/>
<path d="M14065 4329 c-35 -20 -45 -41 -45 -94 0 -41 5 -56 23 -72 33 -30 61
-36 101 -19 28 12 37 23 46 56 12 45 1 98 -25 120 -20 17 -77 22 -100 9z m90
-29 c28 -31 25 -108 -4 -132 -53 -42 -111 -8 -111 65 0 23 7 53 16 65 20 29
74 30 99 2z"/>
<path d="M14251 4243 c-1 -63 3 -103 9 -103 6 0 10 30 10 70 0 78 19 110 64
110 43 0 56 -24 56 -106 0 -43 4 -74 10 -74 13 0 13 145 0 170 -14 27 -64 35
-101 16 -39 -20 -37 -20 -42 2 -3 9 -5 -29 -6 -85z"/>
<path d="M14505 4328 c-11 -6 -23 -16 -27 -22 -11 -16 -9 -64 3 -71 7 -5 4
-15 -7 -32 -13 -21 -14 -27 -3 -34 11 -6 11 -11 1 -21 -19 -19 -14 -55 10 -72
12 -9 43 -16 68 -16 58 0 90 22 90 61 0 34 -17 43 -103 54 -48 6 -55 10 -48
23 7 12 21 16 51 13 26 -2 50 4 67 14 22 15 25 22 20 56 -3 21 -1 39 4 39 5 0
9 3 9 8 0 12 -113 12 -135 0z m95 -22 c18 -23 8 -59 -22 -76 -25 -13 -31 -13
-55 0 -31 17 -41 53 -23 76 7 7 29 14 50 14 21 0 43 -7 50 -14z m12 -162 c4
-3 8 -16 8 -28 0 -43 -86 -59 -127 -24 -17 13 -17 40 0 57 11 12 97 8 119 -5z"/>
<path d="M14977 4320 c-33 -26 -44 -85 -24 -133 8 -19 21 -38 28 -42 19 -13
98 -10 111 3 9 9 2 11 -33 6 -49 -7 -82 12 -94 54 -6 21 -4 22 71 22 l77 0 -6
38 c-11 67 -77 93 -130 52z m95 -17 c10 -9 18 -24 18 -35 0 -16 -8 -18 -65
-18 l-65 0 11 27 c6 15 16 31 22 35 20 13 60 9 79 -9z"/>
<path d="M15161 4243 c-1 -63 3 -103 9 -103 6 0 10 28 10 64 0 81 6 95 43 111
16 7 25 15 20 18 -5 3 -22 -1 -37 -9 -35 -17 -34 -18 -39 4 -3 9 -5 -29 -6
-85z"/>
<path d="M15338 4324 c-16 -8 -28 -10 -28 -4 0 5 -4 10 -10 10 -6 0 -10 -38
-10 -95 0 -57 4 -95 10 -95 6 0 10 29 10 68 0 59 3 72 23 90 26 24 57 28 75
10 7 -7 12 -43 12 -90 0 -45 4 -78 10 -78 6 0 10 29 10 68 0 76 21 112 63 112
38 0 47 -19 47 -102 0 -45 4 -78 10 -78 6 0 10 33 10 80 0 67 -3 83 -20 100
-25 25 -61 26 -90 2 -23 -18 -24 -18 -42 0 -22 22 -44 22 -80 2z"/>
<path d="M15748 4333 c-35 -9 -17 -19 35 -18 49 0 52 -1 55 -27 3 -27 1 -28
-38 -28 -43 0 -90 -33 -90 -63 0 -51 79 -79 120 -42 18 16 20 16 20 2 0 -10 4
-17 8 -17 9 0 7 138 -2 168 -9 28 -57 39 -108 25z m102 -113 c0 -27 -43 -70
-69 -70 -23 0 -51 25 -51 45 0 27 31 45 76 45 38 0 44 -3 44 -20z"/>
<path d="M15900 4332 c0 -24 73 -193 82 -190 15 5 87 187 77 194 -5 3 -12 -3
-16 -13 -3 -10 -19 -49 -34 -88 -25 -65 -28 -68 -37 -45 -6 14 -20 50 -32 80
-22 56 -40 84 -40 62z"/>
<path d="M16133 4328 c-47 -23 -56 -129 -14 -171 23 -23 104 -28 124 -8 10 10
3 11 -35 6 -42 -6 -50 -4 -72 18 -45 45 -35 57 43 57 39 0 72 4 75 8 3 5 1 26
-5 46 -14 51 -63 69 -116 44z m91 -30 c29 -41 21 -48 -50 -48 -63 0 -65 1 -59
23 15 49 81 65 109 25z"/>
<path d="M16351 4324 c-19 -14 -25 -14 -32 -3 -5 9 -9 -24 -9 -83 0 -59 4 -98
10 -98 6 0 10 32 10 75 0 74 1 76 30 93 16 9 30 20 30 25 0 11 -14 8 -39 -9z"/>
<path d="M16453 4330 c-36 -15 -27 -20 22 -13 49 6 75 -7 75 -37 0 -14 -11
-19 -52 -22 -57 -6 -78 -24 -78 -69 0 -14 7 -32 16 -39 22 -19 70 -16 94 5 18
16 20 16 20 2 0 -10 5 -17 10 -17 6 0 10 33 10 80 0 67 -3 83 -20 100 -21 21
-60 25 -97 10z m97 -114 c0 -27 -42 -66 -69 -66 -23 0 -41 20 -41 45 0 32 20
45 67 45 39 0 43 -2 43 -24z"/>
<path d="M16670 4333 c-34 -12 -56 -82 -30 -98 6 -4 3 -16 -7 -31 -14 -22 -14
-27 -2 -34 11 -7 11 -12 1 -22 -19 -19 -14 -55 10 -72 12 -9 43 -16 68 -16 58
0 90 22 90 61 0 34 -17 43 -103 54 -48 6 -55 10 -48 23 7 12 21 16 51 13 26
-2 50 4 67 14 22 15 25 22 20 56 -3 21 -1 39 4 39 5 0 9 3 9 8 0 8 -108 13
-130 5z m90 -27 c19 -24 8 -60 -24 -75 -26 -12 -33 -12 -55 0 -29 16 -39 53
-21 75 7 7 29 14 50 14 21 0 43 -7 50 -14z m12 -162 c17 -11 7 -44 -17 -60
-37 -24 -109 -9 -113 24 -6 41 16 55 72 47 27 -3 53 -8 58 -11z"/>
<path d="M16863 4316 c-24 -21 -28 -31 -28 -80 0 -73 24 -99 90 -99 25 0 51 5
57 11 9 9 2 11 -33 6 -49 -7 -82 12 -94 54 -6 21 -4 22 70 22 l77 0 -6 38
c-13 70 -79 94 -133 48z m101 -18 c29 -41 21 -48 -49 -48 -36 0 -65 3 -65 6 0
11 23 49 34 56 23 16 65 8 80 -14z"/>
<path d="M14681 4236 c7 -8 98 -10 105 -3 4 4 -19 7 -51 7 -32 0 -56 -2 -54
-4z"/>
<path d="M2840 4168 c-31 -52 -44 -134 -32 -200 11 -62 39 -128 53 -128 12 0
11 14 0 25 -6 6 -17 37 -26 70 -20 74 -12 157 20 220 26 52 14 61 -15 13z"/>
<path d="M2918 4193 c9 -3 12 -42 12 -144 0 -86 4 -139 10 -139 6 0 10 55 10
145 0 144 0 145 -22 144 -13 0 -17 -3 -10 -6z"/>
<path d="M6042 4158 c19 -36 23 -59 23 -138 0 -80 -4 -102 -23 -138 -14 -28
-18 -42 -10 -40 28 9 53 82 56 165 4 71 1 89 -21 137 -14 31 -31 56 -37 56 -6
0 0 -19 12 -42z"/>
<path d="M3840 4135 c0 -16 -6 -25 -15 -25 -8 0 -15 -4 -15 -10 0 -5 7 -10 15
-10 12 0 15 -15 15 -78 0 -81 9 -102 42 -102 24 0 23 16 -2 23 -18 5 -20 14
-20 81 0 69 2 76 20 76 11 0 20 5 20 10 0 6 -9 10 -20 10 -15 0 -20 7 -20 25
0 14 -4 25 -10 25 -5 0 -10 -11 -10 -25z"/>
<path d="M3029 4084 c-19 -20 -24 -36 -23 -76 0 -43 5 -55 28 -75 37 -31 89
-31 121 2 33 32 35 110 4 149 -29 37 -95 37 -130 0z m105 -5 c21 -17 26 -29
26 -66 0 -55 -21 -83 -61 -83 -43 0 -57 9 -69 46 -9 25 -9 43 0 69 19 57 58
70 104 34z"/>
<path d="M3230 4016 c0 -53 4 -98 10 -101 6 -4 10 19 10 62 1 70 9 91 47 111
30 16 40 15 63 -8 16 -16 20 -33 20 -95 0 -43 4 -75 10 -75 15 0 12 140 -3
170 -16 31 -76 39 -113 15 -21 -14 -24 -14 -24 0 0 8 -4 15 -10 15 -6 0 -10
-38 -10 -94z"/>
<path d="M3475 4090 c-14 -15 -16 -29 -11 -60 4 -25 2 -47 -6 -60 -11 -17 -10
-22 1 -29 9 -6 10 -11 2 -15 -15 -10 -14 -61 2 -74 22 -18 84 -24 121 -12 37
12 54 43 43 74 -7 17 -67 36 -114 36 -17 0 -34 4 -38 9 -9 15 17 26 62 26 59
1 87 28 79 77 -4 24 -2 38 7 41 6 3 -20 6 -59 6 -59 1 -74 -2 -89 -19z m103
-6 c43 -30 17 -84 -42 -84 -39 0 -56 15 -56 52 0 45 54 63 98 32z m15 -166
c23 -12 22 -45 -2 -58 -27 -14 -94 -13 -109 2 -15 15 -16 50 -1 65 12 12 82 6
112 -9z"/>
<path d="M3961 4093 c-12 -10 -24 -35 -28 -55 -15 -97 40 -147 135 -122 41 11
23 21 -31 16 -58 -5 -70 3 -82 51 l-7 27 76 0 76 0 -7 33 c-9 47 -30 67 -73
67 -21 0 -47 -8 -59 -17z m95 -18 c37 -37 27 -50 -44 -53 -71 -3 -81 10 -37
53 31 32 50 31 81 0z"/>
<path d="M4149 4106 c-7 -7 -2 -186 5 -194 3 -3 7 20 7 51 1 32 2 60 3 65 9
35 21 53 42 58 13 3 24 10 24 15 0 15 -37 10 -51 -7 -12 -15 -14 -15 -19 1 -3
9 -8 14 -11 11z"/>
<path d="M4280 4013 c0 -62 4 -103 10 -103 6 0 10 31 10 74 0 69 2 76 26 95
33 26 39 26 64 1 16 -16 20 -33 20 -95 0 -98 18 -97 22 1 3 70 5 79 30 97 25
19 28 19 52 3 24 -15 26 -22 26 -96 0 -47 4 -80 10 -80 17 0 12 152 -6 178
-18 26 -68 30 -101 7 -18 -13 -22 -13 -33 0 -16 19 -74 19 -90 0 -11 -13 -14
-13 -26 2 -11 15 -13 3 -14 -84z"/>
<path d="M4724 4099 c-5 -9 3 -10 29 -5 47 9 77 -7 77 -39 0 -23 -4 -25 -43
-25 -54 0 -87 -22 -87 -59 0 -52 62 -79 106 -46 25 19 32 19 37 -2 3 -10 5 23
6 72 1 59 -3 95 -11 103 -15 15 -105 16 -114 1z m106 -106 c0 -14 -7 -35 -17
-45 -18 -20 -63 -24 -81 -6 -32 32 6 78 65 78 29 0 33 -3 33 -27z"/>
<path d="M4920 4013 c21 -54 43 -99 48 -101 4 -1 25 39 45 90 39 99 42 108 29
108 -4 0 -21 -36 -37 -80 -16 -44 -32 -80 -36 -80 -3 0 -19 35 -35 77 -16 42
-34 78 -41 80 -6 2 6 -40 27 -94z"/>
<path d="M5101 4084 c-31 -39 -29 -117 4 -149 24 -25 73 -33 109 -19 31 12 16
19 -33 16 -42 -3 -51 0 -65 19 -33 48 -23 59 54 59 70 0 70 0 70 28 0 48 -25
72 -75 72 -35 0 -48 -5 -64 -26z m97 0 c12 -8 22 -26 22 -40 0 -23 -3 -24 -60
-24 -51 0 -60 3 -60 18 0 22 10 36 35 50 27 15 37 15 63 -4z"/>
<path d="M5290 4010 c0 -60 4 -100 10 -100 6 0 10 27 10 60 0 70 21 120 50
120 11 0 20 5 20 10 0 16 -32 12 -52 -7 -17 -15 -18 -15 -18 0 0 10 -4 17 -10
17 -6 0 -10 -40 -10 -100z"/>
<path d="M5433 4104 c-30 -13 -9 -21 28 -12 36 10 43 8 61 -10 31 -31 17 -52
-35 -52 -56 0 -80 -18 -80 -60 0 -55 56 -78 108 -44 23 15 25 15 25 0 0 -9 5
-16 10 -16 15 0 12 140 -3 170 -10 20 -21 25 -57 27 -25 1 -51 0 -57 -3z m105
-109 c7 -51 -84 -89 -108 -46 -21 40 15 72 75 68 22 -1 31 -8 33 -22z"/>
<path d="M5635 4094 c-11 -11 -15 -32 -14 -63 0 -25 -2 -56 -6 -68 -5 -16 -3
-23 5 -23 10 0 10 -3 1 -14 -20 -24 -9 -69 19 -84 32 -17 105 -9 130 13 25 22
26 61 2 74 -9 5 -35 12 -57 16 -80 13 -85 15 -78 31 4 12 14 14 38 10 65 -13
118 32 96 80 -8 19 -7 25 7 33 12 8 -2 10 -55 11 -53 0 -76 -4 -88 -16z m103
-10 c12 -8 22 -22 22 -31 0 -50 -85 -73 -114 -31 -20 29 -20 34 4 58 24 24 57
26 88 4z m15 -166 c23 -12 22 -45 -2 -58 -27 -14 -94 -13 -109 2 -15 15 -16
50 -1 65 12 12 82 6 112 -9z"/>
<path d="M5841 4084 c-36 -46 -20 -151 24 -168 28 -10 80 -7 100 7 16 12 11
13 -37 9 -49 -4 -57 -2 -72 19 -33 48 -23 59 54 59 70 0 70 0 70 28 0 48 -25
72 -75 72 -35 0 -48 -5 -64 -26z m97 -1 c12 -10 22 -27 24 -38 3 -18 -3 -20
-59 -23 -72 -3 -82 10 -38 53 29 30 46 31 73 8z"/>
<path d="M3670 4010 c0 -5 23 -10 50 -10 28 0 50 5 50 10 0 6 -22 10 -50 10
-27 0 -50 -4 -50 -10z"/>
<path d="M10660 1895 l0 -25 144 0 144 0 4 25 5 25 -148 0 -149 0 0 -25z"/>
<path d="M8870 1875 l0 -25 145 0 145 0 0 25 0 25 -145 0 -145 0 0 -25z"/>
<path d="M10656 1756 c-22 -25 -50 -96 -38 -96 4 0 15 14 24 30 22 39 64 42
78 4 15 -38 12 -145 -4 -163 -7 -9 -72 -98 -145 -198 l-131 -183 44 0 43 0 93
140 c51 77 94 140 96 140 2 0 1 -57 -2 -127 -6 -118 -5 -130 13 -152 18 -23
23 -24 51 -12 22 9 36 26 52 63 26 60 21 73 -8 23 -23 -38 -42 -44 -63 -18
-11 13 -13 46 -9 152 3 75 5 191 5 257 0 106 -3 125 -19 143 -25 28 -52 27
-80 -3z"/>
<path d="M8885 1750 c3 -5 17 -10 30 -10 14 0 29 -8 34 -19 12 -21 5 -49 -81
-351 -52 -182 -54 -185 -88 -203 -34 -17 -30 -17 208 -15 l244 3 24 75 c27 84
28 90 15 90 -5 0 -14 -13 -21 -29 -30 -73 -104 -111 -215 -111 -82 0 -115 11
-115 38 0 24 124 463 139 490 7 13 25 25 42 29 69 13 32 23 -91 23 -85 0 -129
-4 -125 -10z"/>
<path d="M10950 1750 c0 -5 9 -10 20 -10 10 0 24 -8 29 -18 5 -9 23 -141 41
-292 35 -300 36 -308 50 -294 5 5 55 101 111 214 l102 205 8 -40 c4 -22 15
-118 25 -213 11 -109 22 -171 28 -169 6 2 77 132 158 288 103 198 157 292 180
312 l32 27 -87 0 c-48 0 -87 -4 -87 -9 0 -5 10 -11 21 -13 12 -2 27 -11 33
-21 9 -14 -7 -53 -89 -213 -83 -165 -100 -193 -106 -173 -4 13 -15 104 -24
202 -18 188 -16 207 26 207 11 0 19 5 19 10 0 6 -44 10 -112 10 l-113 -1 35
-17 c30 -15 36 -24 44 -65 10 -48 8 -51 -69 -207 -44 -88 -82 -157 -85 -154
-7 7 -46 375 -42 397 2 10 16 20 33 24 61 12 25 23 -76 23 -63 0 -105 -4 -105
-10z"/>
<path d="M9590 1480 l0 -30 275 0 275 0 0 30 0 30 -275 0 -275 0 0 -30z"/>
<path d="M9590 1290 l0 -30 275 0 275 0 0 30 0 30 -275 0 -275 0 0 -30z"/>
<path d="M18790 420 l0 -420 420 0 420 0 0 420 0 420 -420 0 -420 0 0 -420z
m592 132 c98 -61 97 -203 -2 -265 -31 -20 -49 -22 -165 -22 -120 0 -133 2
-169 24 -40 25 -76 86 -76 131 0 31 31 100 53 119 38 31 91 41 207 39 100 -3
120 -6 152 -26z"/>
<path d="M19095 511 c-33 -14 -55 -46 -57 -82 -3 -81 45 -109 182 -109 130 0
170 25 170 104 0 22 -9 45 -24 63 -24 27 -27 28 -138 30 -62 2 -122 -1 -133
-6z"/>
<path d="M5161 464 c0 -11 3 -14 6 -6 3 7 2 16 -1 19 -3 4 -6 -2 -5 -13z"/>
<path d="M2592 425 c0 -16 2 -22 5 -12 2 9 2 23 0 30 -3 6 -5 -1 -5 -18z"/>
<path d="M3132 425 c0 -16 2 -22 5 -12 2 9 2 23 0 30 -3 6 -5 -1 -5 -18z"/>
<path d="M3552 420 c0 -19 2 -27 5 -17 2 9 2 25 0 35 -3 9 -5 1 -5 -18z"/>
<path d="M4316 437 c3 -10 9 -15 12 -12 3 3 0 11 -7 18 -10 9 -11 8 -5 -6z"/>
<path d="M1912 415 c0 -16 2 -22 5 -12 2 9 2 23 0 30 -3 6 -5 -1 -5 -18z"/>
<path d="M2433 400 c0 -25 2 -35 4 -22 2 12 2 32 0 45 -2 12 -4 2 -4 -23z"/>
<path d="M5163 400 c0 -25 2 -35 4 -22 2 12 2 32 0 45 -2 12 -4 2 -4 -23z"/>
<path d="M5690 431 c0 -6 4 -13 10 -16 6 -3 7 1 4 9 -7 18 -14 21 -14 7z"/>
<path d="M1360 410 c-6 -11 -8 -20 -6 -20 3 0 10 9 16 20 6 11 8 20 6 20 -3 0
-10 -9 -16 -20z"/>
<path d="M5595 399 c-4 -6 -5 -12 -2 -15 2 -3 7 2 10 11 7 17 1 20 -8 4z"/>
</g>
</svg>
