<?xml version="1.0" encoding="utf-8"?>
<!-- Uploaded to: SVG Repo, www.svgrepo.com, Generator: SVG Repo Mixer Tools -->
<svg fill="#000000" height="800px" width="800px" version="1.1" id="Layer_1" xmlns="http://www.w3.org/2000/svg" xmlns:xlink="http://www.w3.org/1999/xlink" 
	 viewBox="0 0 256 256" xml:space="preserve">
<g>
	<circle cx="111" cy="21.3" r="21.3"/>
	<path d="M203.2,107.3l-51.5-51.5c-5.2-5.2-12-7.8-18.9-7.8H111h0H84.3c-14.7,0-26.7,11.9-26.7,26.7V140c0,5.2,4.2,9.3,9.3,9.3
		s9.3-4.2,9.3-9.3V80c0-1.5,1.2-2.7,2.7-2.7c1.5,0,2.7,1.2,2.7,2.7v21.3v45.3v96c0,7.4,6,13.3,13.3,13.3s13.3-6,13.3-13.3v-93.3
		c0-1.5,1.2-2.7,2.7-2.7s2.7,1.2,2.7,2.7v93.3c0,7.4,6,13.3,13.3,13.3s13.3-6,13.3-13.3v-96h0V77.3c0-1.5,1.2-2.7,2.7-2.7
		c0.7,0,1.4,0.3,1.9,0.8l45.1,45.1c3.6,3.6,9.6,3.6,13.2,0C206.8,116.9,206.8,111,203.2,107.3z"/>
</g>
</svg>