<?xml version="1.0" encoding="utf-8"?>
<!-- Uploaded to: SVG Repo, www.svgrepo.com, Generator: SVG Repo Mixer Tools -->
<svg fill="#000000" height="800px" width="800px" version="1.1" id="Layer_1" xmlns="http://www.w3.org/2000/svg" xmlns:xlink="http://www.w3.org/1999/xlink" 
	 viewBox="0 0 256 256" xml:space="preserve">
<g>
	<circle cx="128" cy="21.7" r="21.3"/>
	<path d="M202.7,77l-41.3-23.8c-3.7-2.7-8-4.3-12.4-4.8l-21-0.1h0h0l-21,0.1c-4.4,0.5-8.6,2.2-12.4,4.8L53.3,77
		c-4.5,2.6-6,8.3-3.4,12.7l21.3,36.8c2.6,4.5,8.3,6,12.7,3.4c4.5-2.6,6-8.3,3.4-12.7L70.6,88.4l24.1-13.9c0.4-0.2,0.9-0.4,1.4-0.4
		c1.5,0,2.7,1.2,2.7,2.7v19.3v50.5v95.7c0,0.5,0,0.9,0.1,1.4c0.2,1.8,0.7,3.5,1.5,5c0.4,0.8,0.9,1.5,1.4,2.1
		c0.5,0.7,1.1,1.3,1.8,1.8c0.3,0.3,0.7,0.5,1,0.8c0.7,0.5,1.5,0.9,2.3,1.2c1.6,0.7,3.3,1,5.2,1c0.5,0,0.9,0,1.4-0.1
		c2.2-0.2,4.3-1,6.1-2.2c0.4-0.2,0.7-0.5,1-0.8c0.7-0.5,1.3-1.1,1.8-1.8c0.3-0.3,0.5-0.7,0.8-1c1.2-1.8,2-3.8,2.2-6.1
		c0-0.4,0.1-0.9,0.1-1.4v-95.7h5.3v95.7c0,0.5,0,0.9,0.1,1.4c0.2,2.2,1,4.3,2.2,6.1c0.2,0.4,0.5,0.7,0.8,1c0.5,0.7,1.1,1.3,1.8,1.8
		c0.3,0.3,0.7,0.5,1,0.8c1.8,1.2,3.8,2,6.1,2.2c0.4,0,0.9,0.1,1.4,0.1c1.8,0,3.6-0.4,5.2-1c0.8-0.3,1.6-0.7,2.3-1.2
		c0.4-0.2,0.7-0.5,1-0.8c0.7-0.5,1.3-1.1,1.8-1.8c0.5-0.7,1-1.4,1.4-2.1c0.8-1.5,1.4-3.2,1.5-5c0-0.4,0.1-0.9,0.1-1.4v-95.7h0V76.8
		c0-1.5,1.2-2.7,2.7-2.7c0.5,0,1,0.2,1.4,0.4l24.1,13.9l-16.6,28.8c-2.6,4.5-1,10.1,3.4,12.7c4.5,2.6,10.1,1,12.7-3.4l21.3-36.8
		C208.7,85.2,207.2,79.5,202.7,77z"/>
</g>
</svg>