<?xml version="1.0" encoding="utf-8"?>
<!-- Uploaded to: SVG Repo, www.svgrepo.com, Generator: SVG Repo Mixer Tools -->
<svg fill="#000000" height="800px" width="800px" version="1.2" baseProfile="tiny" id="Layer_1" xmlns="http://www.w3.org/2000/svg" xmlns:xlink="http://www.w3.org/1999/xlink"
	  viewBox="-421 153 116 256" xml:space="preserve">
<path d="M-362.5,198.5c-11.8,0-21.2-9.5-21.2-21.2s9.5-21.3,21.2-21.3s21.2,9.5,21.2,21.2S-350.7,198.5-362.5,198.5 M-352.3,237.3
	c3.2-3.5,8.6-3.6,11.9-0.4l25.4,24.3c3.3,3.1,3.3,8.5,0.1,11.9c-3.2,3.5-8.6,3.6-11.9,0.4l-25.4-24.3
	C-355.4,246-355.5,240.7-352.3,237.3z M-357.5,242.9c0-2.9,1-5.6,3-7.7c2.1-2.2,5-3.4,7.9-3.4c2.7,0,5.3,1,7.2,2.9l4.4,4.2
	c0-0.7,0-1.2,0-1.2h4.8v5.6l17.3,16.5c0.4,0.4,0.8,0.8,1.2,1.4v-30c0-15-12.3-27.2-27.4-27.2H-386c-15,0-27.4,12.3-27.4,27.2v65.9
	c0,5.1,4,9.3,9.2,9.3c5.1,0,9.3-4.1,9.3-9.3v-59.4h4.8V394c0,6.9,5.6,12.4,12.5,12.4s12.4-5.5,12.4-12.4v-87h5.1v87
	c0,6.9,5.5,12.4,12.4,12.4s12.4-5.5,12.4-12.4c0-7.2,0.1-79.1,0.1-124.9l-19.2-18.5C-356.3,248.4-357.5,245.7-357.5,242.9z"/>
</svg>