<?xml version="1.0" encoding="utf-8"?>
<!-- Uploaded to: SVG Repo, www.svgrepo.com, Generator: SVG Repo Mixer Tools -->
<svg fill="#000000" height="800px" width="800px" version="1.1" id="Layer_1" xmlns="http://www.w3.org/2000/svg" xmlns:xlink="http://www.w3.org/1999/xlink" 
	 viewBox="0 0 256 256" xml:space="preserve">
<g>
	<circle cx="122.1" cy="22.2" r="21.2"/>
	<path d="M213.9,107.8l-51.3-51.3c-5.2-5.2-12-7.8-18.8-7.8h-21.7l0,0l-21,0.1c-4.4,0.5-8.6,2.1-12.4,4.8L47.5,77.4
		c-4.4,2.6-6,8.2-3.4,12.7l21.2,36.8c2.6,4.4,8.2,6,12.7,3.4c4.4-2.6,6-8.2,3.4-12.7L64.9,88.9l24-13.8c0.4-0.2,0.9-0.4,1.4-0.4
		c1.5,0,2.7,1.2,2.7,2.7v19.2v50.4v95.5c0,7.3,5.9,13.3,13.3,13.3c7.3,0,13.3-5.9,13.3-13.3v-92.9c0-1.5,1.2-2.7,2.7-2.7
		c1.5,0,2.7,1.2,2.7,2.7v92.9c0,7.3,5.9,13.3,13.3,13.3s13.3-5.9,13.3-13.3v-95.5h0v-69c0-1.5,1.2-2.6,2.7-2.6
		c0.7,0,1.4,0.3,1.9,0.8l44.9,44.9c3.6,3.6,9.5,3.6,13.1,0C217.5,117.3,217.5,111.4,213.9,107.8z"/>
</g>
</svg>