<?xml version="1.0" encoding="utf-8"?>
<!-- Uploaded to: SVG Repo, www.svgrepo.com, Generator: SVG Repo Mixer Tools -->
<svg fill="#000000" height="800px" width="800px" version="1.2" baseProfile="tiny" id="Layer_1" xmlns="http://www.w3.org/2000/svg" xmlns:xlink="http://www.w3.org/1999/xlink"
	  viewBox="0 0 256 256" xml:space="preserve">
<path id="XMLID_1_" d="M221.5,206.1l13.5,7.3v11.2c0,1,0,1.9-1,1.9v15c0,2.5-2,4.4-4.5,4.4c-2.5,0-4.5-2-4.5-4.4V226h-16.8l7.5,12.9
	c1.3,2.1,0.6,5.1-1.5,6.3c-2.1,1.3-4.9,0.6-6.1-1.5L200,230l0,11.4c0,2.5-2,4.4-4.5,4.4c-2.5,0-4.5-2-4.5-4.4v-29.2l-6-3.6
	c-1.2-0.7-1.6-2.3-0.9-3.6c0.7-1.2,2.3-1.8,3.5-1.1l3.9,1.9h29.5l-72.3-71.5c-1.8,1.5-4.1,2.3-6.6,2.1c-1.5-0.1-2.7-0.7-4.2-1.3
	l-30.6-21c-0.9-0.8-1.7-1.7-2.3-2.8l-7.7-15.2l-9.2,40.6l36.1,42.7c0.8,1.3,1.3,2.8,1.7,4.4l9.7,51.5c0,1.1,0.1,1.9,0.1,2.8
	c-0.6,7.6-7.3,13.2-14.8,12.6c-6.2-0.5-11-5.2-12.4-10.9l-9.2-48.3l-29.3-32.1l-6.9,31.3c-0.2,1.5-2.1,4.6-2.8,5.8l-28.1,47.4
	c-2.9,4.4-7.5,7.1-12.9,6.7C11.7,250.2,6,243.6,6.6,236c0.2-2.1,1.1-4.4,1.8-5.9l26.2-43.9l21.8-96.7l-14.2,11.6l-7.5,34.5
	c-1,4.4-5,8-9.8,7.6c-5-0.4-8.8-4.8-8.5-9.9c0.1-0.4,0.1-0.8,0.2-1.2l9-40.2c0.5-1.8,1.5-3.3,2.8-4.4l40.9-33.2
	c4-2.8,8.9-4.6,14.3-4.2c7,0.6,12.8,4.9,16.2,10.2l20.6,40.7l28,19.3c2.4,1.8,3.9,4.8,3.6,8.1c-0.1,1.2-0.4,2.2-0.9,3.2l71.5,72.2
	L221.5,206.1z M223,186.2v17.2l12,6v-2.4l10.5,0l4-8.1L223,186.2z M86.5,45.8c11.2,0.9,21-7.5,21.9-18.7c0.9-11.2-7.5-21-18.7-21.9
	c-11.2-0.9-21,7.5-21.9,18.7C67,35.1,75.3,44.9,86.5,45.8z"/>
</svg>