<?xml version="1.0" encoding="utf-8"?>
<!-- Uploaded to: SVG Repo, www.svgrepo.com, Generator: SVG Repo Mixer Tools -->
<svg fill="#000000" height="800px" width="800px" version="1.1" id="Layer_1" xmlns="http://www.w3.org/2000/svg" xmlns:xlink="http://www.w3.org/1999/xlink" 
	 viewBox="0 0 256 256" xml:space="preserve">
<g>
	<circle cx="128" cy="34.2" r="20.1"/>
	<path d="M193.6,32.7L165.1,4.3c-3.4-3.4-9-3.4-12.4,0c-3.4,3.4-3.4,9,0,12.4l22.2,22.2l-16,16c-2.9,2.9-6.8,4.4-10.7,4.4H128h0
		h-20.3c-3.9,0-7.7-1.5-10.7-4.4l-16-16l22.2-22.2c3.4-3.4,3.4-9,0-12.4c-3.4-3.4-9-3.4-12.4,0L62.4,32.7c-3.4,3.4-3.4,9,0,12.4
		l37.9,37.9v1.4v67.9v90.5c0,0.4,0,0.9,0.1,1.3c0.2,2.1,1,4.1,2.1,5.7c0.5,0.7,1,1.3,1.5,1.9c1.1,1.1,2.5,2.1,4,2.7
		c1.5,0.6,3.2,1,4.9,1c0.4,0,0.9,0,1.3-0.1c3-0.3,5.6-1.6,7.6-3.6c0.6-0.6,1.1-1.2,1.5-1.9c1.1-1.7,1.9-3.6,2.1-5.7
		c0-0.4,0.1-0.9,0.1-1.3v-88c0-1.4,1.1-2.5,2.5-2.5s2.5,1.1,2.5,2.5v88c0,0.4,0,0.9,0.1,1.3c0.2,2.1,1,4.1,2.1,5.7
		c0.2,0.3,0.5,0.7,0.7,1c2,2.5,5,4.2,8.4,4.5c0.4,0,0.9,0.1,1.3,0.1c1.7,0,3.4-0.4,4.9-1c1.5-0.6,2.9-1.6,4-2.7
		c0.6-0.6,1.1-1.2,1.5-1.9c1.1-1.7,1.9-3.6,2.1-5.7c0-0.4,0.1-0.9,0.1-1.3v-90.5h0V83.1l37.9-37.9C197,41.7,197,36.2,193.6,32.7z"/>
</g>
</svg>