<?xml version="1.0" encoding="utf-8"?>
<!-- Uploaded to: SVG Repo, www.svgrepo.com, Generator: SVG Repo Mixer Tools -->
<svg fill="#000000" height="800px" width="800px" version="1.2" baseProfile="tiny" id="_x31_" xmlns="http://www.w3.org/2000/svg" xmlns:xlink="http://www.w3.org/1999/xlink"
	  viewBox="0 0 165 256" xml:space="preserve">
<path d="M117,15.2c-4,4-10.6,4-14.8,0c-0.6-0.6-1.2-1.4-1.6-2C97,6.8,90.2,2.6,82.4,2.6c-11.6,0-20.8,9.4-20.8,20.8s9.4,21,21,21
	c18.4,0,33.4-13.6,36-31.2C118.2,13.8,117.6,14.6,117,15.2z M159.3,5.4c-3.6-3.6-9.4-3.6-13,0l-39.6,39.6c-2.8,2.8-6.8,4.6-11.2,4.6
	h-26c-4.4,0-8.4-1.8-11.2-4.6L18.7,5.4c-3.6-3.6-9.4-3.6-13,0s-3.6,9.4,0,13l47.7,47.7c3.4,3.4,7,6.8,6,13.4c0,0-5.4,44.1-5.4,45.1
	c-0.2,1.2-0.2,2.4-0.2,3.4v111.3c0,7.8,5.8,14.2,13,14.2c7.2,0,13-6.4,13-14.2v-90.5c0-1.4,1.2-2.6,2.6-2.6c1.4,0,2.6,1.2,2.6,2.6
	v90.3c0,7.8,5.8,14.2,13,14.2s13-6.4,13-14.2V127.9c0-1,0-2.4-0.2-3.4c-0.2-0.8-5.4-45.1-5.4-45.1c-0.8-6.8,2.6-10,6-13.4l47.9-47.9
	C162.9,14.8,162.9,9,159.3,5.4z"/>
</svg>