<?xml version="1.0" encoding="utf-8"?>
<!-- Uploaded to: SVG Repo, www.svgrepo.com, Generator: SVG Repo Mixer Tools -->
<svg fill="#000000" height="800px" width="800px" version="1.1" id="Layer_1" xmlns="http://www.w3.org/2000/svg" xmlns:xlink="http://www.w3.org/1999/xlink" 
	 viewBox="0 0 256 256" xml:space="preserve">
<g>
	<circle cx="130" cy="23.4" r="20.9"/>
	<path d="M215,5.1c-3.6-3.6-9.4-3.6-13,0l-29.6,29.6l-10.2,10.2c-3.1,3.1-7.1,4.6-11.1,4.6H130h0h-21.1c-4,0-8-1.5-11.1-4.6
		L87.6,34.7L58,5.1c-3.6-3.6-9.4-3.6-13,0c-3.6,3.6-3.6,9.4,0,13l29.6,29.6l26.6,26.6v1.4v70.7v94.2c0,2.3,0.6,4.4,1.6,6.2
		c0.6,1.1,1.4,2.1,2.3,3c0.3,0.3,0.6,0.6,0.9,0.8c1.9,1.6,4.3,2.7,7,2.9c0.4,0,0.9,0.1,1.3,0.1c7.2,0,13.1-5.9,13.1-13.1v-91.6
		c0-1.4,1.2-2.6,2.6-2.6s2.6,1.2,2.6,2.6v91.6c0,7.2,5.9,13.1,13.1,13.1c0.5,0,0.9,0,1.3-0.1c2.6-0.3,5-1.3,7-2.9
		c0.3-0.3,0.6-0.5,0.9-0.8c0.9-0.9,1.6-1.9,2.3-3c1-1.9,1.6-4,1.6-6.2v-94.2h0V74.2l26.6-26.6L215,18C218.6,14.4,218.6,8.6,215,5.1z
		"/>
</g>
</svg>