<?xml version="1.0" encoding="utf-8"?>
<!-- Uploaded to: SVG Repo, www.svgrepo.com, Generator: SVG Repo Mixer Tools -->
<svg fill="#000000" height="800px" width="800px" version="1.1" xmlns="http://www.w3.org/2000/svg" xmlns:xlink="http://www.w3.org/1999/xlink" 
	 viewBox="0 0 127.5 128" xml:space="preserve">
<g id="_x31_">
</g>
<g id="Child">
</g>
<g id="Man">
	<g>
		<path d="M36.5,23.2c5.7,0,10.4-4.6,10.4-10.4c0-5.7-4.6-10.4-10.4-10.4c-3.9,0-7.2,2.1-9,5.2c-0.2,0.4-0.5,0.7-0.8,1
			c-2,2-5.3,2-7.3,0c-0.3-0.3-0.6-0.6-0.8-1C19.9,16.5,27.4,23.2,36.5,23.2z"/>
		<path d="M58.6,74.9c2.5-0.3,4.3-2.5,4-5l-3.9-32.9c-0.9-6.3-6.3-11.1-12.8-11.1H26c-6.5,0-11.9,4.8-12.8,11.1L9.3,69.9
			c-0.3,2.5,1.5,4.7,4,5c2.5,0.3,4.7-1.5,5-4L22,40.3c0.1-0.6,0.6-1.1,1.3-1.1c0.7,0,1.3,0.6,1.3,1.3c0,0.1,0,0.2,0,0.2
			c0,0-2.7,21.7-2.7,22.1c-0.1,0.6-0.1,1.2-0.1,1.7v55.1c0,3.9,2.9,7,6.5,7c3.6,0,6.5-3.1,6.5-7V75c0-0.7,0.6-1.3,1.3-1.3
			s1.3,0.6,1.3,1.3v44.8c0,3.9,2.9,7,6.5,7c3.6,0,6.5-3.1,6.5-7V64.6c0-0.5,0-1.2-0.1-1.7c-0.1-0.4-2.7-22.1-2.7-22.1s0-0.1,0-0.2
			c0-0.7,0.6-1.3,1.3-1.3c0.6,0,1.1,0.5,1.3,1.1l3.6,30.6C53.8,73.4,56.1,75.2,58.6,74.9z"/>
		<circle cx="88.3" cy="12.3" r="10.4"/>
		<path d="M101.4,25.4H75.4c-7.2,0-13,5.8-13,13v31.7c0,2.5,2,4.6,4.6,4.6c2.6,0,4.6-2,4.6-4.6V40.9c0-0.7,0.6-1.3,1.3-1.3
			s1.3,0.6,1.3,1.3v78.7c0,3.9,2.9,7.1,6.5,7.1c3.6,0,6.5-3.2,6.5-7.1V74.8c0-0.7,0.6-1.3,1.3-1.3s1.3,0.6,1.3,1.3v44.9
			c0,3.9,2.9,7.1,6.5,7.1c3.6,0,6.5-3.2,6.5-7.1V40.9c0-0.7,0.6-1.3,1.3-1.3s1.3,0.6,1.3,1.3v29.2c0,2.5,2,4.6,4.6,4.6
			s4.6-2,4.6-4.6V38.3C114.3,31.1,108.4,25.4,101.4,25.4z"/>
	</g>
</g>
</svg>