<?xml version="1.0" encoding="utf-8"?>
<!-- Uploaded to: SVG Repo, www.svgrepo.com, Generator: SVG Repo Mixer Tools -->
<svg fill="#000000" height="800px" width="800px" version="1.2" baseProfile="tiny" id="Texting" xmlns="http://www.w3.org/2000/svg" xmlns:xlink="http://www.w3.org/1999/xlink"
	  viewBox="-63 65 128 128" xml:space="preserve">
<ellipse id="_x33_" cx="16.9" cy="76.1" rx="11.1" ry="11.1"/>
<path id="_x32_" d="M38.9,96l-13.1,4.7c-0.7,0.3-1.5-0.1-1.8-0.8l0,0c-0.3-0.7,0.1-1.5,0.8-1.8l13.1-4.7c0.7-0.3,1.5,0.1,1.8,0.8
	l0,0C40,95,39.6,95.7,38.9,96z"/>
<path id="_x31_" d="M39.2,103.1c-1-2.5-3.8-3.9-6.3-2.9l-16.7,6.1l-4.3-11.8c-1.1-4.7-5-8.6-10.2-9.6C-5,83.6-11.6,88.2-12.8,95
	l-11.5,65.4l-15,21.6c-2.2,3.2-1.4,7.5,1.7,9.7c3.2,2.2,7.5,1.4,9.7-1.7l16-22.8c0.6-0.8,1-1.8,1.1-2.8l3.6-20.4l12.1,17.4l4.6,25.9
	c0.7,3.8,4.3,6.3,8.1,5.7c3.8-0.7,6.3-4.3,5.7-8.1l-4.9-27.4c-0.1-1-0.6-1.9-1.1-2.8l0,0L2.9,134.1l3.3-18.9L0.5,99.6
	c-0.3-0.7,0.1-1.5,0.8-1.8c0.7-0.3,1.5,0.1,1.8,0.8l5.6,15.3c0.4,1.3,1.3,2.2,2.5,2.9c1.1,0.6,2.4,0.6,3.5,0.3l21.6-7.8
	C38.8,108.4,40.2,105.6,39.2,103.1z"/>
</svg>