<?xml version="1.0" encoding="utf-8"?>
<!-- Uploaded to: SVG Repo, www.svgrepo.com, Generator: SVG Repo Mixer Tools -->
<svg fill="#000000" height="800px" width="800px" version="1.1" id="Layer_1" xmlns="http://www.w3.org/2000/svg" xmlns:xlink="http://www.w3.org/1999/xlink" 
	 viewBox="0 0 256 256" xml:space="preserve">
<g>
	<circle cx="126" cy="22.1" r="21.1"/>
	<path d="M217.3,107.3l-51-51c-5.2-5.2-11.9-7.7-18.7-7.7H126h0h-21.6c-6.8,0-13.5,2.6-18.7,7.7l-51,51c-3.6,3.6-3.6,9.5,0,13.1
		c3.6,3.6,9.5,3.6,13.1,0l44.7-44.7c0.5-0.5,1.1-0.8,1.9-0.8c1.5,0,2.6,1.2,2.6,2.6v23.8v44.9v95.1c0,1.4,0.2,2.7,0.6,3.9
		c1.3,4.1,4.5,7.4,8.7,8.7c1.2,0.4,2.6,0.6,3.9,0.6s2.7-0.2,3.9-0.6c4.1-1.3,7.4-4.5,8.7-8.7c0.4-1.2,0.6-2.6,0.6-3.9v-92.4
		c0-1.5,1.2-2.6,2.6-2.6s2.6,1.2,2.6,2.6v92.4c0,1.4,0.2,2.7,0.6,3.9c1.3,4.1,4.5,7.4,8.7,8.7c1.2,0.4,2.6,0.6,3.9,0.6
		s2.7-0.2,3.9-0.6c4.1-1.3,7.4-4.5,8.7-8.7c0.4-1.2,0.6-2.6,0.6-3.9v-95.1h0V77.5c0-1.5,1.2-2.6,2.6-2.6c0.7,0,1.4,0.3,1.9,0.8
		l44.7,44.7c3.6,3.6,9.5,3.6,13.1,0C220.9,116.7,220.9,110.9,217.3,107.3z"/>
</g>
</svg>