<?xml version="1.0" encoding="utf-8"?>
<svg fill="#000000" height="800px" width="800px" version="1.2" baseProfile="tiny" id="Layer_1" xmlns="http://www.w3.org/2000/svg" xmlns:xlink="http://www.w3.org/1999/xlink"
	  viewBox="-191 65 256 256" xml:space="preserve">
<path d="M-55.5,110.5c11.1,0.8,21.1-7.4,22.1-19c0.8-11.1-7.4-21.1-19-22.1c-11.1-0.8-21.1,7.4-22.1,19
	C-75.2,99.7-66.6,109.7-55.5,110.5 M-72.9,118.9c3.9-2.9,8.8-4.5,14.3-4.3c6.8,0.6,12.9,4.9,16.2,10l20.5,40.8l27.9,19.5
	c2.3,2,3.9,4.9,3.7,8c-0.2,5.1-4.9,8.8-10,8.2c-1.4,0-2.9-0.6-4.3-1.4l-30.1-20.5c-0.8-0.8-1.8-1.8-2.3-2.9l-7.8-15.2l-9.2,40.6
	l36.3,43c0.8,1.4,1.4,2.9,1.8,4.3l9.8,51.8c0,1.2,0,2,0,2.9c-0.6,7.8-7.2,13.1-14.9,12.9c-6.3-0.6-10.9-5.1-12.5-10.9l-9.2-48.3
	l-29.5-32.8l-6.8,31.5c-0.2,1.4-2.3,4.5-2.9,5.7l-28.1,47.9c-2.9,4.3-7.4,7.2-12.9,6.6c-7.8-0.6-13.5-7.2-12.9-14.9
	c0.2-2.3,1.2-4.3,2-6.1l26.4-44l21.9-97.1l-14.3,11.5l-7.8,34.6c-0.8,4.3-5.1,8-9.8,7.8c-5.1-0.2-8.8-4.9-8.6-10
	c0-0.2,0-0.8,0.2-1.2l8.8-40.3c0.6-1.8,1.4-3.1,2.9-4.3L-72.9,118.9z"/>
</svg>